<svg width="930" height="203" viewBox="0 0 930 203" fill="none" xmlns="http://www.w3.org/2000/svg">
<path d="M313.909 99.8857H350.726V148.001C345.859 149.609 340.802 150.9 335.555 151.873C330.307 152.804 324.362 153.27 317.718 153.27C308.493 153.27 300.664 151.45 294.231 147.811C287.799 144.171 282.911 138.797 279.568 131.688C276.225 124.578 274.554 115.84 274.554 105.472C274.554 95.7386 276.416 87.3174 280.14 80.208C283.906 73.0986 289.386 67.5973 296.58 63.7041C303.816 59.8109 312.64 57.8643 323.05 57.8643C327.959 57.8643 332.804 58.3932 337.586 59.4512C342.368 60.5091 346.705 61.8844 350.599 63.5771L344.061 79.3193C341.225 77.8805 337.988 76.6745 334.349 75.7012C330.709 74.7279 326.901 74.2412 322.923 74.2412C317.21 74.2412 312.238 75.5531 308.006 78.1768C303.816 80.8005 300.558 84.4821 298.23 89.2217C295.945 93.9189 294.803 99.4626 294.803 105.853C294.803 111.904 295.628 117.278 297.278 121.976C298.929 126.631 301.531 130.291 305.086 132.957C308.641 135.581 313.274 136.893 318.987 136.893C321.78 136.893 324.129 136.766 326.033 136.512C327.98 136.215 329.799 135.919 331.492 135.623V116.263H313.909V99.8857ZM457.112 105.472C457.112 112.623 456.224 119.14 454.446 125.022C452.669 130.862 449.961 135.898 446.321 140.13C442.724 144.362 438.154 147.62 432.61 149.905C427.067 152.148 420.507 153.27 412.933 153.27C405.358 153.27 398.799 152.148 393.255 149.905C387.711 147.62 383.12 144.362 379.48 140.13C375.883 135.898 373.196 130.841 371.419 124.959C369.642 119.077 368.753 112.539 368.753 105.345C368.753 95.7386 370.319 87.3809 373.45 80.2715C376.624 73.1198 381.491 67.5762 388.05 63.6406C394.609 59.7051 402.946 57.7373 413.06 57.7373C423.131 57.7373 431.404 59.7051 437.879 63.6406C444.396 67.5762 449.22 73.1198 452.352 80.2715C455.525 87.4232 457.112 95.8232 457.112 105.472ZM389.383 105.472C389.383 111.946 390.187 117.532 391.795 122.229C393.445 126.884 396.006 130.481 399.476 133.021C402.946 135.517 407.431 136.766 412.933 136.766C418.519 136.766 423.047 135.517 426.517 133.021C429.987 130.481 432.505 126.884 434.07 122.229C435.678 117.532 436.482 111.946 436.482 105.472C436.482 95.7386 434.663 88.0791 431.023 82.4932C427.384 76.9072 421.396 74.1143 413.06 74.1143C407.516 74.1143 402.988 75.3838 399.476 77.9229C396.006 80.4196 393.445 84.0166 391.795 88.7139C390.187 93.3688 389.383 98.9548 389.383 105.472ZM545.345 99.8857H582.161V148.001C577.295 149.609 572.238 150.9 566.99 151.873C561.743 152.804 555.797 153.27 549.153 153.27C539.928 153.27 532.099 151.45 525.667 147.811C519.235 144.171 514.347 138.797 511.004 131.688C507.661 124.578 505.989 115.84 505.989 105.472C505.989 95.7386 507.851 87.3174 511.575 80.208C515.341 73.0986 520.822 67.5973 528.016 63.7041C535.252 59.8109 544.075 57.8643 554.485 57.8643C559.394 57.8643 564.24 58.3932 569.021 59.4512C573.803 60.5091 578.141 61.8844 582.034 63.5771L575.496 79.3193C572.661 77.8805 569.424 76.6745 565.784 75.7012C562.145 74.7279 558.336 74.2412 554.358 74.2412C548.646 74.2412 543.673 75.5531 539.441 78.1768C535.252 80.8005 531.993 84.4821 529.666 89.2217C527.381 93.9189 526.238 99.4626 526.238 105.853C526.238 111.904 527.063 117.278 528.714 121.976C530.364 126.631 532.967 130.291 536.521 132.957C540.076 135.581 544.71 136.893 550.423 136.893C553.216 136.893 555.564 136.766 557.469 136.512C559.415 136.215 561.235 135.919 562.928 135.623V116.263H545.345V99.8857ZM631.355 59.1973C639.777 59.1973 646.717 60.2129 652.176 62.2441C657.677 64.2754 661.761 67.3434 664.427 71.4482C667.093 75.5531 668.426 80.737 668.426 87C668.426 91.2318 667.622 94.9346 666.014 98.1084C664.406 101.282 662.29 103.969 659.666 106.17C657.042 108.37 654.207 110.169 651.16 111.565L678.455 152H656.619L634.466 116.39H623.992V152H604.314V59.1973H631.355ZM629.959 75.3203H623.992V100.394H630.34C636.857 100.394 641.512 99.3145 644.305 97.1562C647.14 94.9557 648.558 91.7396 648.558 87.5078C648.558 83.1068 647.034 79.9753 643.987 78.1133C640.983 76.2513 636.307 75.3203 629.959 75.3203ZM743.582 152H690.135V59.1973H743.582V75.3203H709.812V95.6963H741.233V111.819H709.812V135.75H743.582V152ZM816.453 152H763.006V59.1973H816.453V75.3203H782.684V95.6963H814.104V111.819H782.684V135.75H816.453V152ZM918.206 152H893.196L852.825 81.7949H852.254C852.423 84.7148 852.571 87.6559 852.698 90.6182C852.825 93.5804 852.952 96.5426 853.079 99.5049C853.206 102.425 853.333 105.366 853.46 108.328V152H835.877V59.1973H860.696L901.004 128.704H901.448C901.364 125.826 901.258 122.97 901.131 120.135C901.004 117.299 900.877 114.464 900.75 111.629C900.665 108.794 900.581 105.958 900.496 103.123V59.1973H918.206V152Z" fill="white"/>
<path d="M149.825 23.7112C149.825 23.7112 159.17 24.6227 153.013 19.6065C153.013 19.6065 114.724 -10.473 70.9717 3.88165C70.9717 3.88165 45.2204 10.9443 28.8134 38.0658C28.8134 38.0658 26.3083 45.3578 20.6099 50.374C20.6099 50.374 -12.6627 90.0272 5.34379 140.395C5.34379 140.395 17.8754 185.288 69.384 199.878C69.384 199.878 108.584 211.727 145.044 185.523C145.044 185.523 201.563 146.552 176.947 80.9181C176.947 80.9181 192.901 131.056 158.946 168.428C158.946 168.428 117.241 217.655 54.3413 186.887C54.3413 186.887 4.20294 162.206 10.1306 101.277C10.1306 101.277 11.2715 89.345 21.9801 67.9277C21.9801 67.9277 30.6423 52.4322 52.7476 43.3172C52.7476 43.3172 78.0462 30.0976 103.109 25.3166C103.109 25.3166 65.2793 36.0252 30.1836 63.8289C30.1836 63.8289 22.8916 68.1571 34.7411 69.2979C34.7411 69.2979 78.499 79.0951 108.578 52.4322C108.578 52.4264 133.418 28.2687 149.825 23.7112Z" fill="white"/>
<path d="M67.8844 108.016C67.7433 109.016 67.4434 110.333 66.9847 111.974C66.5201 113.614 65.9262 115.332 65.2029 117.131C65.6792 117.131 66.1908 117.149 66.7318 117.178C67.2729 117.207 67.8315 117.272 68.3902 117.36C68.9488 117.449 69.4899 117.572 70.0074 117.725C70.5249 117.878 70.9659 118.078 71.3305 118.325C71.5834 118.478 71.6657 118.642 71.5834 118.807C71.501 118.972 71.3717 119.054 71.207 119.054C71.0365 119.054 70.913 118.978 70.8306 118.819C70.7718 118.731 70.6131 118.619 70.3484 118.484C70.0838 118.348 69.7251 118.219 69.2782 118.084C68.8312 117.948 68.3255 117.837 67.7668 117.748C67.2082 117.66 66.6083 117.613 65.9615 117.613H65.7086L65.244 117.649H64.9912C64.4031 119.025 63.7504 120.365 63.0388 121.671C62.3272 122.976 61.5392 124.135 60.6865 125.146C59.8338 126.158 58.9165 126.969 57.9403 127.593C56.9582 128.21 55.9409 128.522 54.8765 128.522C53.9532 128.522 53.1534 128.316 52.483 127.904C51.8127 127.493 51.4598 126.846 51.4363 125.958C51.4069 124.94 51.6598 123.958 52.189 123.018C52.7183 122.077 53.4769 121.224 54.4531 120.459C55.4292 119.695 56.6054 119.036 57.9756 118.484C59.3458 117.931 60.8571 117.543 62.5095 117.319C62.9035 116.408 63.2505 115.537 63.5563 114.691C63.8621 113.85 64.1444 113.062 64.3972 112.332C64.6501 111.603 64.8618 110.956 65.0264 110.404C65.197 109.851 65.3205 109.427 65.4028 109.139C65.344 109.227 65.0264 109.521 64.4384 110.021C63.8503 110.521 63.1035 111.115 62.192 111.803C61.2805 112.491 60.269 113.22 59.1517 113.997C58.0344 114.773 56.8935 115.49 55.7292 116.143C54.5707 116.796 53.4416 117.343 52.3478 117.772C51.254 118.207 50.2896 118.419 49.4545 118.419C48.5842 118.419 47.8609 118.301 47.2728 118.072C46.6847 117.837 46.2143 117.531 45.8673 117.143C45.5145 116.755 45.2675 116.314 45.1146 115.814C44.9617 115.314 44.8853 114.802 44.8853 114.267C44.8853 113.026 45.144 111.733 45.6615 110.392C46.179 109.051 46.9023 107.74 47.8256 106.452C48.7488 105.164 49.8309 103.952 51.0776 102.812C52.3243 101.671 53.6592 100.665 55.0882 99.8008C56.5172 98.9363 58.0167 98.2483 59.5986 97.7367C61.1805 97.225 62.7506 96.9722 64.3208 96.9722C65.4675 96.9722 66.3555 97.1603 66.9847 97.5367C67.6139 97.9131 68.0844 98.3541 68.3902 98.8481C68.696 99.3479 68.8842 99.8243 68.9547 100.277C69.0253 100.73 69.0606 101.047 69.0606 101.224C69.0606 101.471 68.9959 101.859 68.8724 102.406C68.7489 102.947 68.5725 103.494 68.349 104.035C68.1255 104.576 67.8492 105.058 67.5316 105.481C67.2082 105.905 66.8377 106.111 66.4202 106.111C66.085 106.111 65.8439 105.981 65.7086 105.728C65.5675 105.476 65.7086 105.234 66.1261 105.011C66.5731 104.77 67.0082 104.288 67.4258 103.564C67.8433 102.847 68.0844 102.053 68.1373 101.189C68.1667 100.789 68.102 100.395 67.9491 100.007C67.7962 99.6185 67.5787 99.2715 67.2964 98.9598C67.0141 98.6481 66.6672 98.3953 66.2496 98.1953C65.8321 97.9954 65.3675 97.8954 64.8618 97.8954C63.6857 97.8954 62.4213 98.1307 61.0629 98.5952C59.7045 99.0598 58.3637 99.6949 57.0347 100.489C55.7056 101.289 54.4237 102.229 53.1946 103.317C51.9655 104.405 50.8776 105.564 49.9426 106.793C49.0076 108.022 48.2549 109.304 47.6962 110.633C47.1375 111.962 46.8553 113.285 46.8553 114.591C46.8553 115.432 47.067 116.161 47.4845 116.766C47.902 117.372 48.3784 117.684 48.9135 117.684C49.725 117.684 50.6718 117.472 51.748 117.055C52.8241 116.631 53.9414 116.096 55.1058 115.443C56.2643 114.791 57.4287 114.055 58.5871 113.25C59.7456 112.438 60.8041 111.638 61.7568 110.839C62.7095 110.039 63.5151 109.298 64.1679 108.61C64.8265 107.922 65.2382 107.381 65.4087 106.981C65.4616 106.893 65.5792 106.846 65.7439 106.846C66.4437 106.822 66.9906 106.934 67.3787 107.181C67.7727 107.428 67.9433 107.704 67.8844 108.016ZM62.2625 117.925C60.6395 118.213 59.2223 118.654 58.005 119.254C56.7877 119.854 55.7644 120.524 54.9411 121.265C54.1179 122.006 53.5004 122.788 53.0946 123.611C52.6889 124.429 52.4889 125.193 52.4889 125.905C52.4889 126.481 52.6712 126.94 53.0358 127.287C53.4004 127.628 53.8768 127.804 54.4648 127.804C55.1646 127.804 55.8644 127.522 56.5642 126.958C57.264 126.393 57.952 125.646 58.6224 124.711C59.2928 123.782 59.9397 122.723 60.5513 121.536C61.157 120.348 61.7274 119.142 62.2625 117.925Z" fill="white"/>
<path d="M70.2368 116.561C69.6487 116.561 69.19 116.419 68.849 116.125C68.5138 115.837 68.3726 115.449 68.4314 114.961C68.4609 114.626 68.5667 114.285 68.749 113.932C68.9313 113.579 69.1548 113.256 69.4194 112.967C69.684 112.679 69.9839 112.438 70.3191 112.25C70.6543 112.062 70.9895 111.968 71.3247 111.968C71.607 111.968 71.8305 112.032 71.9951 112.168C72.0774 111.991 72.3303 111.903 72.7478 111.903C73.2536 111.903 73.6299 112.05 73.8828 112.35C74.1357 112.65 74.218 113.044 74.1357 113.532C74.1357 113.62 74.1239 113.697 74.0945 113.767C74.0651 113.832 74.0357 113.914 74.0122 114.002C74.3474 114.226 74.7825 114.338 75.3118 114.338C75.9822 114.338 76.5644 114.261 77.0525 114.102C77.5406 113.95 77.9699 113.767 78.3345 113.556C78.6991 113.344 78.9931 113.126 79.2165 112.909C79.44 112.685 79.6223 112.509 79.7635 112.379C79.8752 112.268 79.9869 112.268 80.0986 112.379C80.2104 112.491 80.2221 112.603 80.1398 112.715C80.081 112.779 79.9516 112.932 79.7399 113.162C79.5282 113.397 79.2224 113.632 78.8167 113.879C78.4109 114.126 77.9228 114.344 77.3465 114.543C76.7702 114.743 76.0822 114.843 75.2706 114.843C74.7414 114.843 74.2239 114.755 73.7181 114.579C73.4124 115.108 72.9478 115.578 72.3303 115.978C71.7187 116.361 71.0189 116.561 70.2368 116.561ZM72.8361 114.038C72.5303 113.797 72.295 113.538 72.1421 113.273C71.9892 113.009 71.8951 112.785 71.8716 112.609C71.4247 112.856 71.0366 113.167 70.719 113.556C70.3956 113.944 70.1604 114.32 70.0075 114.685C69.8546 115.049 69.8134 115.367 69.884 115.631C69.9545 115.896 70.131 116.031 70.4073 116.031C70.6308 116.031 71.0013 115.902 71.5188 115.649C72.0363 115.396 72.4715 114.855 72.8361 114.038ZM73.0889 112.973C73.1183 112.773 73.1007 112.673 73.0478 112.673C73.0183 112.673 73.036 112.773 73.0889 112.973Z" fill="white"/>
<path d="M102.763 108.016C102.621 109.016 102.322 110.333 101.863 111.974C101.404 113.614 100.804 115.332 100.081 117.131C100.557 117.131 101.069 117.149 101.61 117.178C102.157 117.213 102.71 117.272 103.268 117.36C103.827 117.449 104.368 117.572 104.886 117.725C105.403 117.878 105.844 118.078 106.209 118.325C106.462 118.478 106.544 118.642 106.462 118.807C106.379 118.972 106.25 119.054 106.085 119.054C105.921 119.054 105.791 118.978 105.709 118.819C105.65 118.731 105.491 118.619 105.227 118.484C104.962 118.348 104.603 118.219 104.156 118.084C103.709 117.948 103.204 117.837 102.645 117.748C102.086 117.66 101.487 117.613 100.84 117.613H100.587L100.122 117.649H99.8693C99.2813 119.025 98.6285 120.365 97.917 121.671C97.2054 122.976 96.4174 124.135 95.5647 125.146C94.712 126.158 93.7946 126.969 92.8185 127.593C91.8364 128.21 90.819 128.522 89.7546 128.522C88.8314 128.522 88.0316 128.316 87.3612 127.904C86.6908 127.493 86.338 126.846 86.3145 125.958C86.2851 124.94 86.5379 123.958 87.0672 123.018C87.5964 122.077 88.355 121.224 89.3312 120.459C90.3074 119.695 91.4835 119.036 92.8537 118.484C94.2239 117.931 95.7352 117.543 97.3877 117.319C97.7817 116.408 98.1287 115.537 98.4345 114.691C98.7403 113.85 99.0225 113.062 99.2754 112.332C99.5283 111.603 99.74 110.956 99.9046 110.404C100.075 109.851 100.199 109.427 100.281 109.139C100.222 109.227 99.9046 109.521 99.3166 110.021C98.7285 110.521 97.9817 111.115 97.0702 111.803C96.1587 112.491 95.1472 113.22 94.0299 113.997C92.9125 114.773 91.7717 115.49 90.6073 116.143C89.4488 116.796 88.3198 117.343 87.226 117.772C86.1322 118.207 85.1677 118.419 84.3327 118.419C83.4623 118.419 82.739 118.301 82.151 118.072C81.5629 117.837 81.0925 117.531 80.7455 117.143C80.3927 116.755 80.1457 116.314 79.9928 115.814C79.8399 115.314 79.7634 114.802 79.7634 114.267C79.7634 113.026 80.0222 111.733 80.5397 110.392C81.0572 109.051 81.7805 107.74 82.7037 106.452C83.627 105.164 84.709 103.952 85.9557 102.812C87.2024 101.671 88.5373 100.665 89.9663 99.8008C91.3953 98.9363 92.8949 98.2483 94.4768 97.7367C96.0587 97.225 97.6288 96.9722 99.199 96.9722C100.346 96.9722 101.234 97.1603 101.863 97.5367C102.492 97.9131 102.963 98.3541 103.268 98.8481C103.574 99.3479 103.762 99.8243 103.833 100.277C103.903 100.73 103.939 101.047 103.939 101.224C103.939 101.471 103.874 101.859 103.751 102.406C103.627 102.947 103.451 103.494 103.227 104.035C103.004 104.576 102.727 105.058 102.41 105.481C102.086 105.905 101.716 106.111 101.298 106.111C100.963 106.111 100.722 105.981 100.587 105.728C100.446 105.476 100.587 105.234 101.004 105.011C101.451 104.77 101.886 104.288 102.304 103.564C102.721 102.847 102.963 102.053 103.015 101.189C103.045 100.789 102.98 100.395 102.827 100.007C102.674 99.6185 102.457 99.2715 102.175 98.9598C101.892 98.6481 101.545 98.3953 101.128 98.1953C100.71 97.9954 100.246 97.8954 99.74 97.8954C98.5638 97.8954 97.2995 98.1307 95.9411 98.5952C94.5826 99.0598 93.2419 99.6949 91.9128 100.489C90.5838 101.289 89.3018 102.229 88.0728 103.317C86.8437 104.405 85.7558 105.564 84.8208 106.793C83.8858 108.022 83.133 109.304 82.5744 110.633C82.0157 111.962 81.7334 113.285 81.7334 114.591C81.7334 115.432 81.9451 116.161 82.3627 116.766C82.7802 117.372 83.2565 117.684 83.7917 117.684C84.6032 117.684 85.55 117.472 86.6261 117.055C87.7023 116.631 88.8196 116.096 89.984 115.443C91.1425 114.791 92.3068 114.055 93.4653 113.25C94.6238 112.438 95.6823 111.638 96.635 110.839C97.5876 110.039 98.3933 109.298 99.046 108.61C99.7047 107.922 100.116 107.381 100.287 106.981C100.34 106.893 100.457 106.846 100.622 106.846C101.322 106.822 101.869 106.934 102.257 107.181C102.651 107.428 102.816 107.704 102.763 108.016ZM97.1348 117.925C95.5118 118.213 94.0946 118.654 92.8773 119.254C91.66 119.854 90.6367 120.524 89.8134 121.265C88.9901 122.006 88.3727 122.788 87.9669 123.611C87.5612 124.429 87.3612 125.193 87.3612 125.905C87.3612 126.481 87.5435 126.94 87.9081 127.287C88.2727 127.628 88.749 127.804 89.3371 127.804C90.0369 127.804 90.7367 127.522 91.4365 126.958C92.1363 126.393 92.8243 125.646 93.4947 124.711C94.1651 123.782 94.812 122.723 95.4236 121.536C96.0293 120.348 96.6056 119.142 97.1348 117.925Z" fill="white"/>
<path d="M113.548 113.003C113.489 113.05 113.336 113.185 113.083 113.42C112.83 113.656 112.524 113.92 112.16 114.22C111.795 114.52 111.384 114.843 110.919 115.185C110.46 115.526 109.996 115.849 109.531 116.149C109.067 116.449 108.62 116.69 108.19 116.878C107.755 117.066 107.373 117.16 107.038 117.16C106.591 117.16 106.226 117.084 105.944 116.925C105.662 116.772 105.527 116.514 105.527 116.161C105.527 115.873 105.597 115.579 105.738 115.279C105.879 114.979 106.032 114.691 106.203 114.414C106.373 114.138 106.532 113.885 106.685 113.667C106.838 113.444 106.932 113.279 106.955 113.167C106.955 113.12 106.814 113.109 106.538 113.12C106.256 113.132 105.909 113.138 105.491 113.138C104.68 113.138 104.274 112.815 104.274 112.174C104.274 111.885 104.386 111.574 104.609 111.244C104.833 110.909 105.138 110.745 105.532 110.745C105.756 110.745 105.979 110.792 106.203 110.88C106.426 110.968 106.538 111.103 106.538 111.28C106.538 111.527 106.438 111.75 106.244 111.962C106.05 112.174 105.868 112.368 105.697 112.544L107.167 112.509C107.561 112.485 107.896 112.562 108.173 112.744C108.455 112.92 108.52 113.156 108.384 113.444C108.326 113.597 108.243 113.779 108.132 113.973C108.02 114.173 107.908 114.367 107.796 114.555C107.685 114.743 107.579 114.914 107.479 115.073C107.379 115.226 107.302 115.337 107.25 115.408C107.026 115.784 106.92 116.078 106.932 116.29C106.944 116.502 107.067 116.608 107.291 116.608C107.626 116.608 108.073 116.443 108.631 116.108C109.19 115.773 109.766 115.39 110.355 114.943C110.943 114.502 111.489 114.061 111.989 113.632C112.495 113.197 112.854 112.885 113.083 112.685C113.136 112.621 113.26 112.632 113.442 112.721C113.624 112.791 113.659 112.891 113.548 113.003Z" fill="white"/>
<path d="M113.754 114.567C113.724 114.702 113.712 114.855 113.712 115.032C113.712 115.208 113.742 115.373 113.795 115.531C113.848 115.684 113.954 115.82 114.112 115.931C114.265 116.043 114.483 116.096 114.765 116.096C115.183 116.096 115.665 115.996 116.212 115.796C116.759 115.596 117.306 115.343 117.847 115.032C118.393 114.72 118.911 114.373 119.399 113.985C119.887 113.597 120.299 113.214 120.64 112.838C120.752 112.726 120.875 112.709 121.016 112.791C121.157 112.867 121.187 112.962 121.099 113.073C121.069 113.138 120.852 113.361 120.446 113.738C120.04 114.114 119.534 114.508 118.934 114.92C118.335 115.331 117.658 115.708 116.917 116.049C116.176 116.39 115.441 116.566 114.712 116.566C113.93 116.566 113.307 116.408 112.842 116.084C112.378 115.761 112.148 115.337 112.148 114.802C112.148 114.402 112.254 114.008 112.466 113.62C112.677 113.232 112.948 112.897 113.283 112.609C113.618 112.321 114.001 112.085 114.436 111.909C114.871 111.732 115.324 111.644 115.8 111.644C116.218 111.644 116.576 111.727 116.87 111.891C117.164 112.056 117.311 112.338 117.311 112.738C117.311 112.938 117.241 113.15 117.1 113.367C116.959 113.591 116.764 113.797 116.512 113.985C116.259 114.173 115.953 114.332 115.588 114.467C115.224 114.602 114.806 114.667 114.33 114.667C114.218 114.667 114.112 114.655 114.012 114.632C113.93 114.614 113.842 114.59 113.754 114.567ZM113.883 114.238C113.936 114.261 114.036 114.273 114.177 114.273C114.43 114.273 114.689 114.226 114.953 114.126C115.218 114.026 115.471 113.891 115.706 113.708C115.941 113.532 116.129 113.326 116.271 113.091C116.412 112.856 116.482 112.62 116.482 112.373C116.482 112.262 116.412 112.209 116.271 112.209C116.188 112.209 116.047 112.232 115.853 112.274C115.659 112.321 115.447 112.409 115.224 112.538C115 112.673 114.771 112.873 114.53 113.138C114.295 113.403 114.077 113.767 113.883 114.238Z" fill="white"/>
<path d="M121.475 114.567C121.445 114.702 121.434 114.855 121.434 115.032C121.434 115.208 121.463 115.373 121.516 115.531C121.569 115.684 121.675 115.82 121.834 115.931C121.986 116.043 122.204 116.096 122.486 116.096C122.904 116.096 123.386 115.996 123.933 115.796C124.48 115.596 125.027 115.343 125.568 115.032C126.115 114.72 126.632 114.373 127.12 113.985C127.608 113.597 128.02 113.214 128.361 112.838C128.473 112.726 128.596 112.709 128.737 112.791C128.879 112.867 128.908 112.962 128.82 113.073C128.79 113.138 128.573 113.361 128.167 113.738C127.761 114.114 127.255 114.508 126.656 114.92C126.056 115.331 125.38 115.708 124.639 116.049C123.898 116.39 123.163 116.566 122.433 116.566C121.651 116.566 121.028 116.408 120.563 116.084C120.099 115.761 119.869 115.337 119.869 114.802C119.869 114.402 119.975 114.008 120.187 113.62C120.399 113.232 120.669 112.897 121.004 112.609C121.34 112.321 121.722 112.085 122.157 111.909C122.592 111.732 123.045 111.644 123.521 111.644C123.939 111.644 124.298 111.727 124.592 111.891C124.886 112.056 125.033 112.338 125.033 112.738C125.033 112.938 124.962 113.15 124.821 113.367C124.68 113.591 124.486 113.797 124.233 113.985C123.98 114.173 123.674 114.332 123.31 114.467C122.945 114.602 122.527 114.667 122.051 114.667C121.939 114.667 121.834 114.655 121.734 114.632C121.651 114.614 121.563 114.59 121.475 114.567ZM121.604 114.238C121.657 114.261 121.757 114.273 121.898 114.273C122.151 114.273 122.41 114.226 122.674 114.126C122.939 114.026 123.192 113.891 123.427 113.708C123.662 113.532 123.851 113.326 123.992 113.091C124.133 112.856 124.203 112.62 124.203 112.373C124.203 112.262 124.133 112.209 123.992 112.209C123.909 112.209 123.768 112.232 123.574 112.274C123.38 112.321 123.168 112.409 122.945 112.538C122.721 112.673 122.492 112.873 122.251 113.138C122.016 113.403 121.798 113.767 121.604 114.238Z" fill="white"/>
<path d="M130.919 112.274C130.749 112.45 130.555 112.709 130.331 113.056C130.108 113.397 129.902 113.756 129.725 114.12C129.543 114.485 129.39 114.826 129.261 115.132C129.137 115.443 129.073 115.661 129.073 115.796C129.408 115.573 129.884 115.214 130.502 114.714C131.119 114.214 131.772 113.709 132.472 113.185C133.171 112.662 133.848 112.203 134.506 111.803C135.165 111.403 135.7 111.203 136.124 111.203C136.206 111.203 136.318 111.209 136.459 111.221C136.6 111.233 136.747 111.268 136.9 111.321C137.053 111.374 137.17 111.456 137.259 111.556C137.347 111.656 137.358 111.797 137.3 111.974C137.27 112.127 137.153 112.385 136.941 112.738C136.729 113.091 136.5 113.467 136.247 113.867C135.994 114.267 135.771 114.655 135.577 115.032C135.383 115.408 135.253 115.684 135.2 115.861C135.141 116.014 135.112 116.202 135.094 116.425C135.083 116.649 135.171 116.761 135.365 116.761C135.671 116.761 136.118 116.561 136.706 116.161C137.294 115.761 137.882 115.314 138.47 114.814C139.058 114.314 139.581 113.856 140.046 113.432C140.511 113.009 140.752 112.768 140.781 112.703C140.863 112.591 140.993 112.591 141.157 112.703C141.328 112.815 141.369 112.903 141.281 112.968C141.057 113.232 140.693 113.603 140.187 114.079C139.681 114.555 139.14 115.032 138.552 115.508C137.964 115.984 137.382 116.402 136.812 116.755C136.235 117.108 135.753 117.284 135.365 117.284C134.836 117.284 134.406 117.172 134.083 116.949C133.76 116.725 133.613 116.449 133.642 116.12C133.671 115.679 133.801 115.208 134.042 114.72C134.277 114.232 134.524 113.779 134.777 113.356C135.03 112.932 135.259 112.585 135.471 112.309C135.683 112.033 135.788 111.874 135.788 111.827C135.453 111.85 135.018 112.027 134.489 112.356C133.959 112.691 133.383 113.085 132.766 113.556C132.148 114.02 131.543 114.491 130.943 114.967C130.343 115.443 129.802 115.849 129.326 116.178C129.102 116.314 128.89 116.378 128.696 116.378C128.391 116.378 128.102 116.272 127.838 116.061C127.573 115.849 127.455 115.614 127.479 115.343C127.508 115.079 127.626 114.732 127.838 114.314C128.049 113.891 128.285 113.485 128.549 113.085C128.814 112.685 129.079 112.344 129.349 112.056C129.614 111.768 129.82 111.621 129.955 111.621C130.349 111.621 130.625 111.697 130.796 111.856C130.96 112.027 131.002 112.162 130.919 112.274Z" fill="white"/>
<path d="M31.9891 134.744C31.9891 134.873 31.995 134.979 32.0067 135.067C32.0185 135.155 32.042 135.202 32.0832 135.202C32.1243 135.22 32.142 135.249 32.142 135.285C32.142 135.326 32.089 135.343 31.9891 135.343C31.9479 135.343 31.8597 135.302 31.7127 135.22C31.5715 135.138 31.501 134.961 31.501 134.691C31.501 134.544 31.5598 134.326 31.6833 134.038C31.8068 133.75 32.0361 133.456 32.3713 133.156C32.7065 132.856 33.1652 132.597 33.7591 132.374C34.3472 132.15 35.1117 132.038 36.0408 132.038C36.7112 132.038 37.3934 132.056 38.0814 132.097C38.7695 132.138 39.4692 132.191 40.1808 132.256L40.4866 131.65C40.5866 131.556 40.7277 131.503 40.9159 131.503C41.1393 131.503 41.3393 131.55 41.5275 131.65C41.7098 131.744 41.7686 131.844 41.7098 131.938C41.6921 131.974 41.6686 132.009 41.651 132.062C41.6333 132.097 41.6098 132.138 41.5922 132.197C41.5745 132.256 41.5392 132.321 41.4981 132.403C42.7977 132.532 44.0679 132.656 45.3028 132.779C46.5437 132.903 47.7198 132.926 48.8371 132.862C49.3664 132.832 49.8897 132.779 50.419 132.715C50.9483 132.65 51.4187 132.556 51.8362 132.438C52.2538 132.315 52.5948 132.168 52.8536 131.98C53.1182 131.797 53.2476 131.574 53.2476 131.315C53.2476 131.233 53.2299 131.18 53.1888 131.156C53.1476 131.133 53.1065 131.103 53.0653 131.074C53.0241 131.045 53.0065 131.003 53.0182 130.951C53.03 130.903 53.0712 130.892 53.1535 130.927C53.2123 130.945 53.3182 130.998 53.4593 131.086C53.6004 131.174 53.671 131.321 53.671 131.533C53.671 131.627 53.6122 131.786 53.5063 132.003C53.3946 132.221 53.1594 132.438 52.8065 132.656C52.4537 132.874 51.948 133.068 51.3011 133.25C50.6483 133.426 49.7898 133.532 48.7136 133.562C47.6551 133.597 46.4672 133.562 45.1382 133.467C43.8092 133.373 42.486 133.268 41.1629 133.156C40.8982 133.72 40.5513 134.473 40.1102 135.414C39.6751 136.355 39.1987 137.36 38.693 138.431C38.1873 139.501 37.6757 140.583 37.1523 141.677C36.6348 142.771 36.1702 143.77 35.7527 144.67C35.3352 145.57 34.9882 146.311 34.7 146.893C34.4178 147.469 34.2649 147.787 34.2414 147.834C34.1826 147.963 34.0061 148.028 33.7239 148.028C33.5592 148.028 33.4063 147.999 33.2652 147.946C33.124 147.887 33.0593 147.81 33.0829 147.716C33.1417 147.493 33.3122 147.046 33.5827 146.387C33.8532 145.729 34.2002 144.946 34.6177 144.047C35.0352 143.147 35.4881 142.171 35.9703 141.13C36.4584 140.083 36.9406 139.054 37.4169 138.043C37.8932 137.031 38.346 136.084 38.7695 135.208C39.1929 134.332 39.5398 133.614 39.8044 133.05C38.5048 132.938 37.3463 132.868 36.3349 132.832C35.9467 132.832 35.4998 132.862 34.9941 132.915C34.4883 132.973 34.012 133.073 33.5651 133.226C33.1182 133.379 32.7418 133.579 32.436 133.832C32.142 134.061 31.9891 134.373 31.9891 134.744Z" fill="white"/>
<path d="M40.2102 144.923C40.1926 145.017 40.1808 145.135 40.1808 145.258C40.1808 145.388 40.1984 145.505 40.2396 145.623C40.2808 145.735 40.3572 145.835 40.4689 145.911C40.5807 145.993 40.7395 146.035 40.9394 146.035C41.2452 146.035 41.5922 145.964 41.992 145.817C42.3919 145.67 42.7859 145.488 43.1799 145.264C43.5739 145.041 43.9503 144.788 44.309 144.506C44.6618 144.223 44.9618 143.947 45.2087 143.671C45.2911 143.588 45.3793 143.576 45.4851 143.635C45.5851 143.694 45.6086 143.759 45.5439 143.841C45.5263 143.888 45.3675 144.053 45.0735 144.323C44.7795 144.6 44.4149 144.882 43.9797 145.182C43.5445 145.482 43.0564 145.752 42.5154 146.005C41.9744 146.252 41.4451 146.382 40.9159 146.382C40.3455 146.382 39.8985 146.264 39.5633 146.035C39.2281 145.799 39.0635 145.494 39.0635 145.105C39.0635 144.817 39.1399 144.529 39.2928 144.247C39.4457 143.965 39.6457 143.718 39.8868 143.512C40.1279 143.3 40.4101 143.135 40.7218 143.006C41.0335 142.877 41.3687 142.812 41.7098 142.812C42.0156 142.812 42.2743 142.871 42.486 142.994C42.6977 143.118 42.8036 143.318 42.8036 143.612C42.8036 143.759 42.7506 143.912 42.6507 144.07C42.5507 144.229 42.4096 144.382 42.2214 144.517C42.0391 144.653 41.8156 144.77 41.551 144.864C41.2864 144.958 40.9806 145.011 40.6395 145.011C40.5572 145.011 40.4807 145.005 40.4101 144.988C40.3396 144.958 40.2749 144.941 40.2102 144.923ZM40.3043 144.682C40.3455 144.7 40.416 144.706 40.516 144.706C40.6983 144.706 40.8865 144.67 41.0805 144.6C41.2746 144.529 41.4569 144.429 41.6274 144.3C41.798 144.17 41.9391 144.023 42.0391 143.853C42.1391 143.682 42.192 143.512 42.192 143.335C42.192 143.253 42.1391 143.212 42.0391 143.212C41.9803 143.212 41.8744 143.23 41.7333 143.259C41.5922 143.294 41.4393 143.353 41.2746 143.453C41.1099 143.547 40.9453 143.694 40.7747 143.888C40.6042 144.082 40.4454 144.347 40.3043 144.682Z" fill="white"/>
<path d="M48.4315 143.865C48.3727 144.023 48.2609 144.106 48.0963 144.106C47.914 144.106 47.8199 144.041 47.8199 143.912C47.8199 143.829 47.8434 143.776 47.8963 143.741C47.9493 143.712 47.9904 143.635 48.0316 143.523C48.0904 143.282 47.9728 143.159 47.667 143.159C47.3024 143.159 46.9731 143.306 46.6791 143.606C46.385 143.906 46.1792 144.235 46.0557 144.594C45.9322 144.958 45.9263 145.288 46.0263 145.593C46.1263 145.899 46.4027 146.052 46.8496 146.052C47.1554 146.052 47.4906 145.976 47.8552 145.823C48.2198 145.67 48.5844 145.476 48.949 145.229C49.3136 144.988 49.6723 144.717 50.0134 144.423C50.3603 144.123 50.6544 143.841 50.8955 143.565C50.9543 143.482 51.0366 143.471 51.1366 143.529C51.2366 143.588 51.266 143.653 51.2307 143.735C51.213 143.782 51.066 143.953 50.7896 144.241C50.5132 144.529 50.1663 144.847 49.737 145.182C49.3077 145.517 48.8196 145.823 48.2609 146.099C47.7023 146.37 47.1083 146.511 46.4791 146.511C45.991 146.511 45.6147 146.417 45.35 146.234C45.0854 146.052 44.9149 145.823 44.8325 145.546C44.7502 145.276 44.7561 144.97 44.8502 144.641C44.9443 144.311 45.0913 144.012 45.3089 143.735C45.5206 143.465 45.7911 143.235 46.1145 143.047C46.4379 142.865 46.7967 142.771 47.1789 142.771C47.6846 142.771 48.0434 142.877 48.2433 143.094C48.455 143.318 48.5138 143.571 48.4315 143.865Z" fill="white"/>
<path d="M51.0541 146.37C50.7306 146.37 50.5189 146.305 50.4131 146.176C50.3131 146.046 50.2837 145.905 50.319 145.74C50.6424 144.582 51.0776 143.418 51.6127 142.241C52.1479 141.065 52.7654 139.93 53.4534 138.825C54.1414 137.725 54.8765 136.69 55.6586 135.726C56.4408 134.761 57.2346 133.92 58.052 133.203C58.8636 132.485 59.6692 131.927 60.4749 131.515C61.2746 131.104 62.0332 130.898 62.7448 130.898C63.374 130.898 63.8621 131.045 64.2091 131.345C64.556 131.645 64.7266 132.009 64.7266 132.444C64.7266 133.103 64.5443 133.785 64.1797 134.485C63.8151 135.185 63.3211 135.879 62.7036 136.561C62.0862 137.243 61.3746 137.902 60.5748 138.537C59.7751 139.172 58.9341 139.766 58.0638 140.324C57.1935 140.877 56.3114 141.377 55.4293 141.818C54.5472 142.259 53.718 142.624 52.9477 142.918C52.7242 143.353 52.5301 143.782 52.3714 144.211C52.2067 144.641 52.0479 145.058 51.8833 145.476C52.2067 145.217 52.5831 144.917 53.0123 144.57C53.4357 144.223 53.8709 143.9 54.3061 143.594C54.7413 143.288 55.1588 143.029 55.5528 142.824C55.9468 142.612 56.2761 142.512 56.5407 142.512C56.5995 142.512 56.6819 142.518 56.7818 142.524C56.8818 142.53 56.9818 142.559 57.0876 142.594C57.1876 142.635 57.2817 142.688 57.364 142.765C57.4463 142.835 57.4875 142.935 57.4875 143.065C57.4875 143.288 57.3875 143.6 57.1817 143.994C56.9759 144.388 56.7642 144.776 56.5407 145.152C56.3173 145.529 56.1408 145.858 56.0056 146.129C55.8762 146.399 55.8703 146.54 55.9879 146.54C56.2114 146.54 56.5348 146.393 56.9641 146.105C57.3934 145.817 57.8168 145.488 58.2402 145.129C58.6695 144.764 59.0459 144.435 59.3811 144.129C59.7163 143.823 59.8927 143.647 59.9162 143.6C59.975 143.518 60.0691 143.518 60.1926 143.6C60.3161 143.682 60.3455 143.747 60.2867 143.794C60.122 143.988 59.8574 144.259 59.4928 144.6C59.1282 144.947 58.7342 145.294 58.3049 145.635C57.8815 145.982 57.4581 146.281 57.0406 146.54C56.6231 146.799 56.2761 146.928 55.9879 146.928C55.1764 146.928 54.7707 146.705 54.7707 146.252C54.7707 146.058 54.853 145.811 55.0118 145.505C55.1764 145.199 55.347 144.888 55.5293 144.564C55.7116 144.241 55.8821 143.935 56.0468 143.647C56.2114 143.359 56.2879 143.129 56.2879 142.971C56.0468 142.988 55.7233 143.118 55.3293 143.371C54.9353 143.618 54.5119 143.917 54.065 144.264C53.618 144.611 53.177 144.97 52.7418 145.341C52.3067 145.711 51.9244 146.017 51.601 146.258C51.5598 146.323 51.4834 146.358 51.3716 146.364C51.2599 146.37 51.1541 146.37 51.0541 146.37ZM63.2035 131.65C62.4743 131.65 61.6628 131.962 60.7689 132.58C59.8751 133.197 58.9753 134.014 58.0756 135.026C57.17 136.037 56.2996 137.19 55.4587 138.478C54.6178 139.766 53.8592 141.083 53.1888 142.436C54.4884 141.871 55.788 141.195 57.0876 140.395C58.3872 139.601 59.5516 138.754 60.5925 137.86C61.6275 136.967 62.4625 136.061 63.1035 135.132C63.7445 134.209 64.0621 133.332 64.0621 132.515C64.0621 132.144 63.9739 131.909 63.8033 131.803C63.6269 131.703 63.427 131.65 63.2035 131.65Z" fill="white"/>
<path d="M61.5863 143.259C61.4628 143.388 61.3217 143.576 61.1571 143.823C60.9924 144.07 60.8454 144.329 60.716 144.594C60.5866 144.858 60.4749 145.105 60.3808 145.329C60.2867 145.552 60.2456 145.717 60.2456 145.811C60.4867 145.652 60.8336 145.388 61.2805 145.029C61.7275 144.664 62.2038 144.3 62.7095 143.918C63.2153 143.541 63.7093 143.206 64.1856 142.918C64.6619 142.63 65.0559 142.483 65.3558 142.483C65.4146 142.483 65.497 142.489 65.5969 142.494C65.6969 142.5 65.8028 142.53 65.9145 142.565C66.0262 142.606 66.1144 142.659 66.1732 142.736C66.232 142.806 66.2438 142.906 66.2026 143.035C66.185 143.147 66.0968 143.335 65.9439 143.588C65.791 143.847 65.6263 144.117 65.444 144.412C65.2617 144.706 65.0971 144.982 64.9559 145.258C64.8148 145.535 64.7207 145.735 64.6796 145.864C64.6384 145.976 64.6149 146.111 64.6031 146.276C64.5913 146.434 64.656 146.517 64.8031 146.517C65.0265 146.517 65.35 146.37 65.7792 146.082C66.2026 145.793 66.6319 145.464 67.0553 145.105C67.4787 144.741 67.861 144.412 68.1962 144.106C68.5314 143.8 68.7078 143.624 68.7313 143.576C68.7901 143.494 68.8842 143.494 69.0077 143.576C69.1312 143.659 69.1606 143.723 69.1018 143.771C68.9371 143.965 68.6784 144.235 68.3079 144.576C67.9433 144.923 67.5493 145.27 67.12 145.611C66.6907 145.958 66.2732 146.258 65.8557 146.517C65.4382 146.776 65.0912 146.905 64.8031 146.905C64.4149 146.905 64.1091 146.823 63.8739 146.664C63.6387 146.505 63.5328 146.299 63.5564 146.058C63.574 145.735 63.674 145.399 63.8445 145.047C64.015 144.694 64.1973 144.364 64.3796 144.059C64.5619 143.753 64.7325 143.5 64.8795 143.3C65.0324 143.1 65.1088 142.983 65.1088 142.953C64.8677 142.971 64.5502 143.1 64.1621 143.341C63.7739 143.582 63.3623 143.871 62.9154 144.212C62.4684 144.547 62.0274 144.894 61.5922 145.235C61.1571 145.582 60.7631 145.876 60.422 146.117C60.2573 146.211 60.1044 146.264 59.9633 146.264C59.7398 146.264 59.534 146.187 59.3399 146.035C59.1459 145.882 59.0635 145.711 59.0812 145.517C59.0988 145.323 59.187 145.076 59.3399 144.77C59.4928 144.464 59.6634 144.165 59.8574 143.876C60.0515 143.588 60.2456 143.335 60.4337 143.13C60.6278 142.918 60.7748 142.818 60.8748 142.818C61.1571 142.818 61.3629 142.877 61.4864 142.988C61.6216 143.082 61.651 143.177 61.5863 143.259Z" fill="white"/>
<path d="M69.1724 146.37C68.7489 146.37 68.4137 146.264 68.1668 146.058C67.9257 145.847 67.8198 145.57 67.861 145.211C67.8786 144.97 67.9551 144.723 68.0903 144.465C68.2197 144.206 68.3843 143.976 68.5784 143.765C68.7725 143.553 68.9901 143.383 69.2312 143.247C69.4723 143.112 69.7193 143.041 69.9604 143.041C70.1603 143.041 70.325 143.088 70.4485 143.188C70.5073 143.059 70.6896 142.994 70.9953 142.994C71.3599 142.994 71.6363 143.1 71.8186 143.318C72.0009 143.535 72.0598 143.824 72.0009 144.176C72.0009 144.241 71.9892 144.3 71.9715 144.347C71.9539 144.394 71.9304 144.453 71.9127 144.517C72.1538 144.676 72.4714 144.759 72.8595 144.759C73.3476 144.759 73.7651 144.7 74.1239 144.588C74.4767 144.476 74.7884 144.341 75.053 144.188C75.3176 144.035 75.5293 143.876 75.694 143.718C75.8586 143.559 75.988 143.43 76.088 143.33C76.1703 143.247 76.2526 143.247 76.3291 143.33C76.4114 143.412 76.4232 143.488 76.3585 143.571C76.3173 143.618 76.2232 143.729 76.0703 143.894C75.9174 144.065 75.694 144.235 75.4 144.412C75.1059 144.588 74.7472 144.747 74.3356 144.894C73.918 145.041 73.4182 145.111 72.8301 145.111C72.442 145.111 72.0715 145.047 71.701 144.917C71.4776 145.305 71.1424 145.641 70.6954 145.929C70.2485 146.229 69.7369 146.37 69.1724 146.37ZM71.06 144.541C70.8366 144.365 70.666 144.176 70.5602 143.988C70.4485 143.794 70.3838 143.635 70.3602 143.506C70.0368 143.682 69.7545 143.912 69.5252 144.194C69.29 144.476 69.1194 144.747 69.0077 145.017C68.896 145.282 68.8666 145.511 68.9136 145.705C68.9665 145.899 69.09 145.994 69.2959 145.994C69.4605 145.994 69.7251 145.899 70.1015 145.717C70.4779 145.523 70.7954 145.135 71.06 144.541ZM71.2423 143.765C71.26 143.618 71.2541 143.547 71.2129 143.547C71.1894 143.547 71.2012 143.624 71.2423 143.765Z" fill="white"/>
<path d="M77.6994 143.306C77.4347 144.064 77.2936 144.776 77.2759 145.452C77.2583 145.887 77.3465 146.252 77.5523 146.552C77.7523 146.852 78.0698 146.999 78.4991 146.999C78.9872 146.999 79.5459 146.899 80.1751 146.699C80.8043 146.499 81.4394 146.234 82.0804 145.917C82.7214 145.593 83.3448 145.229 83.9505 144.817C84.5562 144.406 85.0854 143.982 85.5324 143.553C85.6147 143.471 85.7088 143.471 85.8205 143.553C85.9323 143.635 85.9499 143.712 85.8676 143.794C85.3795 144.247 84.8267 144.688 84.2092 145.123C83.5918 145.558 82.9449 145.952 82.2745 146.305C81.6041 146.658 80.9337 146.946 80.2633 147.164C79.5929 147.381 78.9637 147.487 78.3756 147.487C78.1522 147.487 77.8934 147.469 77.5994 147.428C77.3054 147.387 77.0231 147.293 76.7467 147.152C76.4703 147.011 76.2351 146.799 76.0293 146.523C75.8293 146.252 75.7235 145.887 75.7235 145.435C75.7058 144.582 75.9116 143.623 76.3468 142.553C76.782 141.483 77.37 140.395 78.111 139.295C78.852 138.196 79.6988 137.114 80.6514 136.061C81.6041 135.008 82.5979 134.073 83.6212 133.262C84.6444 132.45 85.6735 131.792 86.6967 131.298C87.72 130.798 88.6609 130.551 89.5136 130.551C90.1016 130.551 90.5721 130.674 90.9308 130.927C91.2836 131.174 91.4659 131.545 91.4659 132.027C91.4659 132.703 91.1072 133.497 90.3839 134.403C89.6606 135.314 88.6785 136.267 87.4318 137.261C86.1851 138.26 84.7208 139.278 83.0449 140.324C81.3689 141.359 79.587 142.359 77.6994 143.306ZM77.9111 142.706C79.7576 141.759 81.4688 140.795 83.0449 139.813C84.615 138.831 85.9852 137.872 87.1378 136.931C88.2963 135.99 89.2019 135.097 89.8605 134.256C90.5192 133.409 90.8485 132.668 90.8485 132.021C90.8485 131.78 90.7897 131.58 90.6662 131.427C90.5427 131.274 90.3604 131.198 90.1193 131.198C89.6959 131.18 89.1431 131.327 88.4727 131.633C87.8023 131.939 87.079 132.368 86.2969 132.909C85.5147 133.456 84.7091 134.097 83.874 134.838C83.039 135.579 82.2451 136.378 81.4806 137.237C80.722 138.096 80.0222 138.995 79.393 139.93C78.7755 140.865 78.2757 141.789 77.9111 142.706Z" fill="white"/>
<path d="M86.1028 146.37C85.6794 146.37 85.3442 146.264 85.0972 146.058C84.8561 145.847 84.7502 145.57 84.7914 145.211C84.809 144.97 84.8855 144.723 85.0207 144.465C85.1501 144.206 85.3148 143.976 85.5088 143.765C85.7029 143.553 85.9205 143.383 86.1616 143.247C86.4027 143.112 86.6497 143.041 86.8908 143.041C87.0907 143.041 87.2554 143.088 87.3789 143.188C87.4377 143.059 87.62 142.994 87.9258 142.994C88.2904 142.994 88.5668 143.1 88.7491 143.318C88.9314 143.535 88.9902 143.824 88.9314 144.176C88.9314 144.241 88.9196 144.3 88.902 144.347C88.8843 144.394 88.8608 144.453 88.8431 144.517C89.0843 144.676 89.4018 144.759 89.7899 144.759C90.278 144.759 90.6956 144.7 91.0543 144.588C91.4071 144.476 91.7188 144.341 91.9834 144.188C92.248 144.035 92.4597 143.876 92.6244 143.718C92.7891 143.559 92.9184 143.43 93.0184 143.33C93.1007 143.247 93.1831 143.247 93.2595 143.33C93.3418 143.412 93.3536 143.488 93.2889 143.571C93.2478 143.618 93.1537 143.729 93.0008 143.894C92.8479 144.065 92.6244 144.235 92.3304 144.412C92.0363 144.588 91.6776 144.747 91.266 144.894C90.8485 145.041 90.3486 145.111 89.7605 145.111C89.3724 145.111 89.0019 145.047 88.6314 144.917C88.408 145.305 88.0728 145.641 87.6259 145.929C87.1789 146.229 86.6732 146.37 86.1028 146.37ZM87.9905 144.541C87.767 144.365 87.5965 144.176 87.4906 143.988C87.3789 143.794 87.3142 143.635 87.2907 143.506C86.9672 143.682 86.685 143.912 86.4556 144.194C86.2204 144.476 86.0498 144.747 85.9381 145.017C85.8264 145.282 85.797 145.511 85.844 145.705C85.8969 145.899 86.0204 145.994 86.2263 145.994C86.3909 145.994 86.6556 145.899 87.0319 145.717C87.4083 145.523 87.7258 145.135 87.9905 144.541ZM88.1728 143.765C88.1904 143.618 88.1845 143.547 88.1434 143.547C88.1198 143.547 88.1316 143.624 88.1728 143.765Z" fill="white"/>
<path d="M88.6903 151.898C88.7315 151.445 88.8726 151.016 89.1196 150.592C89.3607 150.175 89.7547 149.751 90.2899 149.328C90.8309 148.899 91.5366 148.463 92.4069 148.011C93.2772 147.558 94.3534 147.076 95.6354 146.564C95.6942 146.211 95.7471 145.858 95.7883 145.5C95.8294 145.147 95.8471 144.782 95.8471 144.412C95.6824 144.606 95.4942 144.812 95.2825 145.041C95.0708 145.264 94.8297 145.47 94.5651 145.658C94.3005 145.841 94.0241 145.994 93.73 146.105C93.436 146.217 93.1243 146.264 92.8009 146.252C92.3951 146.223 92.0893 146.111 91.8894 145.929C91.6895 145.747 91.6071 145.5 91.6483 145.194C91.6895 144.859 91.813 144.541 92.0305 144.241C92.2422 143.941 92.5069 143.682 92.8244 143.459C93.1361 143.236 93.4831 143.059 93.8594 142.93C94.2358 142.8 94.618 142.747 95.0003 142.759C95.2414 142.777 95.459 142.824 95.6413 142.906C95.8236 142.989 95.9647 143.083 96.0705 143.194C96.194 143.13 96.3234 143.1 96.4645 143.1C96.688 143.118 96.8468 143.159 96.935 143.236C97.0291 143.306 97.0702 143.383 97.0702 143.465C97.1114 143.788 97.1232 144.165 97.1173 144.6C97.1055 145.035 97.0585 145.511 96.982 146.023C97.3702 145.829 97.7642 145.611 98.1699 145.358C98.5757 145.111 98.9521 144.859 99.299 144.6C99.646 144.341 99.9576 144.1 100.246 143.865C100.528 143.63 100.746 143.435 100.887 143.271C100.987 143.159 101.093 143.153 101.204 143.259C101.316 143.365 101.334 143.447 101.251 143.512C100.746 144.029 100.111 144.559 99.3461 145.117C98.5816 145.676 97.7759 146.135 96.9232 146.505C96.7821 147.328 96.5645 148.175 96.2705 149.051C95.9764 149.928 95.5824 150.722 95.0826 151.439C94.5827 152.156 93.9888 152.733 93.2831 153.162C92.5774 153.591 91.7541 153.791 90.8015 153.738C90.1134 153.703 89.5783 153.521 89.2019 153.186C88.8197 152.839 88.6492 152.415 88.6903 151.898ZM89.3901 151.921C89.349 152.292 89.4489 152.597 89.6783 152.839C89.9135 153.08 90.2017 153.215 90.5486 153.25C91.119 153.28 91.6659 153.133 92.1952 152.803C92.7244 152.474 93.2067 152.021 93.6418 151.451C94.077 150.88 94.4592 150.21 94.7827 149.445C95.1061 148.681 95.359 147.875 95.5413 147.023C94.424 147.487 93.4831 147.922 92.7068 148.328C91.9364 148.728 91.3131 149.128 90.8368 149.522C90.3604 149.916 90.0076 150.304 89.7841 150.692C89.5665 151.08 89.4313 151.486 89.3901 151.921ZM95.8471 143.765C95.8471 143.735 95.8412 143.706 95.8294 143.682C95.8177 143.659 95.8236 143.63 95.8471 143.6C95.8059 143.518 95.7471 143.441 95.6648 143.371C95.5824 143.3 95.4825 143.253 95.359 143.236C95.1355 143.218 94.865 143.283 94.5533 143.418C94.2358 143.553 93.9417 143.735 93.6536 143.959C93.3713 144.182 93.1243 144.429 92.9244 144.694C92.7186 144.959 92.6068 145.223 92.5892 145.476C92.5892 145.558 92.6068 145.641 92.6362 145.729C92.6656 145.817 92.7421 145.87 92.8656 145.888C93.2713 145.923 93.7536 145.729 94.3122 145.323C94.865 144.911 95.3825 144.394 95.8471 143.765Z" fill="white"/>
<path d="M102.21 143.259C102.11 143.371 101.963 143.582 101.769 143.888C101.575 144.194 101.416 144.506 101.281 144.817C101.151 145.129 101.087 145.405 101.098 145.641C101.11 145.876 101.263 145.982 101.569 145.964C101.851 145.946 102.18 145.829 102.557 145.599C102.933 145.376 103.286 145.117 103.621 144.829C103.956 144.541 104.25 144.265 104.503 144.006C104.756 143.747 104.915 143.588 104.974 143.524C105.074 143.441 105.174 143.429 105.28 143.488C105.379 143.547 105.403 143.612 105.338 143.694C105.174 143.853 104.95 144.082 104.668 144.382C104.386 144.682 104.068 144.97 103.721 145.252C103.374 145.535 103.004 145.782 102.61 145.999C102.216 146.217 101.822 146.34 101.439 146.376C101.051 146.405 100.704 146.358 100.387 146.217C100.075 146.082 99.9046 145.817 99.887 145.435C99.887 145.223 99.9458 144.97 100.052 144.676C100.163 144.376 100.299 144.088 100.463 143.806C100.628 143.524 100.793 143.282 100.963 143.083C101.134 142.883 101.281 142.783 101.404 142.783C101.645 142.753 101.863 142.8 102.045 142.941C102.245 143.071 102.292 143.177 102.21 143.259ZM101.786 142.053C101.786 141.748 101.98 141.595 102.363 141.595C102.751 141.595 102.939 141.748 102.939 142.053C102.939 142.359 102.745 142.512 102.363 142.512C101.98 142.512 101.786 142.359 101.786 142.053Z" fill="white"/>
<path d="M105.38 144.923C105.362 145.017 105.35 145.135 105.35 145.258C105.35 145.388 105.368 145.505 105.409 145.623C105.45 145.735 105.527 145.835 105.638 145.911C105.75 145.993 105.909 146.035 106.109 146.035C106.415 146.035 106.762 145.964 107.161 145.817C107.555 145.67 107.955 145.488 108.349 145.264C108.743 145.041 109.12 144.788 109.478 144.506C109.831 144.223 110.131 143.947 110.378 143.671C110.461 143.588 110.549 143.576 110.655 143.635C110.755 143.694 110.778 143.759 110.713 143.841C110.696 143.888 110.537 144.053 110.243 144.323C109.949 144.6 109.584 144.882 109.149 145.182C108.714 145.482 108.226 145.752 107.685 146.005C107.144 146.252 106.615 146.382 106.085 146.382C105.515 146.382 105.068 146.264 104.733 146.035C104.398 145.799 104.233 145.494 104.233 145.105C104.233 144.817 104.309 144.529 104.462 144.247C104.615 143.965 104.815 143.718 105.056 143.512C105.297 143.3 105.58 143.135 105.891 143.006C106.203 142.877 106.538 142.812 106.879 142.812C107.185 142.812 107.444 142.871 107.655 142.994C107.867 143.118 107.973 143.318 107.973 143.612C107.973 143.759 107.92 143.912 107.82 144.07C107.72 144.229 107.579 144.382 107.391 144.517C107.209 144.653 106.985 144.77 106.72 144.864C106.456 144.958 106.15 145.011 105.809 145.011C105.727 145.011 105.65 145.005 105.58 144.988C105.503 144.958 105.438 144.941 105.38 144.923ZM105.468 144.682C105.509 144.7 105.58 144.706 105.68 144.706C105.862 144.706 106.05 144.67 106.244 144.6C106.438 144.529 106.62 144.429 106.791 144.3C106.962 144.17 107.103 144.023 107.203 143.853C107.303 143.682 107.356 143.512 107.356 143.335C107.356 143.253 107.303 143.212 107.203 143.212C107.144 143.212 107.038 143.23 106.897 143.259C106.756 143.294 106.603 143.353 106.438 143.453C106.273 143.547 106.109 143.694 105.938 143.888C105.768 144.082 105.609 144.347 105.468 144.682Z" fill="white"/>
<path d="M111.348 145.07C111.184 144.735 110.984 144.365 110.737 143.959C110.496 143.559 110.36 143.218 110.343 142.947C110.325 142.594 110.443 142.336 110.707 142.177C110.972 142.018 111.278 141.936 111.619 141.936C111.966 141.936 112.213 142 112.366 142.13C112.519 142.259 112.607 142.412 112.624 142.589C112.624 142.606 112.619 142.653 112.607 142.736C112.595 142.818 112.56 142.906 112.501 143C112.442 143.094 112.342 143.194 112.213 143.288C112.083 143.382 111.895 143.465 111.648 143.529C111.772 143.788 111.901 144.018 112.042 144.229C112.183 144.441 112.307 144.659 112.407 144.882C113.218 144.723 113.836 144.506 114.265 144.241C114.689 143.976 115.024 143.753 115.271 143.576C115.371 143.494 115.471 143.5 115.559 143.588C115.653 143.676 115.647 143.759 115.541 143.841C115.318 144.018 114.971 144.241 114.506 144.506C114.042 144.77 113.377 144.994 112.524 145.17C112.583 145.364 112.619 145.582 112.619 145.823C112.636 146.064 112.595 146.276 112.483 146.464C112.372 146.646 112.219 146.805 112.025 146.934C111.831 147.064 111.619 147.158 111.384 147.222C111.148 147.287 110.913 147.317 110.666 147.317C109.731 147.317 109.284 147.011 109.325 146.399C109.325 146.287 109.349 146.17 109.402 146.052C109.455 145.929 109.549 145.817 109.69 145.699C109.831 145.588 110.037 145.476 110.302 145.376C110.572 145.264 110.919 145.164 111.348 145.07ZM111.501 145.382C110.813 145.541 110.372 145.717 110.178 145.899C109.984 146.082 109.908 146.264 109.949 146.44C109.99 146.764 110.184 146.917 110.525 146.899C110.69 146.881 110.895 146.77 111.148 146.564C111.401 146.352 111.531 146.046 111.531 145.646C111.531 145.535 111.519 145.447 111.501 145.382ZM111.531 143.212C111.96 143.053 112.172 142.859 112.172 142.636C112.172 142.442 112.06 142.347 111.836 142.347C111.736 142.347 111.631 142.383 111.519 142.453C111.407 142.524 111.372 142.665 111.413 142.877C111.454 142.941 111.478 143 111.489 143.059C111.495 143.112 111.507 143.165 111.531 143.212Z" fill="white"/>
<path d="M126.997 132.785C126.956 132.756 126.873 132.744 126.756 132.762C126.738 132.762 126.656 132.797 126.515 132.868C126.373 132.938 126.226 133.056 126.073 133.215C125.921 133.373 125.785 133.591 125.662 133.867C125.538 134.144 125.48 134.485 125.48 134.902C125.48 135.032 125.532 135.232 125.644 135.508C125.756 135.785 125.973 136.049 126.297 136.302C126.944 135.514 127.661 134.767 128.443 134.056C129.225 133.35 130.049 132.727 130.907 132.197C131.772 131.668 132.66 131.251 133.571 130.945C134.483 130.639 135.388 130.486 136.282 130.486C137.117 130.486 137.776 130.627 138.264 130.909C138.752 131.192 138.993 131.645 138.993 132.274C138.993 132.85 138.729 133.45 138.199 134.073C137.67 134.691 136.959 135.261 136.071 135.773C135.177 136.29 134.148 136.708 132.977 137.037C131.807 137.366 130.584 137.531 129.308 137.531C128.62 137.531 127.996 137.461 127.45 137.314C126.72 138.249 126.132 139.207 125.685 140.195C125.238 141.183 125.015 142.147 125.015 143.077C125.015 144.317 125.427 145.276 126.25 145.958C127.073 146.64 128.155 146.981 129.496 146.981C129.925 146.981 130.407 146.922 130.96 146.799C131.513 146.675 132.083 146.476 132.683 146.193C133.283 145.911 133.889 145.529 134.512 145.047C135.13 144.564 135.718 143.959 136.265 143.235C136.347 143.141 136.453 143.124 136.582 143.188C136.712 143.253 136.741 143.335 136.659 143.429C136.617 143.476 136.429 143.712 136.094 144.129C135.759 144.547 135.277 145 134.647 145.482C134.018 145.964 133.254 146.405 132.366 146.799C131.472 147.193 130.455 147.393 129.32 147.393C128.426 147.393 127.614 147.287 126.885 147.069C126.156 146.852 125.532 146.546 125.015 146.152C124.497 145.758 124.098 145.282 123.809 144.717C123.527 144.153 123.38 143.535 123.38 142.859C123.38 141.942 123.615 140.948 124.08 139.877C124.544 138.807 125.174 137.749 125.968 136.702C125.156 136.184 124.75 135.479 124.75 134.579C124.75 134.244 124.815 133.938 124.95 133.662C125.08 133.391 125.238 133.144 125.421 132.938C125.603 132.727 125.809 132.568 126.032 132.456C126.256 132.344 126.462 132.286 126.644 132.286C126.967 132.286 127.132 132.397 127.132 132.621C127.132 132.685 127.114 132.727 127.085 132.756C127.044 132.797 127.02 132.803 126.997 132.785ZM127.791 136.961C127.991 136.996 128.202 137.019 128.414 137.043C128.626 137.067 128.867 137.078 129.131 137.078C130.266 137.078 131.384 136.931 132.483 136.643C133.577 136.355 134.553 135.973 135.406 135.496C136.259 135.02 136.947 134.485 137.476 133.891C138.005 133.297 138.27 132.703 138.27 132.103C138.27 131.78 138.135 131.55 137.858 131.415C137.582 131.28 137.347 131.209 137.141 131.209C136.488 131.192 135.765 131.333 134.965 131.633C134.165 131.933 133.342 132.338 132.501 132.862C131.66 133.385 130.831 133.997 130.019 134.697C129.202 135.408 128.461 136.155 127.791 136.961Z" fill="white"/>
<path d="M136.529 146.37C136.1 146.37 135.771 146.264 135.524 146.058C135.283 145.847 135.177 145.57 135.218 145.211C135.236 144.97 135.312 144.723 135.447 144.465C135.577 144.206 135.741 143.976 135.935 143.765C136.129 143.553 136.347 143.383 136.588 143.247C136.829 143.112 137.076 143.041 137.317 143.041C137.517 143.041 137.682 143.088 137.805 143.188C137.864 143.059 138.046 142.994 138.352 142.994C138.717 142.994 138.993 143.1 139.176 143.318C139.358 143.535 139.417 143.824 139.358 144.176C139.358 144.241 139.346 144.3 139.328 144.347C139.311 144.394 139.287 144.453 139.27 144.517C139.511 144.676 139.828 144.759 140.216 144.759C140.705 144.759 141.122 144.7 141.481 144.588C141.834 144.476 142.145 144.341 142.41 144.188C142.675 144.035 142.886 143.876 143.051 143.718C143.216 143.559 143.345 143.43 143.445 143.33C143.527 143.247 143.61 143.247 143.686 143.33C143.768 143.412 143.78 143.488 143.715 143.571C143.674 143.618 143.58 143.729 143.427 143.894C143.274 144.065 143.051 144.235 142.757 144.412C142.463 144.588 142.104 144.747 141.692 144.894C141.275 145.041 140.775 145.111 140.187 145.111C139.799 145.111 139.428 145.047 139.058 144.917C138.835 145.305 138.499 145.641 138.052 145.929C137.605 146.229 137.1 146.37 136.529 146.37ZM138.417 144.541C138.194 144.365 138.023 144.176 137.917 143.988C137.805 143.794 137.741 143.635 137.717 143.506C137.394 143.682 137.111 143.912 136.882 144.194C136.647 144.476 136.476 144.747 136.365 145.017C136.253 145.282 136.223 145.511 136.271 145.705C136.323 145.899 136.447 145.994 136.653 145.994C136.817 145.994 137.082 145.899 137.458 145.717C137.835 145.523 138.152 145.135 138.417 144.541ZM138.599 143.765C138.617 143.618 138.611 143.547 138.57 143.547C138.552 143.547 138.558 143.624 138.599 143.765Z" fill="white"/>
<path d="M149.896 143.788C149.855 143.823 149.743 143.923 149.561 144.088C149.378 144.253 149.155 144.453 148.89 144.664C148.626 144.882 148.326 145.117 147.991 145.364C147.655 145.611 147.32 145.846 146.985 146.064C146.65 146.282 146.326 146.458 146.009 146.593C145.691 146.729 145.415 146.799 145.174 146.799C144.85 146.799 144.586 146.74 144.38 146.629C144.174 146.517 144.074 146.329 144.074 146.076C144.074 145.864 144.127 145.652 144.227 145.435C144.327 145.217 144.439 145.011 144.562 144.806C144.686 144.606 144.803 144.423 144.915 144.265C145.027 144.106 145.091 143.982 145.115 143.9C145.115 143.871 145.015 143.853 144.809 143.865C144.603 143.871 144.35 143.876 144.051 143.876C143.462 143.876 143.168 143.641 143.168 143.177C143.168 142.965 143.251 142.741 143.41 142.5C143.574 142.259 143.798 142.136 144.08 142.136C144.245 142.136 144.403 142.171 144.568 142.23C144.733 142.295 144.809 142.389 144.809 142.518C144.809 142.694 144.739 142.859 144.597 143.012C144.456 143.165 144.321 143.306 144.203 143.435L145.268 143.412C145.55 143.394 145.797 143.453 145.997 143.582C146.197 143.712 146.25 143.882 146.15 144.088C146.109 144.2 146.05 144.329 145.968 144.476C145.885 144.623 145.803 144.764 145.727 144.9C145.644 145.035 145.568 145.158 145.497 145.276C145.427 145.388 145.368 145.47 145.333 145.517C145.168 145.794 145.091 146.005 145.103 146.158C145.115 146.311 145.197 146.387 145.362 146.387C145.603 146.387 145.932 146.264 146.338 146.023C146.744 145.782 147.161 145.499 147.585 145.176C148.014 144.853 148.408 144.535 148.773 144.223C149.137 143.912 149.402 143.682 149.567 143.535C149.608 143.488 149.696 143.494 149.825 143.559C149.955 143.635 149.978 143.712 149.896 143.788Z" fill="white"/>
<path d="M151.39 143.282C151.39 143.3 151.354 143.388 151.284 143.547C151.213 143.706 151.119 143.935 150.996 144.223C151.625 143.77 152.237 143.418 152.825 143.159C153.413 142.9 153.96 142.771 154.471 142.771C154.918 142.771 155.271 142.853 155.536 143.024C155.8 143.194 155.924 143.429 155.9 143.735C155.883 144.059 155.806 144.353 155.688 144.629C155.565 144.905 155.406 145.17 155.2 145.423C155.812 145.229 156.335 145.023 156.782 144.794C157.229 144.57 157.606 144.353 157.911 144.141C158.217 143.929 158.446 143.753 158.611 143.612C158.776 143.465 158.864 143.388 158.888 143.371C158.97 143.306 159.064 143.306 159.176 143.371C159.287 143.435 159.305 143.506 159.223 143.588C158.693 144.2 158.017 144.688 157.182 145.058C156.347 145.429 155.53 145.729 154.718 145.952C154.395 146.24 154.036 146.505 153.654 146.734C153.266 146.97 152.877 147.164 152.483 147.328C152.089 147.487 151.707 147.616 151.343 147.705C150.978 147.793 150.655 147.84 150.366 147.84C149.978 147.84 149.714 147.781 149.573 147.669C149.349 148.199 149.114 148.74 148.873 149.286C148.632 149.833 148.396 150.363 148.173 150.868C147.95 151.374 147.738 151.85 147.532 152.292C147.332 152.733 147.156 153.115 147.014 153.438C146.55 154.403 146.085 155.108 145.627 155.561C145.168 156.014 144.68 156.237 144.151 156.237C143.804 156.237 143.563 156.132 143.421 155.926C143.28 155.714 143.21 155.467 143.21 155.179C143.21 154.65 143.357 154.026 143.651 153.309C143.945 152.591 144.339 151.839 144.821 151.039C145.309 150.245 145.88 149.434 146.526 148.616C147.179 147.793 147.855 147.022 148.567 146.299C148.749 145.835 148.92 145.405 149.084 145.005C149.249 144.611 149.39 144.27 149.514 143.982C149.655 143.647 149.778 143.341 149.878 143.065C149.937 142.906 150.043 142.818 150.184 142.8C150.325 142.783 150.461 142.777 150.578 142.777C150.925 142.777 151.154 142.83 151.278 142.935C151.39 143.041 151.431 143.153 151.39 143.282ZM148.044 147.552C146.62 149.145 145.55 150.598 144.833 151.921C144.109 153.238 143.739 154.332 143.721 155.202C143.721 155.555 143.845 155.732 144.086 155.732C144.251 155.732 144.439 155.538 144.65 155.155C144.862 154.773 145.144 154.197 145.486 153.444C145.891 152.591 146.321 151.645 146.768 150.598C147.209 149.551 147.638 148.534 148.044 147.552ZM152.578 146.37C152.313 146.399 152.025 146.44 151.707 146.493C151.39 146.54 151.107 146.599 150.855 146.675C150.602 146.746 150.39 146.828 150.214 146.917C150.043 147.005 149.955 147.105 149.955 147.217C149.955 147.346 150.025 147.411 150.167 147.411C150.531 147.411 150.925 147.316 151.337 147.122C151.76 146.928 152.172 146.675 152.578 146.37ZM150.719 144.9C150.619 145.158 150.508 145.429 150.384 145.705C150.261 145.987 150.131 146.287 149.99 146.611C150.19 146.517 150.431 146.429 150.708 146.358C150.984 146.287 151.26 146.223 151.543 146.164C151.825 146.105 152.113 146.058 152.395 146.017C152.678 145.976 152.93 145.94 153.154 145.911C153.66 145.493 154.083 145.064 154.418 144.617C154.753 144.176 154.918 143.841 154.918 143.618C154.918 143.423 154.895 143.3 154.842 143.241C154.789 143.182 154.695 143.159 154.553 143.159C154.512 143.159 154.406 143.153 154.236 143.135C154.065 143.118 153.824 143.153 153.518 143.241C153.213 143.329 152.83 143.5 152.36 143.747C151.895 143.994 151.343 144.388 150.713 144.917V144.9H150.719Z" fill="white"/>
</svg>
