<svg width="1123" height="377" viewBox="0 0 1123 377" fill="none" xmlns="http://www.w3.org/2000/svg">
<rect width="1123" height="377" fill="#088B46"/>
<path d="M429.909 186.886H466.726V235.001C461.859 236.609 456.802 237.9 451.555 238.873C446.307 239.804 440.362 240.27 433.718 240.27C424.493 240.27 416.664 238.45 410.231 234.811C403.799 231.171 398.911 225.797 395.568 218.688C392.225 211.578 390.554 202.84 390.554 192.472C390.554 182.739 392.416 174.317 396.14 167.208C399.906 160.099 405.386 154.597 412.58 150.704C419.816 146.811 428.64 144.864 439.05 144.864C443.959 144.864 448.804 145.393 453.586 146.451C458.368 147.509 462.705 148.884 466.599 150.577L460.061 166.319C457.225 164.881 453.988 163.674 450.349 162.701C446.709 161.728 442.901 161.241 438.923 161.241C433.21 161.241 428.238 162.553 424.006 165.177C419.816 167.8 416.558 171.482 414.23 176.222C411.945 180.919 410.803 186.463 410.803 192.853C410.803 198.904 411.628 204.278 413.278 208.976C414.929 213.631 417.531 217.291 421.086 219.957C424.641 222.581 429.274 223.893 434.987 223.893C437.78 223.893 440.129 223.766 442.033 223.512C443.98 223.215 445.799 222.919 447.492 222.623V203.263H429.909V186.886ZM573.112 192.472C573.112 199.623 572.224 206.14 570.446 212.022C568.669 217.862 565.961 222.898 562.321 227.13C558.724 231.362 554.154 234.62 548.61 236.905C543.067 239.148 536.507 240.27 528.933 240.27C521.358 240.27 514.799 239.148 509.255 236.905C503.711 234.62 499.12 231.362 495.48 227.13C491.883 222.898 489.196 217.841 487.419 211.959C485.642 206.077 484.753 199.539 484.753 192.345C484.753 182.739 486.319 174.381 489.45 167.271C492.624 160.12 497.491 154.576 504.05 150.641C510.609 146.705 518.946 144.737 529.06 144.737C539.131 144.737 547.404 146.705 553.879 150.641C560.396 154.576 565.22 160.12 568.352 167.271C571.525 174.423 573.112 182.823 573.112 192.472ZM505.383 192.472C505.383 198.946 506.187 204.532 507.795 209.229C509.445 213.884 512.006 217.481 515.476 220.021C518.946 222.517 523.431 223.766 528.933 223.766C534.519 223.766 539.047 222.517 542.517 220.021C545.987 217.481 548.505 213.884 550.07 209.229C551.678 204.532 552.482 198.946 552.482 192.472C552.482 182.739 550.663 175.079 547.023 169.493C543.384 163.907 537.396 161.114 529.06 161.114C523.516 161.114 518.988 162.384 515.476 164.923C512.006 167.42 509.445 171.017 507.795 175.714C506.187 180.369 505.383 185.955 505.383 192.472ZM661.345 186.886H698.161V235.001C693.295 236.609 688.238 237.9 682.99 238.873C677.743 239.804 671.797 240.27 665.153 240.27C655.928 240.27 648.099 238.45 641.667 234.811C635.235 231.171 630.347 225.797 627.004 218.688C623.661 211.578 621.989 202.84 621.989 192.472C621.989 182.739 623.851 174.317 627.575 167.208C631.341 160.099 636.822 154.597 644.016 150.704C651.252 146.811 660.075 144.864 670.485 144.864C675.394 144.864 680.24 145.393 685.021 146.451C689.803 147.509 694.141 148.884 698.034 150.577L691.496 166.319C688.661 164.881 685.424 163.674 681.784 162.701C678.145 161.728 674.336 161.241 670.358 161.241C664.646 161.241 659.673 162.553 655.441 165.177C651.252 167.8 647.993 171.482 645.666 176.222C643.381 180.919 642.238 186.463 642.238 192.853C642.238 198.904 643.063 204.278 644.714 208.976C646.364 213.631 648.967 217.291 652.521 219.957C656.076 222.581 660.71 223.893 666.423 223.893C669.216 223.893 671.564 223.766 673.469 223.512C675.415 223.215 677.235 222.919 678.928 222.623V203.263H661.345V186.886ZM747.355 146.197C755.777 146.197 762.717 147.213 768.176 149.244C773.677 151.275 777.761 154.343 780.427 158.448C783.093 162.553 784.426 167.737 784.426 174C784.426 178.232 783.622 181.935 782.014 185.108C780.406 188.282 778.29 190.969 775.666 193.17C773.042 195.37 770.207 197.169 767.16 198.565L794.455 239H772.619L750.466 203.39H739.992V239H720.314V146.197H747.355ZM745.959 162.32H739.992V187.394H746.34C752.857 187.394 757.512 186.314 760.305 184.156C763.14 181.956 764.558 178.74 764.558 174.508C764.558 170.107 763.034 166.975 759.987 165.113C756.983 163.251 752.307 162.32 745.959 162.32ZM859.582 239H806.135V146.197H859.582V162.32H825.812V182.696H857.233V198.819H825.812V222.75H859.582V239ZM932.453 239H879.006V146.197H932.453V162.32H898.684V182.696H930.104V198.819H898.684V222.75H932.453V239ZM1034.21 239H1009.2L968.825 168.795H968.254C968.423 171.715 968.571 174.656 968.698 177.618C968.825 180.58 968.952 183.543 969.079 186.505C969.206 189.425 969.333 192.366 969.46 195.328V239H951.877V146.197H976.696L1017 215.704H1017.45C1017.36 212.826 1017.26 209.97 1017.13 207.135C1017 204.299 1016.88 201.464 1016.75 198.629C1016.67 195.794 1016.58 192.958 1016.5 190.123V146.197H1034.21V239Z" fill="white"/>
<path d="M265.825 110.711C265.825 110.711 275.17 111.623 269.013 106.606C269.013 106.606 230.724 76.527 186.972 90.8817C186.972 90.8817 161.22 97.9443 144.813 125.066C144.813 125.066 142.308 132.358 136.61 137.374C136.61 137.374 103.337 177.027 121.344 227.395C121.344 227.395 133.875 272.288 185.384 286.878C185.384 286.878 224.584 298.727 261.044 272.523C261.044 272.523 317.563 233.552 292.947 167.918C292.947 167.918 308.901 218.056 274.946 255.428C274.946 255.428 233.241 304.655 170.341 273.887C170.341 273.887 120.203 249.206 126.131 188.277C126.131 188.277 127.271 176.345 137.98 154.928C137.98 154.928 146.642 139.432 168.748 130.317C168.748 130.317 194.046 117.098 219.109 112.317C219.109 112.317 181.279 123.025 146.184 150.829C146.184 150.829 138.892 155.157 150.741 156.298C150.741 156.298 194.499 166.095 224.578 139.432C224.578 139.426 249.418 115.269 265.825 110.711Z" fill="white"/>
<path d="M183.884 195.016C183.743 196.016 183.443 197.333 182.985 198.974C182.52 200.614 181.926 202.332 181.203 204.131C181.679 204.131 182.191 204.149 182.732 204.178C183.273 204.207 183.832 204.272 184.39 204.36C184.949 204.449 185.49 204.572 186.007 204.725C186.525 204.878 186.966 205.078 187.331 205.325C187.583 205.478 187.666 205.642 187.583 205.807C187.501 205.972 187.372 206.054 187.207 206.054C187.036 206.054 186.913 205.978 186.831 205.819C186.772 205.731 186.613 205.619 186.348 205.484C186.084 205.348 185.725 205.219 185.278 205.084C184.831 204.948 184.325 204.837 183.767 204.748C183.208 204.66 182.608 204.613 181.961 204.613H181.709L181.244 204.649H180.991C180.403 206.025 179.75 207.365 179.039 208.671C178.327 209.976 177.539 211.135 176.687 212.146C175.834 213.158 174.916 213.969 173.94 214.593C172.958 215.21 171.941 215.522 170.876 215.522C169.953 215.522 169.153 215.316 168.483 214.904C167.813 214.493 167.46 213.846 167.436 212.958C167.407 211.94 167.66 210.958 168.189 210.018C168.718 209.077 169.477 208.224 170.453 207.459C171.429 206.695 172.605 206.036 173.976 205.484C175.346 204.931 176.857 204.543 178.51 204.319C178.904 203.408 179.25 202.537 179.556 201.691C179.862 200.85 180.144 200.062 180.397 199.332C180.65 198.603 180.862 197.956 181.026 197.404C181.197 196.851 181.32 196.427 181.403 196.139C181.344 196.227 181.026 196.521 180.438 197.021C179.85 197.521 179.103 198.115 178.192 198.803C177.28 199.491 176.269 200.22 175.152 200.997C174.034 201.773 172.894 202.49 171.729 203.143C170.571 203.796 169.442 204.343 168.348 204.772C167.254 205.207 166.29 205.419 165.455 205.419C164.584 205.419 163.861 205.301 163.273 205.072C162.685 204.837 162.214 204.531 161.867 204.143C161.514 203.755 161.267 203.314 161.115 202.814C160.962 202.314 160.885 201.802 160.885 201.267C160.885 200.026 161.144 198.733 161.661 197.392C162.179 196.051 162.902 194.74 163.826 193.452C164.749 192.164 165.831 190.952 167.078 189.812C168.324 188.671 169.659 187.665 171.088 186.801C172.517 185.936 174.017 185.248 175.599 184.737C177.181 184.225 178.751 183.972 180.321 183.972C181.467 183.972 182.355 184.16 182.985 184.537C183.614 184.913 184.084 185.354 184.39 185.848C184.696 186.348 184.884 186.824 184.955 187.277C185.025 187.73 185.061 188.047 185.061 188.224C185.061 188.471 184.996 188.859 184.872 189.406C184.749 189.947 184.572 190.494 184.349 191.035C184.126 191.576 183.849 192.058 183.532 192.481C183.208 192.905 182.838 193.111 182.42 193.111C182.085 193.111 181.844 192.981 181.709 192.728C181.567 192.476 181.709 192.234 182.126 192.011C182.573 191.77 183.008 191.288 183.426 190.564C183.843 189.847 184.084 189.053 184.137 188.189C184.167 187.789 184.102 187.395 183.949 187.007C183.796 186.618 183.579 186.271 183.296 185.96C183.014 185.648 182.667 185.395 182.25 185.195C181.832 184.995 181.368 184.895 180.862 184.895C179.686 184.895 178.421 185.131 177.063 185.595C175.704 186.06 174.364 186.695 173.035 187.489C171.706 188.289 170.424 189.229 169.195 190.317C167.966 191.405 166.878 192.564 165.943 193.793C165.008 195.022 164.255 196.304 163.696 197.633C163.138 198.962 162.855 200.285 162.855 201.591C162.855 202.432 163.067 203.161 163.484 203.766C163.902 204.372 164.378 204.684 164.913 204.684C165.725 204.684 166.672 204.472 167.748 204.055C168.824 203.631 169.941 203.096 171.106 202.443C172.264 201.791 173.429 201.055 174.587 200.25C175.746 199.438 176.804 198.638 177.757 197.839C178.709 197.039 179.515 196.298 180.168 195.61C180.827 194.922 181.238 194.381 181.409 193.981C181.462 193.893 181.579 193.846 181.744 193.846C182.444 193.822 182.991 193.934 183.379 194.181C183.773 194.428 183.943 194.704 183.884 195.016ZM178.263 204.925C176.639 205.213 175.222 205.654 174.005 206.254C172.788 206.854 171.764 207.524 170.941 208.265C170.118 209.006 169.5 209.788 169.095 210.611C168.689 211.429 168.489 212.193 168.489 212.905C168.489 213.481 168.671 213.94 169.036 214.287C169.4 214.628 169.877 214.804 170.465 214.804C171.165 214.804 171.864 214.522 172.564 213.958C173.264 213.393 173.952 212.646 174.622 211.711C175.293 210.782 175.94 209.723 176.551 208.536C177.157 207.348 177.727 206.142 178.263 204.925Z" fill="white"/>
<path d="M186.237 203.561C185.649 203.561 185.19 203.419 184.849 203.125C184.514 202.837 184.373 202.449 184.431 201.961C184.461 201.626 184.567 201.285 184.749 200.932C184.931 200.579 185.155 200.256 185.419 199.967C185.684 199.679 185.984 199.438 186.319 199.25C186.654 199.062 186.99 198.968 187.325 198.968C187.607 198.968 187.83 199.032 187.995 199.168C188.077 198.991 188.33 198.903 188.748 198.903C189.254 198.903 189.63 199.05 189.883 199.35C190.136 199.65 190.218 200.044 190.136 200.532C190.136 200.62 190.124 200.697 190.095 200.767C190.065 200.832 190.036 200.914 190.012 201.002C190.347 201.226 190.783 201.338 191.312 201.338C191.982 201.338 192.564 201.261 193.052 201.102C193.541 200.95 193.97 200.767 194.334 200.556C194.699 200.344 194.993 200.126 195.217 199.909C195.44 199.685 195.622 199.509 195.763 199.379C195.875 199.268 195.987 199.268 196.099 199.379C196.21 199.491 196.222 199.603 196.14 199.715C196.081 199.779 195.952 199.932 195.74 200.162C195.528 200.397 195.222 200.632 194.817 200.879C194.411 201.126 193.923 201.344 193.347 201.543C192.77 201.743 192.082 201.843 191.271 201.843C190.741 201.843 190.224 201.755 189.718 201.579C189.412 202.108 188.948 202.578 188.33 202.978C187.719 203.361 187.019 203.561 186.237 203.561ZM188.836 201.038C188.53 200.797 188.295 200.538 188.142 200.273C187.989 200.009 187.895 199.785 187.872 199.609C187.425 199.856 187.037 200.167 186.719 200.556C186.396 200.944 186.16 201.32 186.007 201.685C185.855 202.049 185.813 202.367 185.884 202.631C185.955 202.896 186.131 203.031 186.407 203.031C186.631 203.031 187.001 202.902 187.519 202.649C188.036 202.396 188.471 201.855 188.836 201.038ZM189.089 199.973C189.118 199.773 189.101 199.673 189.048 199.673C189.018 199.673 189.036 199.773 189.089 199.973Z" fill="white"/>
<path d="M218.763 195.016C218.621 196.016 218.322 197.333 217.863 198.974C217.404 200.614 216.804 202.332 216.081 204.131C216.557 204.131 217.069 204.149 217.61 204.178C218.157 204.213 218.71 204.272 219.268 204.36C219.827 204.449 220.368 204.572 220.885 204.725C221.403 204.878 221.844 205.078 222.209 205.325C222.461 205.478 222.544 205.642 222.461 205.807C222.379 205.972 222.25 206.054 222.085 206.054C221.92 206.054 221.791 205.978 221.709 205.819C221.65 205.731 221.491 205.619 221.227 205.484C220.962 205.348 220.603 205.219 220.156 205.084C219.709 204.948 219.204 204.837 218.645 204.748C218.086 204.66 217.486 204.613 216.84 204.613H216.587L216.122 204.649H215.869C215.281 206.025 214.628 207.365 213.917 208.671C213.205 209.976 212.417 211.135 211.565 212.146C210.712 213.158 209.795 213.969 208.818 214.593C207.836 215.21 206.819 215.522 205.755 215.522C204.831 215.522 204.032 215.316 203.361 214.904C202.691 214.493 202.338 213.846 202.314 212.958C202.285 211.94 202.538 210.958 203.067 210.018C203.596 209.077 204.355 208.224 205.331 207.459C206.307 206.695 207.483 206.036 208.854 205.484C210.224 204.931 211.735 204.543 213.388 204.319C213.782 203.408 214.129 202.537 214.434 201.691C214.74 200.85 215.022 200.062 215.275 199.332C215.528 198.603 215.74 197.956 215.905 197.404C216.075 196.851 216.199 196.427 216.281 196.139C216.222 196.227 215.905 196.521 215.317 197.021C214.728 197.521 213.982 198.115 213.07 198.803C212.159 199.491 211.147 200.22 210.03 200.997C208.912 201.773 207.772 202.49 206.607 203.143C205.449 203.796 204.32 204.343 203.226 204.772C202.132 205.207 201.168 205.419 200.333 205.419C199.462 205.419 198.739 205.301 198.151 205.072C197.563 204.837 197.092 204.531 196.745 204.143C196.393 203.755 196.146 203.314 195.993 202.814C195.84 202.314 195.763 201.802 195.763 201.267C195.763 200.026 196.022 198.733 196.54 197.392C197.057 196.051 197.78 194.74 198.704 193.452C199.627 192.164 200.709 190.952 201.956 189.812C203.202 188.671 204.537 187.665 205.966 186.801C207.395 185.936 208.895 185.248 210.477 184.737C212.059 184.225 213.629 183.972 215.199 183.972C216.346 183.972 217.234 184.16 217.863 184.537C218.492 184.913 218.962 185.354 219.268 185.848C219.574 186.348 219.762 186.824 219.833 187.277C219.903 187.73 219.939 188.047 219.939 188.224C219.939 188.471 219.874 188.859 219.751 189.406C219.627 189.947 219.451 190.494 219.227 191.035C219.004 191.576 218.727 192.058 218.41 192.481C218.086 192.905 217.716 193.111 217.298 193.111C216.963 193.111 216.722 192.981 216.587 192.728C216.446 192.476 216.587 192.234 217.004 192.011C217.451 191.77 217.886 191.288 218.304 190.564C218.721 189.847 218.962 189.053 219.015 188.189C219.045 187.789 218.98 187.395 218.827 187.007C218.674 186.618 218.457 186.271 218.174 185.96C217.892 185.648 217.545 185.395 217.128 185.195C216.71 184.995 216.246 184.895 215.74 184.895C214.564 184.895 213.299 185.131 211.941 185.595C210.583 186.06 209.242 186.695 207.913 187.489C206.584 188.289 205.302 189.229 204.073 190.317C202.844 191.405 201.756 192.564 200.821 193.793C199.886 195.022 199.133 196.304 198.574 197.633C198.016 198.962 197.733 200.285 197.733 201.591C197.733 202.432 197.945 203.161 198.363 203.766C198.78 204.372 199.256 204.684 199.792 204.684C200.603 204.684 201.55 204.472 202.626 204.055C203.702 203.631 204.82 203.096 205.984 202.443C207.142 201.791 208.307 201.055 209.465 200.25C210.624 199.438 211.682 198.638 212.635 197.839C213.588 197.039 214.393 196.298 215.046 195.61C215.705 194.922 216.116 194.381 216.287 193.981C216.34 193.893 216.457 193.846 216.622 193.846C217.322 193.822 217.869 193.934 218.257 194.181C218.651 194.428 218.815 194.704 218.763 195.016ZM213.135 204.925C211.512 205.213 210.094 205.654 208.877 206.254C207.66 206.854 206.637 207.524 205.813 208.265C204.99 209.006 204.373 209.788 203.967 210.611C203.561 211.429 203.361 212.193 203.361 212.905C203.361 213.481 203.543 213.94 203.908 214.287C204.273 214.628 204.749 214.804 205.337 214.804C206.037 214.804 206.737 214.522 207.436 213.958C208.136 213.393 208.824 212.646 209.495 211.711C210.165 210.782 210.812 209.723 211.424 208.536C212.029 207.348 212.606 206.142 213.135 204.925Z" fill="white"/>
<path d="M229.548 200.003C229.489 200.05 229.336 200.185 229.083 200.42C228.83 200.656 228.524 200.92 228.16 201.22C227.795 201.52 227.384 201.843 226.919 202.185C226.46 202.526 225.996 202.849 225.531 203.149C225.067 203.449 224.62 203.69 224.19 203.878C223.755 204.066 223.373 204.16 223.038 204.16C222.591 204.16 222.226 204.084 221.944 203.925C221.662 203.772 221.527 203.514 221.527 203.161C221.527 202.873 221.597 202.579 221.738 202.279C221.879 201.979 222.032 201.691 222.203 201.414C222.373 201.138 222.532 200.885 222.685 200.667C222.838 200.444 222.932 200.279 222.955 200.167C222.955 200.12 222.814 200.109 222.538 200.12C222.256 200.132 221.909 200.138 221.491 200.138C220.68 200.138 220.274 199.815 220.274 199.174C220.274 198.885 220.386 198.574 220.609 198.244C220.833 197.909 221.138 197.745 221.532 197.745C221.756 197.745 221.979 197.792 222.203 197.88C222.426 197.968 222.538 198.103 222.538 198.28C222.538 198.527 222.438 198.75 222.244 198.962C222.05 199.174 221.868 199.368 221.697 199.544L223.167 199.509C223.561 199.485 223.896 199.562 224.173 199.744C224.455 199.92 224.52 200.156 224.384 200.444C224.326 200.597 224.243 200.779 224.132 200.973C224.02 201.173 223.908 201.367 223.796 201.555C223.685 201.743 223.579 201.914 223.479 202.073C223.379 202.226 223.302 202.337 223.25 202.408C223.026 202.784 222.92 203.078 222.932 203.29C222.944 203.502 223.067 203.608 223.291 203.608C223.626 203.608 224.073 203.443 224.631 203.108C225.19 202.773 225.766 202.39 226.355 201.943C226.943 201.502 227.489 201.061 227.989 200.632C228.495 200.197 228.854 199.885 229.083 199.685C229.136 199.621 229.26 199.632 229.442 199.721C229.624 199.791 229.659 199.891 229.548 200.003Z" fill="white"/>
<path d="M229.754 201.567C229.724 201.702 229.712 201.855 229.712 202.032C229.712 202.208 229.742 202.373 229.795 202.531C229.848 202.684 229.953 202.82 230.112 202.931C230.265 203.043 230.483 203.096 230.765 203.096C231.183 203.096 231.665 202.996 232.212 202.796C232.759 202.596 233.305 202.343 233.846 202.032C234.393 201.72 234.911 201.373 235.399 200.985C235.887 200.597 236.299 200.214 236.64 199.838C236.752 199.726 236.875 199.709 237.016 199.791C237.157 199.867 237.187 199.962 237.098 200.073C237.069 200.138 236.851 200.361 236.446 200.738C236.04 201.114 235.534 201.508 234.934 201.92C234.335 202.331 233.658 202.708 232.917 203.049C232.176 203.39 231.441 203.566 230.712 203.566C229.93 203.566 229.307 203.408 228.842 203.084C228.377 202.761 228.148 202.337 228.148 201.802C228.148 201.402 228.254 201.008 228.466 200.62C228.677 200.232 228.948 199.897 229.283 199.609C229.618 199.321 230.001 199.085 230.436 198.909C230.871 198.732 231.324 198.644 231.8 198.644C232.218 198.644 232.576 198.727 232.87 198.891C233.164 199.056 233.311 199.338 233.311 199.738C233.311 199.938 233.241 200.15 233.1 200.367C232.958 200.591 232.764 200.797 232.512 200.985C232.259 201.173 231.953 201.332 231.588 201.467C231.224 201.602 230.806 201.667 230.33 201.667C230.218 201.667 230.112 201.655 230.012 201.632C229.93 201.614 229.842 201.59 229.754 201.567ZM229.883 201.238C229.936 201.261 230.036 201.273 230.177 201.273C230.43 201.273 230.689 201.226 230.953 201.126C231.218 201.026 231.471 200.891 231.706 200.708C231.941 200.532 232.129 200.326 232.27 200.091C232.412 199.856 232.482 199.62 232.482 199.373C232.482 199.262 232.412 199.209 232.27 199.209C232.188 199.209 232.047 199.232 231.853 199.274C231.659 199.321 231.447 199.409 231.224 199.538C231 199.673 230.771 199.873 230.53 200.138C230.295 200.403 230.077 200.767 229.883 201.238Z" fill="white"/>
<path d="M237.475 201.567C237.445 201.702 237.434 201.855 237.434 202.032C237.434 202.208 237.463 202.373 237.516 202.531C237.569 202.684 237.675 202.82 237.834 202.931C237.986 203.043 238.204 203.096 238.486 203.096C238.904 203.096 239.386 202.996 239.933 202.796C240.48 202.596 241.027 202.343 241.568 202.032C242.115 201.72 242.632 201.373 243.12 200.985C243.608 200.597 244.02 200.214 244.361 199.838C244.473 199.726 244.596 199.709 244.737 199.791C244.879 199.867 244.908 199.962 244.82 200.073C244.79 200.138 244.573 200.361 244.167 200.738C243.761 201.114 243.255 201.508 242.656 201.92C242.056 202.331 241.38 202.708 240.639 203.049C239.898 203.39 239.163 203.566 238.433 203.566C237.651 203.566 237.028 203.408 236.563 203.084C236.099 202.761 235.869 202.337 235.869 201.802C235.869 201.402 235.975 201.008 236.187 200.62C236.399 200.232 236.669 199.897 237.004 199.609C237.34 199.321 237.722 199.085 238.157 198.909C238.592 198.732 239.045 198.644 239.521 198.644C239.939 198.644 240.298 198.727 240.592 198.891C240.886 199.056 241.033 199.338 241.033 199.738C241.033 199.938 240.962 200.15 240.821 200.367C240.68 200.591 240.486 200.797 240.233 200.985C239.98 201.173 239.674 201.332 239.31 201.467C238.945 201.602 238.527 201.667 238.051 201.667C237.939 201.667 237.834 201.655 237.734 201.632C237.651 201.614 237.563 201.59 237.475 201.567ZM237.604 201.238C237.657 201.261 237.757 201.273 237.898 201.273C238.151 201.273 238.41 201.226 238.674 201.126C238.939 201.026 239.192 200.891 239.427 200.708C239.662 200.532 239.851 200.326 239.992 200.091C240.133 199.856 240.203 199.62 240.203 199.373C240.203 199.262 240.133 199.209 239.992 199.209C239.909 199.209 239.768 199.232 239.574 199.274C239.38 199.321 239.168 199.409 238.945 199.538C238.721 199.673 238.492 199.873 238.251 200.138C238.016 200.403 237.798 200.767 237.604 201.238Z" fill="white"/>
<path d="M246.919 199.274C246.749 199.45 246.554 199.709 246.331 200.056C246.108 200.397 245.902 200.756 245.725 201.12C245.543 201.485 245.39 201.826 245.261 202.132C245.137 202.443 245.073 202.661 245.073 202.796C245.408 202.573 245.884 202.214 246.502 201.714C247.119 201.214 247.772 200.709 248.472 200.185C249.171 199.662 249.848 199.203 250.506 198.803C251.165 198.403 251.7 198.203 252.123 198.203C252.206 198.203 252.317 198.209 252.459 198.221C252.6 198.233 252.747 198.268 252.9 198.321C253.053 198.374 253.17 198.456 253.258 198.556C253.347 198.656 253.358 198.797 253.3 198.974C253.27 199.127 253.153 199.385 252.941 199.738C252.729 200.091 252.5 200.467 252.247 200.867C251.994 201.267 251.771 201.655 251.577 202.032C251.382 202.408 251.253 202.684 251.2 202.861C251.141 203.014 251.112 203.202 251.094 203.425C251.083 203.649 251.171 203.761 251.365 203.761C251.671 203.761 252.118 203.561 252.706 203.161C253.294 202.761 253.882 202.314 254.47 201.814C255.058 201.314 255.581 200.856 256.046 200.432C256.51 200.009 256.751 199.768 256.781 199.703C256.863 199.591 256.993 199.591 257.157 199.703C257.328 199.815 257.369 199.903 257.281 199.968C257.057 200.232 256.693 200.603 256.187 201.079C255.681 201.555 255.14 202.032 254.552 202.508C253.964 202.984 253.382 203.402 252.811 203.755C252.235 204.108 251.753 204.284 251.365 204.284C250.836 204.284 250.406 204.172 250.083 203.949C249.759 203.725 249.612 203.449 249.642 203.12C249.671 202.679 249.801 202.208 250.042 201.72C250.277 201.232 250.524 200.779 250.777 200.356C251.03 199.932 251.259 199.585 251.471 199.309C251.682 199.033 251.788 198.874 251.788 198.827C251.453 198.85 251.018 199.027 250.489 199.356C249.959 199.691 249.383 200.085 248.766 200.556C248.148 201.02 247.542 201.491 246.943 201.967C246.343 202.443 245.802 202.849 245.325 203.178C245.102 203.314 244.89 203.378 244.696 203.378C244.39 203.378 244.102 203.272 243.838 203.061C243.573 202.849 243.455 202.614 243.479 202.343C243.508 202.079 243.626 201.732 243.838 201.314C244.049 200.891 244.285 200.485 244.549 200.085C244.814 199.685 245.078 199.344 245.349 199.056C245.614 198.768 245.819 198.621 245.955 198.621C246.349 198.621 246.625 198.697 246.796 198.856C246.96 199.027 247.001 199.162 246.919 199.274Z" fill="white"/>
<path d="M147.989 221.744C147.989 221.873 147.995 221.979 148.007 222.067C148.019 222.155 148.042 222.202 148.083 222.202C148.124 222.22 148.142 222.249 148.142 222.285C148.142 222.326 148.089 222.343 147.989 222.343C147.948 222.343 147.86 222.302 147.713 222.22C147.572 222.138 147.501 221.961 147.501 221.691C147.501 221.544 147.56 221.326 147.683 221.038C147.807 220.75 148.036 220.456 148.371 220.156C148.707 219.856 149.165 219.597 149.759 219.374C150.347 219.15 151.112 219.038 152.041 219.038C152.711 219.038 153.393 219.056 154.081 219.097C154.77 219.138 155.469 219.191 156.181 219.256L156.487 218.65C156.587 218.556 156.728 218.503 156.916 218.503C157.139 218.503 157.339 218.55 157.528 218.65C157.71 218.744 157.769 218.844 157.71 218.938C157.692 218.974 157.669 219.009 157.651 219.062C157.633 219.097 157.61 219.138 157.592 219.197C157.575 219.256 157.539 219.321 157.498 219.403C158.798 219.532 160.068 219.656 161.303 219.779C162.544 219.903 163.72 219.926 164.837 219.862C165.366 219.832 165.89 219.779 166.419 219.715C166.948 219.65 167.419 219.556 167.836 219.438C168.254 219.315 168.595 219.168 168.854 218.98C169.118 218.797 169.248 218.574 169.248 218.315C169.248 218.233 169.23 218.18 169.189 218.156C169.148 218.133 169.107 218.103 169.065 218.074C169.024 218.045 169.007 218.003 169.018 217.951C169.03 217.903 169.071 217.892 169.154 217.927C169.212 217.945 169.318 217.998 169.459 218.086C169.6 218.174 169.671 218.321 169.671 218.533C169.671 218.627 169.612 218.786 169.506 219.003C169.395 219.221 169.159 219.438 168.807 219.656C168.454 219.874 167.948 220.068 167.301 220.25C166.648 220.426 165.79 220.532 164.714 220.562C163.655 220.597 162.467 220.562 161.138 220.467C159.809 220.373 158.486 220.268 157.163 220.156C156.898 220.72 156.551 221.473 156.11 222.414C155.675 223.355 155.199 224.36 154.693 225.431C154.187 226.501 153.676 227.583 153.152 228.677C152.635 229.771 152.17 230.77 151.753 231.67C151.335 232.57 150.988 233.311 150.7 233.893C150.418 234.469 150.265 234.787 150.241 234.834C150.183 234.963 150.006 235.028 149.724 235.028C149.559 235.028 149.406 234.999 149.265 234.946C149.124 234.887 149.059 234.81 149.083 234.716C149.142 234.493 149.312 234.046 149.583 233.387C149.853 232.729 150.2 231.946 150.618 231.047C151.035 230.147 151.488 229.171 151.97 228.13C152.458 227.083 152.941 226.054 153.417 225.043C153.893 224.031 154.346 223.084 154.77 222.208C155.193 221.332 155.54 220.614 155.805 220.05C154.505 219.938 153.346 219.868 152.335 219.832C151.947 219.832 151.5 219.862 150.994 219.915C150.488 219.973 150.012 220.073 149.565 220.226C149.118 220.379 148.742 220.579 148.436 220.832C148.142 221.061 147.989 221.373 147.989 221.744Z" fill="white"/>
<path d="M156.21 231.923C156.193 232.017 156.181 232.135 156.181 232.258C156.181 232.388 156.199 232.505 156.24 232.623C156.281 232.735 156.357 232.835 156.469 232.911C156.581 232.993 156.74 233.035 156.939 233.035C157.245 233.035 157.592 232.964 157.992 232.817C158.392 232.67 158.786 232.488 159.18 232.264C159.574 232.041 159.95 231.788 160.309 231.506C160.662 231.223 160.962 230.947 161.209 230.671C161.291 230.588 161.379 230.576 161.485 230.635C161.585 230.694 161.609 230.759 161.544 230.841C161.526 230.888 161.368 231.053 161.074 231.323C160.78 231.6 160.415 231.882 159.98 232.182C159.545 232.482 159.056 232.752 158.515 233.005C157.974 233.252 157.445 233.382 156.916 233.382C156.346 233.382 155.899 233.264 155.563 233.035C155.228 232.799 155.064 232.494 155.064 232.105C155.064 231.817 155.14 231.529 155.293 231.247C155.446 230.965 155.646 230.718 155.887 230.512C156.128 230.3 156.41 230.135 156.722 230.006C157.034 229.877 157.369 229.812 157.71 229.812C158.016 229.812 158.274 229.871 158.486 229.994C158.698 230.118 158.804 230.318 158.804 230.612C158.804 230.759 158.751 230.912 158.651 231.07C158.551 231.229 158.41 231.382 158.221 231.517C158.039 231.653 157.816 231.77 157.551 231.864C157.286 231.958 156.981 232.011 156.64 232.011C156.557 232.011 156.481 232.005 156.41 231.988C156.34 231.958 156.275 231.941 156.21 231.923ZM156.304 231.682C156.346 231.7 156.416 231.706 156.516 231.706C156.698 231.706 156.887 231.67 157.081 231.6C157.275 231.529 157.457 231.429 157.627 231.3C157.798 231.17 157.939 231.023 158.039 230.853C158.139 230.682 158.192 230.512 158.192 230.335C158.192 230.253 158.139 230.212 158.039 230.212C157.98 230.212 157.874 230.23 157.733 230.259C157.592 230.294 157.439 230.353 157.275 230.453C157.11 230.547 156.945 230.694 156.775 230.888C156.604 231.082 156.445 231.347 156.304 231.682Z" fill="white"/>
<path d="M164.431 230.865C164.373 231.023 164.261 231.106 164.096 231.106C163.914 231.106 163.82 231.041 163.82 230.912C163.82 230.829 163.843 230.776 163.896 230.741C163.949 230.712 163.99 230.635 164.032 230.523C164.09 230.282 163.973 230.159 163.667 230.159C163.302 230.159 162.973 230.306 162.679 230.606C162.385 230.906 162.179 231.235 162.056 231.594C161.932 231.958 161.926 232.288 162.026 232.593C162.126 232.899 162.403 233.052 162.85 233.052C163.155 233.052 163.491 232.976 163.855 232.823C164.22 232.67 164.584 232.476 164.949 232.229C165.314 231.988 165.672 231.717 166.013 231.423C166.36 231.123 166.654 230.841 166.895 230.565C166.954 230.482 167.037 230.471 167.137 230.529C167.237 230.588 167.266 230.653 167.231 230.735C167.213 230.782 167.066 230.953 166.79 231.241C166.513 231.529 166.166 231.847 165.737 232.182C165.308 232.517 164.82 232.823 164.261 233.099C163.702 233.37 163.108 233.511 162.479 233.511C161.991 233.511 161.615 233.417 161.35 233.234C161.085 233.052 160.915 232.823 160.833 232.546C160.75 232.276 160.756 231.97 160.85 231.641C160.944 231.311 161.091 231.012 161.309 230.735C161.521 230.465 161.791 230.235 162.115 230.047C162.438 229.865 162.797 229.771 163.179 229.771C163.685 229.771 164.043 229.877 164.243 230.094C164.455 230.318 164.514 230.571 164.431 230.865Z" fill="white"/>
<path d="M167.054 233.37C166.731 233.37 166.519 233.305 166.413 233.176C166.313 233.046 166.284 232.905 166.319 232.74C166.643 231.582 167.078 230.418 167.613 229.241C168.148 228.065 168.765 226.93 169.453 225.825C170.141 224.725 170.877 223.69 171.659 222.726C172.441 221.761 173.235 220.92 174.052 220.203C174.864 219.485 175.669 218.927 176.475 218.515C177.275 218.104 178.033 217.898 178.745 217.898C179.374 217.898 179.862 218.045 180.209 218.345C180.556 218.645 180.727 219.009 180.727 219.444C180.727 220.103 180.544 220.785 180.18 221.485C179.815 222.185 179.321 222.879 178.704 223.561C178.086 224.243 177.375 224.902 176.575 225.537C175.775 226.172 174.934 226.766 174.064 227.324C173.194 227.877 172.311 228.377 171.429 228.818C170.547 229.259 169.718 229.624 168.948 229.918C168.724 230.353 168.53 230.782 168.371 231.211C168.207 231.641 168.048 232.058 167.883 232.476C168.207 232.217 168.583 231.917 169.012 231.57C169.436 231.223 169.871 230.9 170.306 230.594C170.741 230.288 171.159 230.029 171.553 229.824C171.947 229.612 172.276 229.512 172.541 229.512C172.6 229.512 172.682 229.518 172.782 229.524C172.882 229.53 172.982 229.559 173.088 229.594C173.188 229.635 173.282 229.688 173.364 229.765C173.446 229.835 173.488 229.935 173.488 230.065C173.488 230.288 173.388 230.6 173.182 230.994C172.976 231.388 172.764 231.776 172.541 232.152C172.317 232.529 172.141 232.858 172.006 233.129C171.876 233.399 171.87 233.54 171.988 233.54C172.211 233.54 172.535 233.393 172.964 233.105C173.393 232.817 173.817 232.488 174.24 232.129C174.67 231.764 175.046 231.435 175.381 231.129C175.716 230.823 175.893 230.647 175.916 230.6C175.975 230.518 176.069 230.518 176.193 230.6C176.316 230.682 176.346 230.747 176.287 230.794C176.122 230.988 175.857 231.259 175.493 231.6C175.128 231.947 174.734 232.294 174.305 232.635C173.882 232.982 173.458 233.281 173.041 233.54C172.623 233.799 172.276 233.928 171.988 233.928C171.176 233.928 170.771 233.705 170.771 233.252C170.771 233.058 170.853 232.811 171.012 232.505C171.176 232.199 171.347 231.888 171.529 231.564C171.712 231.241 171.882 230.935 172.047 230.647C172.211 230.359 172.288 230.129 172.288 229.971C172.047 229.988 171.723 230.118 171.329 230.371C170.935 230.618 170.512 230.917 170.065 231.264C169.618 231.611 169.177 231.97 168.742 232.341C168.307 232.711 167.924 233.017 167.601 233.258C167.56 233.323 167.483 233.358 167.372 233.364C167.26 233.37 167.154 233.37 167.054 233.37ZM179.204 218.65C178.474 218.65 177.663 218.962 176.769 219.58C175.875 220.197 174.975 221.014 174.076 222.026C173.17 223.037 172.3 224.19 171.459 225.478C170.618 226.766 169.859 228.083 169.189 229.436C170.488 228.871 171.788 228.195 173.088 227.395C174.387 226.601 175.552 225.754 176.593 224.86C177.628 223.967 178.463 223.061 179.104 222.132C179.745 221.209 180.062 220.332 180.062 219.515C180.062 219.144 179.974 218.909 179.803 218.803C179.627 218.703 179.427 218.65 179.204 218.65Z" fill="white"/>
<path d="M177.586 230.259C177.463 230.388 177.322 230.576 177.157 230.823C176.992 231.07 176.845 231.329 176.716 231.594C176.587 231.858 176.475 232.105 176.381 232.329C176.287 232.552 176.246 232.717 176.246 232.811C176.487 232.652 176.834 232.388 177.281 232.029C177.728 231.664 178.204 231.3 178.71 230.918C179.215 230.541 179.709 230.206 180.186 229.918C180.662 229.63 181.056 229.483 181.356 229.483C181.415 229.483 181.497 229.489 181.597 229.494C181.697 229.5 181.803 229.53 181.915 229.565C182.026 229.606 182.114 229.659 182.173 229.736C182.232 229.806 182.244 229.906 182.203 230.035C182.185 230.147 182.097 230.335 181.944 230.588C181.791 230.847 181.626 231.117 181.444 231.412C181.262 231.706 181.097 231.982 180.956 232.258C180.815 232.535 180.721 232.735 180.68 232.864C180.638 232.976 180.615 233.111 180.603 233.276C180.591 233.434 180.656 233.517 180.803 233.517C181.027 233.517 181.35 233.37 181.779 233.082C182.203 232.793 182.632 232.464 183.055 232.105C183.479 231.741 183.861 231.412 184.196 231.106C184.531 230.8 184.708 230.624 184.731 230.576C184.79 230.494 184.884 230.494 185.008 230.576C185.131 230.659 185.161 230.723 185.102 230.771C184.937 230.965 184.678 231.235 184.308 231.576C183.943 231.923 183.549 232.27 183.12 232.611C182.691 232.958 182.273 233.258 181.856 233.517C181.438 233.776 181.091 233.905 180.803 233.905C180.415 233.905 180.109 233.823 179.874 233.664C179.639 233.505 179.533 233.299 179.556 233.058C179.574 232.735 179.674 232.399 179.845 232.047C180.015 231.694 180.197 231.364 180.38 231.059C180.562 230.753 180.733 230.5 180.88 230.3C181.032 230.1 181.109 229.983 181.109 229.953C180.868 229.971 180.55 230.1 180.162 230.341C179.774 230.582 179.362 230.871 178.915 231.212C178.468 231.547 178.027 231.894 177.592 232.235C177.157 232.582 176.763 232.876 176.422 233.117C176.257 233.211 176.104 233.264 175.963 233.264C175.74 233.264 175.534 233.187 175.34 233.035C175.146 232.882 175.064 232.711 175.081 232.517C175.099 232.323 175.187 232.076 175.34 231.77C175.493 231.464 175.663 231.165 175.857 230.876C176.052 230.588 176.246 230.335 176.434 230.13C176.628 229.918 176.775 229.818 176.875 229.818C177.157 229.818 177.363 229.877 177.486 229.988C177.622 230.082 177.651 230.177 177.586 230.259Z" fill="white"/>
<path d="M185.172 233.37C184.749 233.37 184.414 233.264 184.167 233.058C183.926 232.847 183.82 232.57 183.861 232.211C183.879 231.97 183.955 231.723 184.09 231.465C184.22 231.206 184.384 230.976 184.579 230.765C184.773 230.553 184.99 230.383 185.231 230.247C185.472 230.112 185.719 230.041 185.96 230.041C186.16 230.041 186.325 230.088 186.449 230.188C186.507 230.059 186.69 229.994 186.995 229.994C187.36 229.994 187.636 230.1 187.819 230.318C188.001 230.535 188.06 230.824 188.001 231.176C188.001 231.241 187.989 231.3 187.972 231.347C187.954 231.394 187.93 231.453 187.913 231.517C188.154 231.676 188.472 231.759 188.86 231.759C189.348 231.759 189.765 231.7 190.124 231.588C190.477 231.476 190.788 231.341 191.053 231.188C191.318 231.035 191.529 230.876 191.694 230.718C191.859 230.559 191.988 230.43 192.088 230.33C192.17 230.247 192.253 230.247 192.329 230.33C192.412 230.412 192.423 230.488 192.359 230.571C192.317 230.618 192.223 230.729 192.07 230.894C191.918 231.065 191.694 231.235 191.4 231.412C191.106 231.588 190.747 231.747 190.336 231.894C189.918 232.041 189.418 232.111 188.83 232.111C188.442 232.111 188.072 232.047 187.701 231.917C187.478 232.305 187.142 232.641 186.696 232.929C186.249 233.229 185.737 233.37 185.172 233.37ZM187.06 231.541C186.837 231.365 186.666 231.176 186.56 230.988C186.449 230.794 186.384 230.635 186.36 230.506C186.037 230.682 185.755 230.912 185.525 231.194C185.29 231.476 185.12 231.747 185.008 232.017C184.896 232.282 184.867 232.511 184.914 232.705C184.967 232.899 185.09 232.994 185.296 232.994C185.461 232.994 185.725 232.899 186.102 232.717C186.478 232.523 186.796 232.135 187.06 231.541ZM187.242 230.765C187.26 230.618 187.254 230.547 187.213 230.547C187.19 230.547 187.201 230.624 187.242 230.765Z" fill="white"/>
<path d="M193.699 230.306C193.435 231.064 193.294 231.776 193.276 232.452C193.258 232.887 193.347 233.252 193.552 233.552C193.752 233.852 194.07 233.999 194.499 233.999C194.987 233.999 195.546 233.899 196.175 233.699C196.804 233.499 197.439 233.234 198.08 232.917C198.721 232.593 199.345 232.229 199.951 231.817C200.556 231.406 201.086 230.982 201.532 230.553C201.615 230.471 201.709 230.471 201.821 230.553C201.932 230.635 201.95 230.712 201.868 230.794C201.38 231.247 200.827 231.688 200.209 232.123C199.592 232.558 198.945 232.952 198.275 233.305C197.604 233.658 196.934 233.946 196.263 234.164C195.593 234.381 194.964 234.487 194.376 234.487C194.152 234.487 193.893 234.469 193.599 234.428C193.305 234.387 193.023 234.293 192.747 234.152C192.47 234.011 192.235 233.799 192.029 233.523C191.829 233.252 191.724 232.887 191.724 232.435C191.706 231.582 191.912 230.623 192.347 229.553C192.782 228.483 193.37 227.395 194.111 226.295C194.852 225.196 195.699 224.114 196.651 223.061C197.604 222.008 198.598 221.073 199.621 220.262C200.644 219.45 201.674 218.792 202.697 218.298C203.72 217.798 204.661 217.551 205.514 217.551C206.102 217.551 206.572 217.674 206.931 217.927C207.284 218.174 207.466 218.545 207.466 219.027C207.466 219.703 207.107 220.497 206.384 221.403C205.661 222.314 204.679 223.267 203.432 224.261C202.185 225.26 200.721 226.278 199.045 227.324C197.369 228.359 195.587 229.359 193.699 230.306ZM193.911 229.706C195.758 228.759 197.469 227.795 199.045 226.813C200.615 225.831 201.985 224.872 203.138 223.931C204.296 222.99 205.202 222.097 205.861 221.256C206.519 220.409 206.849 219.668 206.849 219.021C206.849 218.78 206.79 218.58 206.666 218.427C206.543 218.274 206.36 218.198 206.119 218.198C205.696 218.18 205.143 218.327 204.473 218.633C203.802 218.939 203.079 219.368 202.297 219.909C201.515 220.456 200.709 221.097 199.874 221.838C199.039 222.579 198.245 223.378 197.481 224.237C196.722 225.096 196.022 225.995 195.393 226.93C194.776 227.865 194.276 228.789 193.911 229.706Z" fill="white"/>
<path d="M202.103 233.37C201.679 233.37 201.344 233.264 201.097 233.058C200.856 232.847 200.75 232.57 200.791 232.211C200.809 231.97 200.885 231.723 201.021 231.465C201.15 231.206 201.315 230.976 201.509 230.765C201.703 230.553 201.92 230.383 202.162 230.247C202.403 230.112 202.65 230.041 202.891 230.041C203.091 230.041 203.255 230.088 203.379 230.188C203.438 230.059 203.62 229.994 203.926 229.994C204.29 229.994 204.567 230.1 204.749 230.318C204.931 230.535 204.99 230.824 204.931 231.176C204.931 231.241 204.92 231.3 204.902 231.347C204.884 231.394 204.861 231.453 204.843 231.517C205.084 231.676 205.402 231.759 205.79 231.759C206.278 231.759 206.696 231.7 207.054 231.588C207.407 231.476 207.719 231.341 207.983 231.188C208.248 231.035 208.46 230.876 208.624 230.718C208.789 230.559 208.918 230.43 209.018 230.33C209.101 230.247 209.183 230.247 209.26 230.33C209.342 230.412 209.354 230.488 209.289 230.571C209.248 230.618 209.154 230.729 209.001 230.894C208.848 231.065 208.624 231.235 208.33 231.412C208.036 231.588 207.678 231.747 207.266 231.894C206.848 232.041 206.349 232.111 205.761 232.111C205.372 232.111 205.002 232.047 204.631 231.917C204.408 232.305 204.073 232.641 203.626 232.929C203.179 233.229 202.673 233.37 202.103 233.37ZM203.99 231.541C203.767 231.365 203.596 231.176 203.491 230.988C203.379 230.794 203.314 230.635 203.291 230.506C202.967 230.682 202.685 230.912 202.456 231.194C202.22 231.476 202.05 231.747 201.938 232.017C201.826 232.282 201.797 232.511 201.844 232.705C201.897 232.899 202.02 232.994 202.226 232.994C202.391 232.994 202.656 232.899 203.032 232.717C203.408 232.523 203.726 232.135 203.99 231.541ZM204.173 230.765C204.19 230.618 204.185 230.547 204.143 230.547C204.12 230.547 204.132 230.624 204.173 230.765Z" fill="white"/>
<path d="M204.69 238.898C204.731 238.445 204.873 238.016 205.12 237.592C205.361 237.175 205.755 236.751 206.29 236.328C206.831 235.899 207.537 235.463 208.407 235.011C209.277 234.558 210.353 234.076 211.635 233.564C211.694 233.211 211.747 232.858 211.788 232.5C211.829 232.147 211.847 231.782 211.847 231.412C211.682 231.606 211.494 231.812 211.282 232.041C211.071 232.264 210.83 232.47 210.565 232.658C210.3 232.841 210.024 232.994 209.73 233.105C209.436 233.217 209.124 233.264 208.801 233.252C208.395 233.223 208.089 233.111 207.889 232.929C207.689 232.747 207.607 232.5 207.648 232.194C207.689 231.859 207.813 231.541 208.03 231.241C208.242 230.941 208.507 230.682 208.824 230.459C209.136 230.236 209.483 230.059 209.859 229.93C210.236 229.8 210.618 229.747 211 229.759C211.241 229.777 211.459 229.824 211.641 229.906C211.823 229.989 211.965 230.083 212.07 230.194C212.194 230.13 212.323 230.1 212.464 230.1C212.688 230.118 212.847 230.159 212.935 230.236C213.029 230.306 213.07 230.383 213.07 230.465C213.111 230.788 213.123 231.165 213.117 231.6C213.105 232.035 213.058 232.511 212.982 233.023C213.37 232.829 213.764 232.611 214.17 232.358C214.576 232.111 214.952 231.859 215.299 231.6C215.646 231.341 215.958 231.1 216.246 230.865C216.528 230.63 216.746 230.435 216.887 230.271C216.987 230.159 217.093 230.153 217.204 230.259C217.316 230.365 217.334 230.447 217.251 230.512C216.746 231.029 216.11 231.559 215.346 232.117C214.582 232.676 213.776 233.135 212.923 233.505C212.782 234.328 212.564 235.175 212.27 236.051C211.976 236.928 211.582 237.722 211.083 238.439C210.583 239.156 209.989 239.733 209.283 240.162C208.577 240.591 207.754 240.791 206.801 240.738C206.113 240.703 205.578 240.521 205.202 240.186C204.82 239.839 204.649 239.415 204.69 238.898ZM205.39 238.921C205.349 239.292 205.449 239.597 205.678 239.839C205.913 240.08 206.202 240.215 206.549 240.25C207.119 240.28 207.666 240.133 208.195 239.803C208.724 239.474 209.207 239.021 209.642 238.451C210.077 237.88 210.459 237.21 210.783 236.445C211.106 235.681 211.359 234.875 211.541 234.023C210.424 234.487 209.483 234.922 208.707 235.328C207.936 235.728 207.313 236.128 206.837 236.522C206.36 236.916 206.008 237.304 205.784 237.692C205.566 238.08 205.431 238.486 205.39 238.921ZM211.847 230.765C211.847 230.735 211.841 230.706 211.829 230.682C211.818 230.659 211.823 230.63 211.847 230.6C211.806 230.518 211.747 230.441 211.665 230.371C211.582 230.3 211.482 230.253 211.359 230.236C211.135 230.218 210.865 230.283 210.553 230.418C210.236 230.553 209.942 230.735 209.654 230.959C209.371 231.182 209.124 231.429 208.924 231.694C208.719 231.959 208.607 232.223 208.589 232.476C208.589 232.558 208.607 232.641 208.636 232.729C208.666 232.817 208.742 232.87 208.866 232.888C209.271 232.923 209.753 232.729 210.312 232.323C210.865 231.911 211.382 231.394 211.847 230.765Z" fill="white"/>
<path d="M218.21 230.259C218.11 230.371 217.963 230.582 217.769 230.888C217.575 231.194 217.416 231.506 217.281 231.817C217.151 232.129 217.087 232.405 217.098 232.641C217.11 232.876 217.263 232.982 217.569 232.964C217.851 232.946 218.181 232.829 218.557 232.599C218.933 232.376 219.286 232.117 219.621 231.829C219.956 231.541 220.251 231.265 220.503 231.006C220.756 230.747 220.915 230.588 220.974 230.524C221.074 230.441 221.174 230.429 221.28 230.488C221.38 230.547 221.403 230.612 221.338 230.694C221.174 230.853 220.95 231.082 220.668 231.382C220.386 231.682 220.068 231.97 219.721 232.252C219.374 232.535 219.004 232.782 218.61 232.999C218.216 233.217 217.822 233.34 217.44 233.376C217.051 233.405 216.704 233.358 216.387 233.217C216.075 233.082 215.905 232.817 215.887 232.435C215.887 232.223 215.946 231.97 216.052 231.676C216.163 231.376 216.299 231.088 216.463 230.806C216.628 230.524 216.793 230.282 216.963 230.083C217.134 229.883 217.281 229.783 217.404 229.783C217.645 229.753 217.863 229.8 218.045 229.941C218.245 230.071 218.292 230.177 218.21 230.259ZM217.787 229.053C217.787 228.748 217.981 228.595 218.363 228.595C218.751 228.595 218.939 228.748 218.939 229.053C218.939 229.359 218.745 229.512 218.363 229.512C217.981 229.512 217.787 229.359 217.787 229.053Z" fill="white"/>
<path d="M221.38 231.923C221.362 232.017 221.35 232.135 221.35 232.258C221.35 232.388 221.368 232.505 221.409 232.623C221.45 232.735 221.527 232.835 221.638 232.911C221.75 232.993 221.909 233.035 222.109 233.035C222.415 233.035 222.762 232.964 223.161 232.817C223.555 232.67 223.955 232.488 224.349 232.264C224.743 232.041 225.12 231.788 225.478 231.506C225.831 231.223 226.131 230.947 226.378 230.671C226.46 230.588 226.549 230.576 226.655 230.635C226.754 230.694 226.778 230.759 226.713 230.841C226.696 230.888 226.537 231.053 226.243 231.323C225.949 231.6 225.584 231.882 225.149 232.182C224.714 232.482 224.226 232.752 223.685 233.005C223.144 233.252 222.615 233.382 222.085 233.382C221.515 233.382 221.068 233.264 220.733 233.035C220.398 232.799 220.233 232.494 220.233 232.105C220.233 231.817 220.309 231.529 220.462 231.247C220.615 230.965 220.815 230.718 221.056 230.512C221.297 230.3 221.58 230.135 221.891 230.006C222.203 229.877 222.538 229.812 222.879 229.812C223.185 229.812 223.444 229.871 223.655 229.994C223.867 230.118 223.973 230.318 223.973 230.612C223.973 230.759 223.92 230.912 223.82 231.07C223.72 231.229 223.579 231.382 223.391 231.517C223.208 231.653 222.985 231.77 222.72 231.864C222.456 231.958 222.15 232.011 221.809 232.011C221.727 232.011 221.65 232.005 221.58 231.988C221.503 231.958 221.438 231.941 221.38 231.923ZM221.468 231.682C221.509 231.7 221.58 231.706 221.679 231.706C221.862 231.706 222.05 231.67 222.244 231.6C222.438 231.529 222.62 231.429 222.791 231.3C222.961 231.17 223.103 231.023 223.203 230.853C223.303 230.682 223.355 230.512 223.355 230.335C223.355 230.253 223.303 230.212 223.203 230.212C223.144 230.212 223.038 230.23 222.897 230.259C222.756 230.294 222.603 230.353 222.438 230.453C222.273 230.547 222.109 230.694 221.938 230.888C221.768 231.082 221.609 231.347 221.468 231.682Z" fill="white"/>
<path d="M227.348 232.07C227.184 231.735 226.984 231.365 226.737 230.959C226.496 230.559 226.36 230.218 226.343 229.947C226.325 229.594 226.443 229.336 226.707 229.177C226.972 229.018 227.278 228.936 227.619 228.936C227.966 228.936 228.213 229 228.366 229.13C228.519 229.259 228.607 229.412 228.625 229.589C228.625 229.606 228.619 229.653 228.607 229.736C228.595 229.818 228.56 229.906 228.501 230C228.442 230.094 228.342 230.194 228.213 230.288C228.084 230.382 227.895 230.465 227.648 230.529C227.772 230.788 227.901 231.018 228.042 231.229C228.183 231.441 228.307 231.659 228.407 231.882C229.218 231.723 229.836 231.506 230.265 231.241C230.689 230.976 231.024 230.753 231.271 230.576C231.371 230.494 231.471 230.5 231.559 230.588C231.653 230.676 231.647 230.759 231.541 230.841C231.318 231.018 230.971 231.241 230.506 231.506C230.042 231.77 229.377 231.994 228.525 232.17C228.583 232.364 228.619 232.582 228.619 232.823C228.636 233.064 228.595 233.276 228.483 233.464C228.372 233.646 228.219 233.805 228.025 233.934C227.831 234.064 227.619 234.158 227.384 234.222C227.148 234.287 226.913 234.317 226.666 234.317C225.731 234.317 225.284 234.011 225.325 233.399C225.325 233.287 225.349 233.17 225.402 233.052C225.455 232.929 225.549 232.817 225.69 232.699C225.831 232.588 226.037 232.476 226.302 232.376C226.572 232.264 226.919 232.164 227.348 232.07ZM227.501 232.382C226.813 232.541 226.372 232.717 226.178 232.899C225.984 233.082 225.908 233.264 225.949 233.44C225.99 233.764 226.184 233.917 226.525 233.899C226.69 233.881 226.896 233.77 227.148 233.564C227.401 233.352 227.531 233.046 227.531 232.646C227.531 232.535 227.519 232.447 227.501 232.382ZM227.531 230.212C227.96 230.053 228.172 229.859 228.172 229.636C228.172 229.442 228.06 229.347 227.837 229.347C227.737 229.347 227.631 229.383 227.519 229.453C227.407 229.524 227.372 229.665 227.413 229.877C227.454 229.941 227.478 230 227.49 230.059C227.495 230.112 227.507 230.165 227.531 230.212Z" fill="white"/>
<path d="M242.997 219.785C242.956 219.756 242.873 219.744 242.756 219.762C242.738 219.762 242.656 219.797 242.515 219.868C242.373 219.938 242.226 220.056 242.074 220.215C241.921 220.373 241.785 220.591 241.662 220.867C241.538 221.144 241.48 221.485 241.48 221.902C241.48 222.032 241.533 222.232 241.644 222.508C241.756 222.785 241.974 223.049 242.297 223.302C242.944 222.514 243.661 221.767 244.443 221.056C245.226 220.35 246.049 219.727 246.907 219.197C247.772 218.668 248.66 218.251 249.571 217.945C250.483 217.639 251.388 217.486 252.282 217.486C253.117 217.486 253.776 217.627 254.264 217.909C254.752 218.192 254.993 218.645 254.993 219.274C254.993 219.85 254.729 220.45 254.199 221.073C253.67 221.691 252.959 222.261 252.071 222.773C251.177 223.29 250.148 223.708 248.977 224.037C247.807 224.366 246.584 224.531 245.308 224.531C244.62 224.531 243.996 224.461 243.45 224.314C242.72 225.249 242.132 226.207 241.685 227.195C241.238 228.183 241.015 229.147 241.015 230.077C241.015 231.317 241.427 232.276 242.25 232.958C243.073 233.64 244.155 233.981 245.496 233.981C245.925 233.981 246.408 233.922 246.96 233.799C247.513 233.675 248.084 233.476 248.683 233.193C249.283 232.911 249.889 232.529 250.512 232.047C251.13 231.564 251.718 230.959 252.265 230.235C252.347 230.141 252.453 230.124 252.582 230.188C252.712 230.253 252.741 230.335 252.659 230.429C252.618 230.476 252.429 230.712 252.094 231.129C251.759 231.547 251.277 232 250.648 232.482C250.018 232.964 249.254 233.405 248.366 233.799C247.472 234.193 246.455 234.393 245.32 234.393C244.426 234.393 243.614 234.287 242.885 234.069C242.156 233.852 241.533 233.546 241.015 233.152C240.498 232.758 240.098 232.282 239.809 231.717C239.527 231.153 239.38 230.535 239.38 229.859C239.38 228.942 239.615 227.948 240.08 226.877C240.545 225.807 241.174 224.749 241.968 223.702C241.156 223.184 240.75 222.479 240.75 221.579C240.75 221.244 240.815 220.938 240.95 220.662C241.08 220.391 241.238 220.144 241.421 219.938C241.603 219.727 241.809 219.568 242.032 219.456C242.256 219.344 242.462 219.286 242.644 219.286C242.967 219.286 243.132 219.397 243.132 219.621C243.132 219.685 243.114 219.727 243.085 219.756C243.044 219.797 243.02 219.803 242.997 219.785ZM243.791 223.961C243.991 223.996 244.202 224.019 244.414 224.043C244.626 224.067 244.867 224.078 245.131 224.078C246.266 224.078 247.384 223.931 248.483 223.643C249.577 223.355 250.553 222.973 251.406 222.496C252.259 222.02 252.947 221.485 253.476 220.891C254.005 220.297 254.27 219.703 254.27 219.103C254.27 218.78 254.135 218.55 253.858 218.415C253.582 218.28 253.347 218.209 253.141 218.209C252.488 218.192 251.765 218.333 250.965 218.633C250.165 218.933 249.342 219.338 248.501 219.862C247.66 220.385 246.831 220.997 246.019 221.697C245.202 222.408 244.461 223.155 243.791 223.961Z" fill="white"/>
<path d="M252.529 233.37C252.1 233.37 251.771 233.264 251.524 233.058C251.283 232.847 251.177 232.57 251.218 232.211C251.236 231.97 251.312 231.723 251.447 231.465C251.577 231.206 251.741 230.976 251.935 230.765C252.129 230.553 252.347 230.383 252.588 230.247C252.829 230.112 253.076 230.041 253.317 230.041C253.517 230.041 253.682 230.088 253.805 230.188C253.864 230.059 254.047 229.994 254.352 229.994C254.717 229.994 254.993 230.1 255.176 230.318C255.358 230.535 255.417 230.824 255.358 231.176C255.358 231.241 255.346 231.3 255.329 231.347C255.311 231.394 255.287 231.453 255.27 231.517C255.511 231.676 255.828 231.759 256.217 231.759C256.705 231.759 257.122 231.7 257.481 231.588C257.834 231.476 258.145 231.341 258.41 231.188C258.675 231.035 258.886 230.876 259.051 230.718C259.216 230.559 259.345 230.43 259.445 230.33C259.527 230.247 259.61 230.247 259.686 230.33C259.768 230.412 259.78 230.488 259.715 230.571C259.674 230.618 259.58 230.729 259.427 230.894C259.274 231.065 259.051 231.235 258.757 231.412C258.463 231.588 258.104 231.747 257.693 231.894C257.275 232.041 256.775 232.111 256.187 232.111C255.799 232.111 255.429 232.047 255.058 231.917C254.835 232.305 254.499 232.641 254.052 232.929C253.606 233.229 253.1 233.37 252.529 233.37ZM254.417 231.541C254.194 231.365 254.023 231.176 253.917 230.988C253.805 230.794 253.741 230.635 253.717 230.506C253.394 230.682 253.112 230.912 252.882 231.194C252.647 231.476 252.476 231.747 252.365 232.017C252.253 232.282 252.224 232.511 252.271 232.705C252.324 232.899 252.447 232.994 252.653 232.994C252.817 232.994 253.082 232.899 253.458 232.717C253.835 232.523 254.152 232.135 254.417 231.541ZM254.599 230.765C254.617 230.618 254.611 230.547 254.57 230.547C254.552 230.547 254.558 230.624 254.599 230.765Z" fill="white"/>
<path d="M265.896 230.788C265.855 230.823 265.743 230.923 265.561 231.088C265.379 231.253 265.155 231.453 264.89 231.664C264.626 231.882 264.326 232.117 263.991 232.364C263.656 232.611 263.32 232.846 262.985 233.064C262.65 233.282 262.326 233.458 262.009 233.593C261.691 233.729 261.415 233.799 261.174 233.799C260.85 233.799 260.586 233.74 260.38 233.629C260.174 233.517 260.074 233.329 260.074 233.076C260.074 232.864 260.127 232.652 260.227 232.435C260.327 232.217 260.439 232.011 260.562 231.806C260.686 231.606 260.803 231.423 260.915 231.265C261.027 231.106 261.092 230.982 261.115 230.9C261.115 230.871 261.015 230.853 260.809 230.865C260.603 230.871 260.351 230.876 260.051 230.876C259.463 230.876 259.169 230.641 259.169 230.177C259.169 229.965 259.251 229.741 259.41 229.5C259.574 229.259 259.798 229.136 260.08 229.136C260.245 229.136 260.404 229.171 260.568 229.23C260.733 229.295 260.809 229.389 260.809 229.518C260.809 229.694 260.739 229.859 260.598 230.012C260.456 230.165 260.321 230.306 260.204 230.435L261.268 230.412C261.55 230.394 261.797 230.453 261.997 230.582C262.197 230.712 262.25 230.882 262.15 231.088C262.109 231.2 262.05 231.329 261.968 231.476C261.885 231.623 261.803 231.764 261.727 231.9C261.644 232.035 261.568 232.158 261.497 232.276C261.427 232.388 261.368 232.47 261.333 232.517C261.168 232.794 261.092 233.005 261.103 233.158C261.115 233.311 261.197 233.387 261.362 233.387C261.603 233.387 261.932 233.264 262.338 233.023C262.744 232.782 263.162 232.499 263.585 232.176C264.014 231.853 264.408 231.535 264.773 231.223C265.137 230.912 265.402 230.682 265.567 230.535C265.608 230.488 265.696 230.494 265.825 230.559C265.955 230.635 265.978 230.712 265.896 230.788Z" fill="white"/>
<path d="M267.39 230.282C267.39 230.3 267.354 230.388 267.284 230.547C267.213 230.706 267.119 230.935 266.996 231.223C267.625 230.77 268.237 230.418 268.825 230.159C269.413 229.9 269.96 229.771 270.471 229.771C270.918 229.771 271.271 229.853 271.536 230.024C271.8 230.194 271.924 230.429 271.9 230.735C271.883 231.059 271.806 231.353 271.688 231.629C271.565 231.905 271.406 232.17 271.2 232.423C271.812 232.229 272.335 232.023 272.782 231.794C273.229 231.57 273.606 231.353 273.911 231.141C274.217 230.929 274.447 230.753 274.611 230.612C274.776 230.465 274.864 230.388 274.888 230.371C274.97 230.306 275.064 230.306 275.176 230.371C275.287 230.435 275.305 230.506 275.223 230.588C274.694 231.2 274.017 231.688 273.182 232.058C272.347 232.429 271.53 232.729 270.718 232.952C270.395 233.24 270.036 233.505 269.654 233.734C269.266 233.97 268.878 234.164 268.484 234.328C268.09 234.487 267.707 234.616 267.343 234.705C266.978 234.793 266.655 234.84 266.367 234.84C265.978 234.84 265.714 234.781 265.573 234.669C265.349 235.199 265.114 235.74 264.873 236.286C264.632 236.833 264.397 237.363 264.173 237.868C263.95 238.374 263.738 238.85 263.532 239.292C263.332 239.733 263.156 240.115 263.015 240.438C262.55 241.403 262.085 242.108 261.627 242.561C261.168 243.014 260.68 243.237 260.151 243.237C259.804 243.237 259.563 243.132 259.421 242.926C259.28 242.714 259.21 242.467 259.21 242.179C259.21 241.65 259.357 241.026 259.651 240.309C259.945 239.591 260.339 238.839 260.821 238.039C261.309 237.245 261.88 236.434 262.526 235.616C263.179 234.793 263.855 234.022 264.567 233.299C264.749 232.835 264.92 232.405 265.085 232.005C265.249 231.611 265.39 231.27 265.514 230.982C265.655 230.647 265.778 230.341 265.878 230.065C265.937 229.906 266.043 229.818 266.184 229.8C266.325 229.783 266.461 229.777 266.578 229.777C266.925 229.777 267.155 229.83 267.278 229.935C267.39 230.041 267.431 230.153 267.39 230.282ZM264.044 234.552C262.621 236.145 261.55 237.598 260.833 238.921C260.11 240.238 259.739 241.332 259.721 242.202C259.721 242.555 259.845 242.732 260.086 242.732C260.251 242.732 260.439 242.538 260.651 242.155C260.862 241.773 261.145 241.197 261.486 240.444C261.891 239.591 262.321 238.645 262.768 237.598C263.209 236.551 263.638 235.534 264.044 234.552ZM268.578 233.37C268.313 233.399 268.025 233.44 267.707 233.493C267.39 233.54 267.107 233.599 266.855 233.675C266.602 233.746 266.39 233.828 266.214 233.917C266.043 234.005 265.955 234.105 265.955 234.217C265.955 234.346 266.025 234.411 266.167 234.411C266.531 234.411 266.925 234.316 267.337 234.122C267.76 233.928 268.172 233.675 268.578 233.37ZM266.719 231.9C266.619 232.158 266.508 232.429 266.384 232.705C266.261 232.987 266.131 233.287 265.99 233.611C266.19 233.517 266.431 233.429 266.708 233.358C266.984 233.287 267.26 233.223 267.543 233.164C267.825 233.105 268.113 233.058 268.395 233.017C268.678 232.976 268.93 232.94 269.154 232.911C269.66 232.493 270.083 232.064 270.418 231.617C270.753 231.176 270.918 230.841 270.918 230.618C270.918 230.423 270.895 230.3 270.842 230.241C270.789 230.182 270.695 230.159 270.554 230.159C270.512 230.159 270.407 230.153 270.236 230.135C270.065 230.118 269.824 230.153 269.519 230.241C269.213 230.329 268.831 230.5 268.36 230.747C267.895 230.994 267.343 231.388 266.713 231.917V231.9H266.719Z" fill="white"/>
</svg>
