<svg width="627" height="693" viewBox="0 0 627 693" fill="none" xmlns="http://www.w3.org/2000/svg">
<path d="M513.037 81.1507C513.037 81.1507 544.973 84.266 523.93 67.122C523.93 67.122 393.069 -35.6816 243.537 13.3788C243.537 13.3788 155.526 37.517 99.451 130.211C99.451 130.211 90.889 155.133 71.4136 172.277C71.4136 172.277 -42.3034 307.801 19.2381 479.944C19.2381 479.944 62.0679 633.376 238.11 683.24C238.11 683.24 372.086 723.739 496.697 634.18C496.697 634.18 689.863 500.987 605.731 276.669C605.731 276.669 660.258 448.028 544.21 575.754C544.21 575.754 401.671 743.998 186.698 638.843C186.698 638.843 15.339 554.489 35.5982 346.249C35.5982 346.249 39.4973 305.47 76.0966 232.271C76.0966 232.271 105.702 179.312 181.252 148.159C181.252 148.159 267.715 102.978 353.375 86.6376C353.375 86.6376 224.081 123.237 104.134 218.262C104.134 218.262 79.2118 233.055 119.71 236.954C119.71 236.954 269.263 270.438 372.066 179.312C372.066 179.292 456.962 96.727 513.037 81.1507Z" fill="#961818"/>
<path d="M232.985 369.282C232.503 372.699 231.478 377.201 229.91 382.808C228.322 388.416 226.292 394.284 223.82 400.435C225.448 400.435 227.197 400.495 229.046 400.595C230.895 400.696 232.804 400.917 234.714 401.218C236.623 401.52 238.472 401.942 240.241 402.465C242.009 402.987 243.517 403.67 244.763 404.515C245.627 405.037 245.908 405.6 245.627 406.163C245.346 406.725 244.903 407.007 244.341 407.007C243.758 407.007 243.336 406.746 243.054 406.203C242.853 405.901 242.311 405.52 241.406 405.057C240.502 404.595 239.276 404.153 237.748 403.691C236.221 403.228 234.492 402.846 232.583 402.545C230.674 402.243 228.624 402.083 226.413 402.083H225.549L223.961 402.203H223.097C221.087 406.906 218.856 411.489 216.424 415.951C213.992 420.412 211.299 424.372 208.385 427.829C205.47 431.286 202.335 434.059 198.999 436.19C195.642 438.3 192.165 439.365 188.527 439.365C185.372 439.365 182.638 438.662 180.347 437.255C178.056 435.848 176.85 433.637 176.77 430.602C176.669 427.125 177.533 423.769 179.342 420.553C181.151 417.337 183.744 414.423 187.08 411.81C190.417 409.198 194.436 406.946 199.119 405.057C203.802 403.168 208.967 401.842 214.615 401.078C215.962 397.963 217.147 394.988 218.193 392.094C219.238 389.22 220.202 386.526 221.067 384.034C221.931 381.542 222.654 379.331 223.217 377.442C223.8 375.553 224.222 374.106 224.503 373.121C224.303 373.422 223.217 374.427 221.207 376.136C219.198 377.844 216.645 379.874 213.53 382.225C210.414 384.577 206.958 387.069 203.139 389.722C199.32 392.375 195.421 394.827 191.442 397.058C187.482 399.289 183.623 401.158 179.885 402.625C176.147 404.113 172.85 404.836 169.997 404.836C167.022 404.836 164.55 404.434 162.54 403.65C160.53 402.846 158.922 401.801 157.736 400.475C156.531 399.148 155.686 397.641 155.164 395.933C154.641 394.224 154.38 392.476 154.38 390.647C154.38 386.406 155.264 381.984 157.033 377.402C158.802 372.819 161.274 368.337 164.429 363.936C167.585 359.534 171.283 355.394 175.544 351.495C179.805 347.596 184.367 344.159 189.251 341.204C194.135 338.25 199.26 335.898 204.666 334.15C210.073 332.401 215.439 331.537 220.805 331.537C224.725 331.537 227.759 332.18 229.91 333.467C232.061 334.753 233.668 336.26 234.714 337.948C235.759 339.657 236.402 341.285 236.643 342.832C236.884 344.38 237.005 345.465 237.005 346.068C237.005 346.912 236.784 348.239 236.362 350.108C235.94 351.957 235.337 353.826 234.573 355.675C233.809 357.524 232.864 359.172 231.779 360.62C230.674 362.067 229.408 362.77 227.981 362.77C226.835 362.77 226.011 362.328 225.549 361.464C225.066 360.599 225.549 359.775 226.976 359.012C228.503 358.188 229.99 356.54 231.417 354.067C232.844 351.615 233.668 348.902 233.849 345.948C233.95 344.581 233.729 343.234 233.206 341.908C232.684 340.581 231.94 339.396 230.975 338.33C230.01 337.265 228.825 336.401 227.398 335.718C225.971 335.034 224.383 334.693 222.654 334.693C218.635 334.693 214.314 335.497 209.671 337.084C205.028 338.672 200.446 340.843 195.903 343.556C191.361 346.289 186.98 349.505 182.779 353.223C178.579 356.942 174.86 360.901 171.665 365.102C168.469 369.302 165.896 373.684 163.987 378.226C162.078 382.768 161.113 387.29 161.113 391.752C161.113 394.626 161.837 397.118 163.264 399.189C164.691 401.259 166.318 402.324 168.147 402.324C170.921 402.324 174.157 401.6 177.835 400.173C181.513 398.726 185.332 396.897 189.311 394.666C193.271 392.435 197.25 389.923 201.209 387.17C205.169 384.396 208.787 381.663 212.042 378.929C215.298 376.196 218.052 373.663 220.283 371.312C222.534 368.96 223.941 367.111 224.524 365.745C224.704 365.443 225.106 365.282 225.669 365.282C228.061 365.202 229.93 365.584 231.257 366.428C232.603 367.272 233.186 368.217 232.985 369.282ZM213.771 403.148C208.224 404.133 203.38 405.64 199.22 407.69C195.059 409.74 191.562 412.031 188.748 414.564C185.935 417.096 183.824 419.769 182.437 422.583C181.051 425.377 180.367 427.99 180.367 430.422C180.367 432.391 180.99 433.959 182.236 435.145C183.483 436.31 185.111 436.913 187.12 436.913C189.512 436.913 191.904 435.949 194.296 434.019C196.687 432.09 199.039 429.537 201.33 426.342C203.621 423.166 205.832 419.548 207.922 415.488C209.992 411.428 211.942 407.308 213.771 403.148Z" fill="#961818"/>
<path d="M241.024 398.485C239.015 398.485 237.447 398.002 236.281 396.997C235.136 396.013 234.653 394.686 234.854 393.018C234.955 391.872 235.316 390.707 235.94 389.501C236.563 388.295 237.326 387.189 238.231 386.204C239.135 385.22 240.16 384.396 241.306 383.752C242.451 383.109 243.597 382.788 244.743 382.788C245.707 382.788 246.471 383.009 247.034 383.471C247.315 382.868 248.179 382.567 249.606 382.567C251.335 382.567 252.621 383.069 253.485 384.094C254.35 385.119 254.631 386.466 254.35 388.134C254.35 388.435 254.31 388.697 254.209 388.938C254.109 389.159 254.008 389.44 253.928 389.742C255.073 390.506 256.561 390.887 258.369 390.887C260.661 390.887 262.65 390.626 264.319 390.083C265.987 389.561 267.454 388.938 268.7 388.214C269.946 387.491 270.951 386.747 271.715 386.004C272.479 385.24 273.102 384.637 273.584 384.195C273.966 383.813 274.348 383.813 274.73 384.195C275.111 384.577 275.152 384.958 274.87 385.34C274.669 385.561 274.227 386.084 273.504 386.868C272.78 387.672 271.735 388.476 270.348 389.32C268.961 390.164 267.293 390.908 265.323 391.591C263.354 392.274 261.002 392.616 258.229 392.616C256.42 392.616 254.651 392.314 252.923 391.711C251.878 393.52 250.29 395.128 248.18 396.495C246.089 397.801 243.698 398.485 241.024 398.485ZM249.908 389.862C248.863 389.038 248.059 388.154 247.536 387.25C247.014 386.345 246.692 385.581 246.612 384.978C245.084 385.823 243.758 386.888 242.673 388.214C241.567 389.541 240.763 390.827 240.241 392.073C239.718 393.319 239.577 394.405 239.819 395.309C240.06 396.214 240.663 396.676 241.607 396.676C242.371 396.676 243.637 396.234 245.406 395.369C247.175 394.505 248.662 392.656 249.908 389.862ZM250.772 386.225C250.873 385.541 250.812 385.2 250.632 385.2C250.531 385.2 250.591 385.541 250.772 386.225Z" fill="#961818"/>
<path d="M352.189 369.282C351.707 372.699 350.682 377.201 349.114 382.808C347.546 388.416 345.496 394.284 343.024 400.435C344.652 400.435 346.401 400.495 348.25 400.595C350.119 400.716 352.008 400.917 353.918 401.218C355.827 401.52 357.676 401.942 359.445 402.465C361.213 402.987 362.721 403.67 363.967 404.515C364.831 405.037 365.112 405.6 364.831 406.163C364.55 406.725 364.107 407.007 363.545 407.007C362.982 407.007 362.54 406.746 362.258 406.203C362.057 405.901 361.515 405.52 360.61 405.057C359.706 404.595 358.48 404.153 356.952 403.691C355.425 403.228 353.696 402.846 351.787 402.545C349.878 402.243 347.828 402.083 345.617 402.083H344.753L343.165 402.203H342.301C340.291 406.906 338.06 411.489 335.628 415.951C333.196 420.412 330.503 424.372 327.589 427.829C324.674 431.286 321.539 434.059 318.203 436.19C314.846 438.3 311.369 439.365 307.731 439.365C304.576 439.365 301.842 438.662 299.551 437.255C297.26 435.848 296.054 433.637 295.974 430.602C295.873 427.125 296.737 423.769 298.546 420.553C300.355 417.337 302.948 414.423 306.284 411.81C309.621 409.198 313.64 406.946 318.323 405.057C323.006 403.168 328.171 401.842 333.819 401.078C335.166 397.963 336.351 394.988 337.397 392.094C338.442 389.22 339.406 386.526 340.271 384.034C341.135 381.542 341.858 379.331 342.421 377.442C343.004 375.553 343.426 374.106 343.707 373.121C343.506 373.422 342.421 374.427 340.411 376.136C338.402 377.844 335.849 379.874 332.734 382.225C329.618 384.577 326.162 387.069 322.343 389.722C318.524 392.375 314.625 394.827 310.646 397.058C306.686 399.289 302.827 401.158 299.089 402.625C295.351 404.113 292.054 404.836 289.2 404.836C286.226 404.836 283.754 404.434 281.744 403.65C279.734 402.846 278.126 401.801 276.94 400.475C275.735 399.148 274.89 397.641 274.368 395.933C273.845 394.224 273.584 392.476 273.584 390.647C273.584 386.406 274.468 381.984 276.237 377.402C278.006 372.819 280.478 368.337 283.633 363.936C286.789 359.534 290.487 355.394 294.748 351.495C299.009 347.596 303.571 344.159 308.455 341.204C313.339 338.25 318.464 335.898 323.87 334.15C329.277 332.401 334.643 331.537 340.009 331.537C343.929 331.537 346.963 332.18 349.114 333.467C351.264 334.753 352.872 336.26 353.918 337.948C354.963 339.657 355.606 341.285 355.847 342.832C356.088 344.38 356.209 345.465 356.209 346.068C356.209 346.912 355.988 348.239 355.566 350.108C355.143 351.957 354.541 353.826 353.777 355.675C353.013 357.524 352.068 359.172 350.983 360.62C349.878 362.067 348.612 362.77 347.185 362.77C346.039 362.77 345.215 362.328 344.753 361.464C344.27 360.599 344.753 359.775 346.18 359.012C347.707 358.188 349.194 356.54 350.621 354.067C352.048 351.615 352.872 348.902 353.053 345.948C353.154 344.581 352.933 343.234 352.41 341.908C351.888 340.581 351.144 339.396 350.179 338.33C349.214 337.265 348.029 336.401 346.602 335.718C345.175 335.034 343.587 334.693 341.858 334.693C337.839 334.693 333.518 335.497 328.875 337.084C324.232 338.672 319.65 340.843 315.107 343.556C310.565 346.289 306.184 349.505 301.983 353.223C297.783 356.942 294.064 360.901 290.869 365.102C287.673 369.302 285.1 373.684 283.191 378.226C281.282 382.768 280.317 387.29 280.317 391.752C280.317 394.626 281.041 397.118 282.467 399.189C283.894 401.259 285.522 402.324 287.351 402.324C290.125 402.324 293.361 401.6 297.039 400.173C300.717 398.726 304.536 396.897 308.515 394.666C312.474 392.435 316.454 389.923 320.413 387.17C324.373 384.396 327.99 381.663 331.246 378.929C334.502 376.196 337.256 373.663 339.487 371.312C341.738 368.96 343.145 367.111 343.728 365.745C343.908 365.443 344.31 365.282 344.873 365.282C347.265 365.202 349.134 365.584 350.461 366.428C351.807 367.272 352.37 368.217 352.189 369.282ZM332.955 403.148C327.408 404.133 322.564 405.64 318.404 407.69C314.243 409.74 310.746 412.031 307.932 414.564C305.118 417.096 303.008 419.769 301.621 422.583C300.235 425.377 299.551 427.99 299.551 430.422C299.551 432.391 300.174 433.959 301.42 435.145C302.666 436.31 304.294 436.913 306.304 436.913C308.696 436.913 311.088 435.949 313.479 434.019C315.871 432.09 318.223 429.537 320.514 426.342C322.805 423.166 325.016 419.548 327.106 415.488C329.176 411.428 331.146 407.308 332.955 403.148Z" fill="#961818"/>
<path d="M389.05 386.325C388.849 386.486 388.326 386.948 387.462 387.752C386.598 388.556 385.552 389.461 384.306 390.486C383.06 391.511 381.653 392.616 380.066 393.782C378.498 394.947 376.91 396.053 375.322 397.078C373.735 398.103 372.207 398.927 370.74 399.57C369.253 400.213 367.946 400.535 366.801 400.535C365.273 400.535 364.027 400.274 363.062 399.731C362.098 399.208 361.635 398.324 361.635 397.118C361.635 396.133 361.876 395.128 362.359 394.103C362.841 393.078 363.364 392.093 363.947 391.149C364.529 390.204 365.072 389.34 365.595 388.596C366.117 387.833 366.439 387.27 366.519 386.888C366.519 386.727 366.037 386.687 365.092 386.727C364.127 386.767 362.942 386.787 361.515 386.787C358.741 386.787 357.354 385.682 357.354 383.491C357.354 382.507 357.736 381.441 358.5 380.316C359.264 379.17 360.309 378.607 361.655 378.607C362.419 378.607 363.183 378.768 363.947 379.07C364.71 379.371 365.092 379.833 365.092 380.436C365.092 381.281 364.751 382.044 364.087 382.768C363.424 383.491 362.801 384.155 362.218 384.758L367.243 384.637C368.589 384.557 369.735 384.818 370.68 385.441C371.644 386.044 371.865 386.848 371.403 387.833C371.202 388.355 370.921 388.978 370.539 389.641C370.157 390.325 369.775 390.988 369.393 391.631C369.011 392.274 368.65 392.857 368.308 393.4C367.966 393.922 367.705 394.304 367.524 394.546C366.76 395.832 366.399 396.837 366.439 397.56C366.479 398.284 366.901 398.646 367.665 398.646C368.81 398.646 370.338 398.083 372.247 396.937C374.157 395.792 376.126 394.485 378.136 392.958C380.146 391.45 382.015 389.943 383.723 388.476C385.452 386.988 386.678 385.923 387.462 385.24C387.643 385.019 388.065 385.059 388.688 385.36C389.311 385.602 389.431 385.943 389.05 386.325Z" fill="#961818"/>
<path d="M389.753 391.672C389.653 392.134 389.612 392.656 389.612 393.259C389.612 393.862 389.713 394.425 389.894 394.968C390.075 395.49 390.436 395.952 390.979 396.334C391.502 396.716 392.245 396.897 393.21 396.897C394.637 396.897 396.285 396.555 398.154 395.872C400.023 395.189 401.892 394.325 403.741 393.259C405.611 392.194 407.379 391.008 409.048 389.682C410.716 388.355 412.123 387.049 413.288 385.763C413.67 385.381 414.092 385.32 414.575 385.602C415.057 385.863 415.157 386.185 414.856 386.567C414.755 386.788 414.012 387.551 412.625 388.838C411.238 390.124 409.51 391.471 407.46 392.877C405.41 394.284 403.098 395.571 400.566 396.736C398.034 397.902 395.521 398.505 393.029 398.505C390.356 398.505 388.226 397.962 386.638 396.857C385.05 395.752 384.266 394.304 384.266 392.475C384.266 391.109 384.628 389.762 385.351 388.436C386.075 387.109 387 385.964 388.145 384.979C389.291 383.994 390.597 383.19 392.084 382.587C393.572 381.984 395.119 381.683 396.747 381.683C398.174 381.683 399.4 381.964 400.405 382.527C401.41 383.089 401.913 384.054 401.913 385.421C401.913 386.104 401.671 386.828 401.189 387.571C400.707 388.335 400.043 389.039 399.179 389.682C398.315 390.325 397.27 390.868 396.024 391.33C394.778 391.792 393.351 392.013 391.723 392.013C391.341 392.013 390.979 391.973 390.637 391.893C390.356 391.832 390.054 391.752 389.753 391.672ZM390.195 390.546C390.376 390.626 390.718 390.667 391.2 390.667C392.064 390.667 392.949 390.506 393.853 390.164C394.757 389.822 395.622 389.36 396.426 388.737C397.23 388.134 397.873 387.431 398.355 386.627C398.838 385.823 399.079 385.019 399.079 384.175C399.079 383.793 398.838 383.612 398.355 383.612C398.074 383.612 397.591 383.692 396.928 383.833C396.265 383.994 395.541 384.295 394.778 384.738C394.014 385.2 393.23 385.883 392.406 386.788C391.602 387.692 390.858 388.938 390.195 390.546Z" fill="#961818"/>
<path d="M416.142 391.672C416.042 392.134 416.002 392.656 416.002 393.259C416.002 393.862 416.102 394.425 416.283 394.968C416.464 395.49 416.826 395.952 417.368 396.334C417.891 396.716 418.635 396.897 419.599 396.897C421.026 396.897 422.674 396.555 424.544 395.872C426.413 395.189 428.282 394.325 430.131 393.259C432 392.194 433.769 391.008 435.437 389.682C437.105 388.355 438.512 387.049 439.678 385.763C440.06 385.381 440.482 385.32 440.964 385.602C441.446 385.863 441.547 386.185 441.245 386.567C441.145 386.788 440.401 387.551 439.014 388.838C437.628 390.124 435.899 391.471 433.849 392.877C431.799 394.284 429.488 395.571 426.955 396.736C424.423 397.902 421.911 398.505 419.418 398.505C416.745 398.505 414.615 397.962 413.027 396.857C411.439 395.752 410.656 394.304 410.656 392.475C410.656 391.109 411.017 389.762 411.741 388.436C412.464 387.109 413.389 385.964 414.535 384.979C415.68 383.994 416.987 383.19 418.474 382.587C419.961 381.984 421.509 381.683 423.137 381.683C424.564 381.683 425.79 381.964 426.795 382.527C427.8 383.089 428.302 384.054 428.302 385.421C428.302 386.104 428.061 386.828 427.578 387.571C427.096 388.335 426.433 389.039 425.569 389.682C424.704 390.325 423.659 390.868 422.413 391.33C421.167 391.792 419.74 392.013 418.112 392.013C417.73 392.013 417.368 391.973 417.027 391.893C416.745 391.832 416.444 391.752 416.142 391.672ZM416.585 390.546C416.765 390.626 417.107 390.667 417.589 390.667C418.454 390.667 419.338 390.506 420.242 390.164C421.147 389.822 422.011 389.36 422.815 388.737C423.619 388.134 424.262 387.431 424.745 386.627C425.227 385.823 425.468 385.019 425.468 384.175C425.468 383.793 425.227 383.612 424.745 383.612C424.463 383.612 423.981 383.692 423.318 383.833C422.654 383.994 421.931 384.295 421.167 384.738C420.403 385.2 419.619 385.883 418.795 386.788C417.991 387.692 417.248 388.938 416.585 390.546Z" fill="#961818"/>
<path d="M448.42 383.833C447.838 384.436 447.174 385.32 446.411 386.506C445.647 387.672 444.943 388.898 444.34 390.144C443.717 391.39 443.195 392.556 442.753 393.601C442.331 394.666 442.11 395.41 442.11 395.872C443.255 395.108 444.883 393.882 446.994 392.174C449.104 390.466 451.335 388.737 453.726 386.948C456.118 385.16 458.429 383.592 460.681 382.225C462.932 380.859 464.761 380.175 466.208 380.175C466.489 380.175 466.871 380.195 467.353 380.236C467.836 380.276 468.338 380.396 468.861 380.577C469.383 380.758 469.785 381.04 470.087 381.381C470.388 381.723 470.428 382.205 470.227 382.808C470.127 383.331 469.725 384.215 469.001 385.421C468.278 386.627 467.494 387.913 466.63 389.28C465.765 390.647 465.002 391.973 464.338 393.259C463.675 394.546 463.233 395.49 463.052 396.093C462.851 396.616 462.751 397.259 462.69 398.023C462.65 398.786 462.952 399.168 463.615 399.168C464.66 399.168 466.188 398.485 468.197 397.118C470.207 395.752 472.217 394.224 474.227 392.516C476.237 390.807 478.025 389.24 479.613 387.793C481.201 386.345 482.025 385.521 482.126 385.3C482.407 384.919 482.849 384.919 483.412 385.3C483.995 385.682 484.135 385.984 483.834 386.205C483.07 387.109 481.824 388.375 480.096 390.003C478.367 391.631 476.518 393.259 474.508 394.887C472.498 396.515 470.509 397.942 468.559 399.148C466.589 400.354 464.941 400.957 463.615 400.957C461.806 400.957 460.339 400.575 459.233 399.811C458.128 399.048 457.626 398.103 457.726 396.978C457.827 395.47 458.269 393.862 459.093 392.194C459.897 390.526 460.741 388.978 461.605 387.531C462.469 386.084 463.253 384.898 463.977 383.954C464.7 383.009 465.062 382.467 465.062 382.306C463.916 382.386 462.429 382.989 460.62 384.115C458.811 385.26 456.842 386.607 454.731 388.215C452.621 389.802 450.551 391.41 448.501 393.038C446.451 394.666 444.602 396.053 442.974 397.179C442.21 397.641 441.486 397.862 440.823 397.862C439.778 397.862 438.793 397.5 437.889 396.777C436.984 396.053 436.582 395.249 436.663 394.325C436.763 393.42 437.165 392.234 437.889 390.807C438.612 389.36 439.416 387.973 440.321 386.607C441.225 385.24 442.13 384.074 443.054 383.09C443.959 382.105 444.662 381.602 445.124 381.602C446.471 381.602 447.416 381.864 447.998 382.406C448.561 382.989 448.702 383.451 448.42 383.833Z" fill="#961818"/>
<path d="M110.304 460.629C110.304 461.072 110.324 461.433 110.364 461.735C110.405 462.036 110.485 462.197 110.626 462.197C110.766 462.257 110.827 462.358 110.827 462.478C110.827 462.619 110.646 462.679 110.304 462.679C110.163 462.679 109.862 462.539 109.359 462.257C108.877 461.976 108.636 461.373 108.636 460.448C108.636 459.946 108.837 459.202 109.259 458.218C109.681 457.233 110.465 456.228 111.611 455.203C112.756 454.178 114.324 453.293 116.354 452.53C118.364 451.766 120.976 451.384 124.152 451.384C126.443 451.384 128.775 451.444 131.126 451.585C133.478 451.726 135.869 451.907 138.301 452.128L139.346 450.058C139.688 449.736 140.17 449.555 140.814 449.555C141.577 449.555 142.261 449.716 142.904 450.058C143.527 450.379 143.728 450.721 143.527 451.042C143.467 451.163 143.386 451.284 143.326 451.464C143.266 451.585 143.185 451.726 143.125 451.927C143.065 452.128 142.944 452.349 142.803 452.63C147.245 453.072 151.586 453.494 155.807 453.917C160.048 454.339 164.067 454.419 167.886 454.198C169.695 454.097 171.484 453.917 173.293 453.695C175.102 453.474 176.709 453.153 178.136 452.751C179.563 452.329 180.729 451.826 181.613 451.183C182.518 450.56 182.96 449.796 182.96 448.912C182.96 448.631 182.9 448.45 182.759 448.369C182.618 448.289 182.478 448.188 182.337 448.088C182.196 447.987 182.136 447.847 182.176 447.666C182.216 447.505 182.357 447.465 182.638 447.585C182.839 447.646 183.201 447.827 183.684 448.128C184.166 448.43 184.407 448.932 184.407 449.656C184.407 449.977 184.206 450.52 183.844 451.264C183.462 452.007 182.659 452.751 181.453 453.494C180.247 454.238 178.518 454.901 176.307 455.524C174.077 456.127 171.142 456.489 167.464 456.59C163.846 456.71 159.786 456.59 155.244 456.268C150.702 455.946 146.18 455.585 141.658 455.203C140.753 457.132 139.567 459.705 138.06 462.921C136.573 466.136 134.945 469.573 133.216 473.231C131.488 476.889 129.739 480.587 127.951 484.325C126.182 488.064 124.594 491.481 123.167 494.556C121.74 497.631 120.554 500.163 119.569 502.153C118.605 504.122 118.082 505.208 118.002 505.369C117.801 505.811 117.198 506.032 116.233 506.032C115.67 506.032 115.148 505.931 114.665 505.75C114.183 505.549 113.962 505.288 114.042 504.967C114.243 504.203 114.826 502.675 115.751 500.424C116.675 498.173 117.861 495.5 119.288 492.425C120.715 489.35 122.263 486.014 123.911 482.456C125.579 478.879 127.227 475.362 128.855 471.905C130.483 468.448 132.031 465.212 133.478 462.217C134.925 459.223 136.111 456.771 137.015 454.841C132.573 454.459 128.614 454.218 125.157 454.097C123.83 454.097 122.303 454.198 120.574 454.379C118.846 454.58 117.218 454.921 115.69 455.444C114.163 455.967 112.877 456.65 111.832 457.514C110.827 458.298 110.304 459.363 110.304 460.629Z" fill="#961818"/>
<path d="M138.402 495.42C138.341 495.742 138.301 496.144 138.301 496.566C138.301 497.008 138.362 497.41 138.502 497.812C138.643 498.194 138.904 498.535 139.286 498.797C139.668 499.078 140.211 499.219 140.894 499.219C141.939 499.219 143.125 498.978 144.492 498.475C145.858 497.973 147.205 497.35 148.551 496.586C149.898 495.822 151.184 494.958 152.41 493.993C153.616 493.028 154.641 492.084 155.485 491.139C155.767 490.858 156.068 490.818 156.43 491.019C156.772 491.22 156.852 491.441 156.631 491.722C156.571 491.883 156.028 492.446 155.023 493.37C154.018 494.315 152.772 495.279 151.285 496.305C149.798 497.33 148.129 498.254 146.28 499.118C144.431 499.962 142.622 500.405 140.814 500.405C138.864 500.405 137.337 500.003 136.191 499.219C135.045 498.415 134.483 497.37 134.483 496.043C134.483 495.058 134.744 494.074 135.266 493.109C135.789 492.144 136.472 491.3 137.296 490.597C138.12 489.873 139.085 489.31 140.15 488.868C141.216 488.426 142.361 488.205 143.527 488.205C144.572 488.205 145.456 488.406 146.18 488.828C146.903 489.25 147.265 489.933 147.265 490.938C147.265 491.441 147.084 491.963 146.743 492.506C146.401 493.049 145.919 493.571 145.275 494.033C144.652 494.496 143.889 494.898 142.984 495.219C142.08 495.541 141.035 495.722 139.869 495.722C139.588 495.722 139.326 495.702 139.085 495.641C138.844 495.541 138.623 495.48 138.402 495.42ZM138.723 494.596C138.864 494.656 139.105 494.677 139.447 494.677C140.07 494.677 140.713 494.556 141.376 494.315C142.04 494.074 142.663 493.732 143.245 493.29C143.828 492.848 144.311 492.345 144.652 491.762C144.994 491.179 145.175 490.597 145.175 489.994C145.175 489.712 144.994 489.572 144.652 489.572C144.451 489.572 144.09 489.632 143.607 489.732C143.125 489.853 142.602 490.054 142.04 490.396C141.477 490.717 140.914 491.22 140.331 491.883C139.748 492.546 139.206 493.451 138.723 494.596Z" fill="#961818"/>
<path d="M166.499 491.802C166.298 492.345 165.917 492.626 165.354 492.626C164.731 492.626 164.409 492.405 164.409 491.963C164.409 491.682 164.49 491.501 164.67 491.38C164.851 491.28 164.992 491.018 165.133 490.637C165.334 489.812 164.932 489.39 163.887 489.39C162.64 489.39 161.515 489.893 160.51 490.918C159.505 491.943 158.802 493.068 158.38 494.294C157.958 495.541 157.937 496.666 158.279 497.711C158.621 498.756 159.565 499.279 161.093 499.279C162.138 499.279 163.284 499.018 164.53 498.495C165.776 497.972 167.022 497.309 168.268 496.465C169.514 495.641 170.74 494.717 171.906 493.712C173.092 492.687 174.097 491.722 174.921 490.777C175.122 490.496 175.403 490.456 175.745 490.657C176.086 490.858 176.187 491.079 176.066 491.36C176.006 491.521 175.503 492.104 174.559 493.089C173.614 494.073 172.428 495.159 170.961 496.304C169.494 497.45 167.826 498.495 165.916 499.44C164.007 500.364 161.977 500.847 159.827 500.847C158.158 500.847 156.872 500.525 155.968 499.902C155.063 499.279 154.48 498.495 154.199 497.55C153.918 496.626 153.938 495.581 154.259 494.455C154.581 493.33 155.083 492.305 155.827 491.36C156.551 490.436 157.475 489.652 158.581 489.009C159.686 488.386 160.912 488.064 162.218 488.064C163.947 488.064 165.173 488.426 165.856 489.169C166.58 489.933 166.781 490.797 166.499 491.802Z" fill="#961818"/>
<path d="M175.463 500.365C174.358 500.365 173.634 500.144 173.273 499.701C172.931 499.259 172.83 498.777 172.951 498.214C174.056 494.255 175.544 490.275 177.373 486.256C179.202 482.236 181.312 478.357 183.663 474.578C186.015 470.82 188.527 467.283 191.2 463.986C193.873 460.69 196.587 457.816 199.38 455.364C202.154 452.912 204.908 451.003 207.661 449.596C210.394 448.189 212.987 447.486 215.419 447.486C217.57 447.486 219.238 447.988 220.424 449.013C221.609 450.038 222.192 451.284 222.192 452.771C222.192 455.023 221.569 457.354 220.323 459.746C219.077 462.137 217.389 464.509 215.278 466.84C213.168 469.172 210.736 471.423 208.003 473.594C205.269 475.764 202.395 477.794 199.421 479.703C196.446 481.593 193.431 483.301 190.417 484.808C187.402 486.316 184.568 487.562 181.935 488.567C181.171 490.054 180.508 491.521 179.965 492.989C179.403 494.456 178.86 495.883 178.297 497.31C179.403 496.425 180.689 495.4 182.156 494.215C183.603 493.029 185.09 491.923 186.578 490.878C188.065 489.833 189.492 488.949 190.839 488.245C192.185 487.522 193.311 487.18 194.215 487.18C194.416 487.18 194.698 487.2 195.039 487.22C195.381 487.24 195.723 487.341 196.084 487.461C196.426 487.602 196.748 487.783 197.029 488.044C197.31 488.285 197.451 488.627 197.451 489.069C197.451 489.833 197.109 490.898 196.406 492.245C195.702 493.591 194.979 494.918 194.215 496.204C193.451 497.491 192.848 498.616 192.386 499.541C191.944 500.465 191.924 500.947 192.326 500.947C193.09 500.947 194.195 500.445 195.662 499.46C197.129 498.475 198.577 497.35 200.024 496.124C201.491 494.878 202.777 493.752 203.923 492.707C205.068 491.662 205.671 491.059 205.752 490.898C205.953 490.617 206.274 490.617 206.696 490.898C207.118 491.18 207.219 491.401 207.018 491.562C206.455 492.225 205.551 493.149 204.305 494.315C203.058 495.501 201.712 496.687 200.245 497.852C198.798 499.038 197.351 500.063 195.924 500.947C194.497 501.832 193.311 502.274 192.326 502.274C189.552 502.274 188.166 501.51 188.166 499.963C188.166 499.299 188.447 498.455 188.99 497.41C189.552 496.365 190.135 495.3 190.758 494.194C191.381 493.089 191.964 492.044 192.527 491.059C193.09 490.074 193.351 489.29 193.351 488.748C192.527 488.808 191.421 489.25 190.075 490.114C188.728 490.959 187.281 491.984 185.754 493.169C184.226 494.355 182.719 495.581 181.232 496.847C179.744 498.114 178.438 499.159 177.332 499.983C177.192 500.204 176.93 500.324 176.549 500.345C176.167 500.365 175.805 500.365 175.463 500.365ZM216.987 450.058C214.494 450.058 211.721 451.123 208.666 453.234C205.611 455.344 202.536 458.138 199.461 461.595C196.366 465.052 193.391 468.991 190.517 473.393C187.643 477.794 185.05 482.296 182.759 486.919C187.201 484.989 191.643 482.678 196.084 479.945C200.526 477.231 204.506 474.337 208.063 471.282C211.6 468.227 214.454 465.132 216.645 461.956C218.836 458.801 219.921 455.806 219.921 453.013C219.921 451.746 219.62 450.943 219.037 450.581C218.434 450.239 217.75 450.058 216.987 450.058Z" fill="#961818"/>
<path d="M211.46 489.732C211.038 490.174 210.555 490.818 209.992 491.662C209.43 492.506 208.927 493.39 208.485 494.295C208.043 495.199 207.661 496.043 207.339 496.807C207.018 497.571 206.877 498.134 206.877 498.455C207.701 497.912 208.887 497.008 210.414 495.782C211.942 494.536 213.57 493.29 215.298 491.983C217.027 490.697 218.715 489.551 220.343 488.567C221.971 487.582 223.318 487.079 224.343 487.079C224.544 487.079 224.825 487.099 225.167 487.12C225.508 487.14 225.87 487.24 226.252 487.361C226.634 487.501 226.935 487.682 227.136 487.944C227.337 488.185 227.378 488.526 227.237 488.969C227.177 489.351 226.875 489.994 226.353 490.858C225.83 491.742 225.267 492.667 224.644 493.672C224.021 494.677 223.458 495.621 222.976 496.566C222.494 497.51 222.172 498.194 222.031 498.636C221.891 499.018 221.81 499.48 221.77 500.043C221.73 500.586 221.951 500.867 222.453 500.867C223.217 500.867 224.323 500.364 225.79 499.38C227.237 498.395 228.704 497.269 230.151 496.043C231.598 494.797 232.905 493.672 234.05 492.627C235.196 491.581 235.799 490.978 235.879 490.818C236.08 490.536 236.402 490.536 236.824 490.818C237.246 491.099 237.346 491.32 237.145 491.481C236.583 492.144 235.698 493.069 234.432 494.234C233.186 495.42 231.839 496.606 230.372 497.772C228.905 498.958 227.478 499.983 226.051 500.867C224.624 501.751 223.438 502.193 222.453 502.193C221.127 502.193 220.082 501.912 219.278 501.369C218.474 500.827 218.112 500.123 218.193 499.299C218.253 498.194 218.595 497.048 219.177 495.842C219.76 494.636 220.383 493.511 221.006 492.466C221.629 491.421 222.212 490.556 222.715 489.873C223.237 489.19 223.499 488.788 223.499 488.687C222.675 488.748 221.589 489.19 220.263 490.014C218.936 490.838 217.529 491.823 216.002 492.988C214.474 494.134 212.967 495.32 211.48 496.485C209.992 497.671 208.646 498.676 207.48 499.5C206.917 499.822 206.395 500.003 205.912 500.003C205.149 500.003 204.445 499.741 203.782 499.219C203.119 498.696 202.837 498.113 202.898 497.45C202.958 496.787 203.259 495.943 203.782 494.898C204.305 493.853 204.887 492.827 205.551 491.843C206.214 490.858 206.877 489.994 207.52 489.29C208.184 488.567 208.686 488.225 209.028 488.225C209.992 488.225 210.696 488.426 211.118 488.808C211.58 489.129 211.681 489.451 211.46 489.732Z" fill="#961818"/>
<path d="M237.387 500.365C235.94 500.365 234.794 500.003 233.95 499.299C233.126 498.576 232.764 497.631 232.905 496.405C232.965 495.581 233.226 494.737 233.689 493.853C234.131 492.968 234.693 492.185 235.357 491.461C236.02 490.737 236.764 490.155 237.588 489.692C238.412 489.23 239.256 488.989 240.08 488.989C240.763 488.989 241.326 489.15 241.748 489.491C241.949 489.049 242.572 488.828 243.617 488.828C244.863 488.828 245.808 489.19 246.431 489.934C247.054 490.677 247.255 491.662 247.054 492.868C247.054 493.089 247.014 493.29 246.954 493.451C246.893 493.612 246.813 493.813 246.753 494.034C247.577 494.576 248.662 494.858 249.988 494.858C251.657 494.858 253.084 494.657 254.31 494.275C255.515 493.893 256.581 493.431 257.485 492.908C258.39 492.386 259.113 491.843 259.676 491.3C260.239 490.758 260.681 490.315 261.022 489.974C261.304 489.692 261.585 489.692 261.846 489.974C262.128 490.255 262.168 490.516 261.947 490.798C261.806 490.959 261.485 491.34 260.962 491.903C260.44 492.486 259.676 493.069 258.671 493.672C257.666 494.275 256.44 494.817 255.033 495.32C253.606 495.822 251.898 496.064 249.888 496.064C248.561 496.064 247.295 495.843 246.029 495.4C245.265 496.727 244.12 497.872 242.592 498.857C241.065 499.882 239.316 500.365 237.387 500.365ZM243.838 494.114C243.075 493.511 242.492 492.868 242.13 492.225C241.748 491.562 241.527 491.019 241.447 490.577C240.341 491.18 239.376 491.964 238.593 492.928C237.789 493.893 237.206 494.817 236.824 495.742C236.442 496.646 236.342 497.43 236.502 498.094C236.683 498.757 237.105 499.078 237.809 499.078C238.372 499.078 239.276 498.757 240.562 498.134C241.849 497.47 242.934 496.144 243.838 494.114ZM244.461 491.461C244.522 490.959 244.502 490.717 244.361 490.717C244.28 490.717 244.321 490.979 244.461 491.461Z" fill="#961818"/>
<path d="M266.529 489.893C265.625 492.486 265.143 494.917 265.082 497.229C265.022 498.716 265.323 499.962 266.027 500.987C266.71 502.012 267.796 502.515 269.263 502.515C270.931 502.515 272.84 502.173 274.991 501.49C277.141 500.806 279.312 499.902 281.503 498.817C283.693 497.711 285.824 496.465 287.894 495.058C289.964 493.651 291.773 492.204 293.301 490.737C293.582 490.456 293.903 490.456 294.285 490.737C294.667 491.018 294.727 491.28 294.446 491.561C292.778 493.109 290.889 494.616 288.778 496.103C286.668 497.591 284.457 498.937 282.166 500.143C279.875 501.349 277.584 502.334 275.292 503.077C273.001 503.821 270.851 504.183 268.841 504.183C268.077 504.183 267.193 504.123 266.188 503.982C265.183 503.841 264.218 503.52 263.273 503.037C262.329 502.555 261.525 501.831 260.821 500.887C260.138 499.962 259.776 498.716 259.776 497.168C259.716 494.254 260.419 490.978 261.907 487.32C263.394 483.662 265.404 479.944 267.936 476.186C270.469 472.427 273.363 468.729 276.619 465.132C279.875 461.534 283.271 458.338 286.769 455.565C290.266 452.791 293.783 450.54 297.28 448.852C300.777 447.143 303.993 446.299 306.907 446.299C308.917 446.299 310.525 446.721 311.751 447.586C312.957 448.43 313.58 449.696 313.58 451.344C313.58 453.655 312.354 456.369 309.882 459.464C307.41 462.579 304.053 465.835 299.792 469.232C295.531 472.648 290.527 476.125 284.799 479.703C279.071 483.24 272.981 486.657 266.529 489.893ZM267.253 487.843C273.564 484.607 279.412 481.311 284.799 477.954C290.165 474.598 294.848 471.322 298.787 468.106C302.747 464.89 305.842 461.835 308.093 458.961C310.344 456.067 311.47 453.535 311.47 451.324C311.47 450.5 311.269 449.817 310.846 449.294C310.424 448.771 309.801 448.51 308.977 448.51C307.53 448.45 305.641 448.952 303.35 449.997C301.059 451.043 298.586 452.51 295.913 454.359C293.24 456.228 290.487 458.419 287.633 460.951C284.779 463.483 282.065 466.217 279.453 469.151C276.86 472.086 274.468 475.161 272.318 478.356C270.207 481.552 268.499 484.707 267.253 487.843Z" fill="#961818"/>
<path d="M295.25 500.365C293.803 500.365 292.657 500.003 291.813 499.299C290.989 498.576 290.627 497.631 290.768 496.405C290.828 495.581 291.09 494.737 291.552 493.853C291.994 492.968 292.557 492.185 293.22 491.461C293.883 490.737 294.627 490.155 295.451 489.692C296.275 489.23 297.119 488.989 297.943 488.989C298.627 488.989 299.189 489.15 299.611 489.491C299.812 489.049 300.435 488.828 301.481 488.828C302.727 488.828 303.671 489.19 304.294 489.934C304.917 490.677 305.118 491.662 304.917 492.868C304.917 493.089 304.877 493.29 304.817 493.451C304.757 493.612 304.676 493.813 304.616 494.034C305.44 494.576 306.525 494.858 307.852 494.858C309.52 494.858 310.947 494.657 312.173 494.275C313.379 493.893 314.444 493.431 315.348 492.908C316.253 492.386 316.976 491.843 317.539 491.3C318.102 490.758 318.544 490.315 318.886 489.974C319.167 489.692 319.449 489.692 319.71 489.974C319.991 490.255 320.031 490.516 319.81 490.798C319.67 490.959 319.348 491.34 318.825 491.903C318.303 492.486 317.539 493.069 316.534 493.672C315.529 494.275 314.303 494.817 312.896 495.32C311.469 495.822 309.761 496.064 307.751 496.064C306.425 496.064 305.159 495.843 303.892 495.4C303.129 496.727 301.983 497.872 300.456 498.857C298.928 499.882 297.2 500.365 295.25 500.365ZM301.702 494.114C300.938 493.511 300.355 492.868 299.993 492.225C299.611 491.562 299.39 491.019 299.31 490.577C298.204 491.18 297.24 491.964 296.456 492.928C295.652 493.893 295.069 494.817 294.687 495.742C294.305 496.646 294.205 497.43 294.366 498.094C294.547 498.757 294.969 499.078 295.672 499.078C296.235 499.078 297.139 498.757 298.426 498.134C299.712 497.47 300.797 496.144 301.702 494.114ZM302.325 491.461C302.385 490.959 302.365 490.717 302.224 490.717C302.144 490.717 302.184 490.979 302.325 491.461Z" fill="#961818"/>
<path d="M304.093 519.257C304.234 517.709 304.716 516.242 305.561 514.795C306.385 513.368 307.731 511.921 309.56 510.474C311.409 509.007 313.821 507.52 316.796 505.972C319.77 504.424 323.448 502.776 327.83 501.028C328.031 499.822 328.212 498.616 328.352 497.39C328.493 496.184 328.553 494.938 328.553 493.672C327.99 494.335 327.347 495.038 326.624 495.822C325.9 496.586 325.076 497.289 324.172 497.933C323.267 498.556 322.323 499.078 321.318 499.46C320.313 499.842 319.248 500.003 318.142 499.963C316.755 499.862 315.71 499.48 315.027 498.857C314.344 498.234 314.062 497.39 314.203 496.345C314.344 495.199 314.766 494.114 315.509 493.089C316.233 492.064 317.137 491.179 318.223 490.416C319.288 489.652 320.474 489.049 321.76 488.607C323.046 488.165 324.353 487.984 325.659 488.024C326.483 488.084 327.227 488.245 327.85 488.526C328.473 488.808 328.955 489.129 329.317 489.511C329.739 489.29 330.181 489.19 330.664 489.19C331.427 489.25 331.97 489.391 332.271 489.652C332.593 489.893 332.734 490.154 332.734 490.436C332.874 491.541 332.915 492.828 332.894 494.315C332.854 495.802 332.693 497.43 332.432 499.179C333.759 498.515 335.105 497.772 336.492 496.908C337.879 496.063 339.165 495.199 340.351 494.315C341.537 493.43 342.602 492.606 343.587 491.803C344.552 490.999 345.295 490.335 345.778 489.773C346.119 489.391 346.481 489.371 346.863 489.732C347.245 490.094 347.305 490.376 347.024 490.597C345.295 492.365 343.125 494.174 340.512 496.084C337.899 497.993 335.146 499.561 332.231 500.827C331.749 503.641 331.005 506.535 330 509.529C328.995 512.524 327.649 515.237 325.94 517.689C324.232 520.141 322.202 522.111 319.79 523.578C317.378 525.045 314.565 525.729 311.309 525.548C308.957 525.427 307.128 524.804 305.842 523.659C304.536 522.473 303.953 521.026 304.093 519.257ZM306.485 519.337C306.344 520.604 306.686 521.649 307.47 522.473C308.274 523.297 309.259 523.759 310.444 523.88C312.394 523.98 314.263 523.478 316.072 522.352C317.881 521.227 319.529 519.679 321.016 517.73C322.504 515.78 323.81 513.489 324.915 510.876C326.021 508.263 326.885 505.51 327.508 502.595C323.689 504.183 320.474 505.67 317.821 507.057C315.188 508.424 313.057 509.791 311.429 511.137C309.801 512.484 308.595 513.81 307.832 515.137C307.088 516.463 306.626 517.85 306.485 519.337ZM328.553 491.461C328.553 491.36 328.533 491.26 328.493 491.18C328.453 491.099 328.473 490.999 328.553 490.898C328.413 490.617 328.212 490.355 327.93 490.114C327.649 489.873 327.307 489.712 326.885 489.652C326.121 489.592 325.197 489.813 324.132 490.275C323.046 490.737 322.041 491.36 321.056 492.124C320.092 492.888 319.248 493.732 318.564 494.636C317.861 495.541 317.479 496.445 317.419 497.31C317.419 497.591 317.479 497.872 317.579 498.174C317.68 498.475 317.941 498.656 318.363 498.716C319.75 498.837 321.398 498.174 323.308 496.787C325.197 495.38 326.965 493.611 328.553 491.461Z" fill="#961818"/>
<path d="M350.3 489.732C349.958 490.114 349.456 490.838 348.792 491.883C348.129 492.928 347.586 493.993 347.124 495.058C346.682 496.124 346.461 497.068 346.501 497.872C346.541 498.676 347.064 499.038 348.109 498.978C349.074 498.917 350.199 498.515 351.486 497.731C352.772 496.968 353.978 496.083 355.123 495.099C356.269 494.114 357.274 493.169 358.138 492.285C359.002 491.4 359.545 490.858 359.746 490.637C360.088 490.355 360.429 490.315 360.791 490.516C361.133 490.717 361.213 490.938 360.992 491.22C360.429 491.762 359.666 492.546 358.701 493.571C357.736 494.596 356.651 495.581 355.465 496.546C354.279 497.51 353.013 498.355 351.666 499.098C350.32 499.842 348.973 500.264 347.667 500.384C346.34 500.485 345.155 500.324 344.069 499.842C343.004 499.38 342.421 498.475 342.361 497.169C342.361 496.445 342.562 495.581 342.924 494.576C343.305 493.551 343.768 492.566 344.33 491.601C344.893 490.637 345.456 489.813 346.039 489.129C346.622 488.446 347.124 488.104 347.546 488.104C348.37 488.004 349.114 488.165 349.737 488.647C350.42 489.089 350.581 489.451 350.3 489.732ZM348.853 485.612C348.853 484.567 349.516 484.044 350.822 484.044C352.149 484.044 352.792 484.567 352.792 485.612C352.792 486.657 352.129 487.18 350.822 487.18C349.516 487.18 348.853 486.657 348.853 485.612Z" fill="#961818"/>
<path d="M361.133 495.42C361.073 495.742 361.032 496.144 361.032 496.566C361.032 497.008 361.093 497.41 361.233 497.812C361.374 498.194 361.635 498.535 362.017 498.797C362.399 499.078 362.942 499.219 363.625 499.219C364.67 499.219 365.856 498.978 367.223 498.475C368.569 497.973 369.936 497.35 371.283 496.586C372.629 495.822 373.915 494.958 375.141 493.993C376.347 493.028 377.372 492.084 378.216 491.139C378.498 490.858 378.799 490.818 379.161 491.019C379.503 491.22 379.583 491.441 379.362 491.722C379.302 491.883 378.759 492.446 377.754 493.37C376.749 494.315 375.503 495.279 374.016 496.305C372.529 497.33 370.86 498.254 369.011 499.118C367.162 499.962 365.353 500.405 363.545 500.405C361.595 500.405 360.068 500.003 358.922 499.219C357.776 498.415 357.214 497.37 357.214 496.043C357.214 495.058 357.475 494.074 357.997 493.109C358.52 492.144 359.203 491.3 360.027 490.597C360.851 489.873 361.816 489.31 362.881 488.868C363.947 488.426 365.092 488.205 366.258 488.205C367.303 488.205 368.187 488.406 368.911 488.828C369.634 489.25 369.996 489.933 369.996 490.938C369.996 491.441 369.815 491.963 369.474 492.506C369.132 493.049 368.65 493.571 368.006 494.033C367.383 494.496 366.62 494.898 365.715 495.219C364.811 495.541 363.766 495.722 362.6 495.722C362.319 495.722 362.057 495.702 361.816 495.641C361.555 495.541 361.334 495.48 361.133 495.42ZM361.434 494.596C361.575 494.656 361.816 494.677 362.158 494.677C362.781 494.677 363.424 494.556 364.087 494.315C364.751 494.074 365.374 493.732 365.956 493.29C366.539 492.848 367.022 492.345 367.363 491.762C367.705 491.179 367.886 490.597 367.886 489.994C367.886 489.712 367.705 489.572 367.363 489.572C367.162 489.572 366.801 489.632 366.318 489.732C365.836 489.853 365.313 490.054 364.751 490.396C364.188 490.717 363.625 491.22 363.042 491.883C362.459 492.546 361.917 493.451 361.434 494.596Z" fill="#961818"/>
<path d="M381.533 495.923C380.97 494.777 380.287 493.511 379.443 492.124C378.618 490.757 378.156 489.592 378.096 488.667C378.036 487.461 378.438 486.577 379.342 486.034C380.246 485.492 381.292 485.21 382.457 485.21C383.643 485.21 384.487 485.431 385.01 485.873C385.532 486.316 385.834 486.838 385.894 487.441C385.894 487.501 385.874 487.662 385.834 487.944C385.794 488.225 385.673 488.526 385.472 488.848C385.271 489.17 384.929 489.511 384.487 489.833C384.045 490.154 383.402 490.436 382.558 490.657C382.98 491.541 383.422 492.325 383.904 493.049C384.387 493.772 384.809 494.516 385.15 495.28C387.924 494.737 390.034 493.993 391.502 493.089C392.949 492.184 394.094 491.421 394.938 490.818C395.28 490.536 395.622 490.556 395.923 490.858C396.245 491.159 396.225 491.441 395.863 491.722C395.099 492.325 393.913 493.089 392.326 493.993C390.738 494.898 388.467 495.661 385.552 496.264C385.753 496.928 385.874 497.671 385.874 498.495C385.934 499.319 385.794 500.043 385.412 500.686C385.03 501.309 384.507 501.852 383.844 502.294C383.181 502.736 382.457 503.058 381.653 503.279C380.849 503.5 380.045 503.6 379.201 503.6C376.006 503.6 374.478 502.555 374.619 500.465C374.619 500.083 374.699 499.681 374.88 499.279C375.061 498.857 375.383 498.475 375.865 498.073C376.347 497.691 377.051 497.309 377.955 496.968C378.88 496.586 380.066 496.244 381.533 495.923ZM382.055 496.988C379.704 497.531 378.196 498.134 377.533 498.757C376.87 499.38 376.609 500.003 376.749 500.606C376.89 501.711 377.553 502.234 378.719 502.173C379.282 502.113 379.985 501.731 380.849 501.028C381.714 500.304 382.156 499.259 382.156 497.892C382.156 497.51 382.116 497.209 382.055 496.988ZM382.156 489.572C383.623 489.029 384.347 488.366 384.347 487.602C384.347 486.939 383.965 486.617 383.201 486.617C382.859 486.617 382.497 486.738 382.116 486.979C381.734 487.22 381.613 487.702 381.754 488.426C381.895 488.647 381.975 488.848 382.015 489.049C382.035 489.23 382.075 489.411 382.156 489.572Z" fill="#961818"/>
<path d="M435.015 453.937C434.874 453.836 434.593 453.796 434.191 453.856C434.13 453.856 433.849 453.977 433.367 454.218C432.884 454.459 432.382 454.861 431.859 455.404C431.337 455.947 430.874 456.69 430.452 457.635C430.03 458.58 429.829 459.745 429.829 461.172C429.829 461.614 430.01 462.298 430.392 463.242C430.774 464.187 431.518 465.092 432.623 465.956C434.834 463.263 437.286 460.71 439.959 458.278C442.632 455.866 445.446 453.736 448.38 451.927C451.335 450.118 454.37 448.691 457.485 447.646C460.6 446.601 463.695 446.078 466.75 446.078C469.604 446.078 471.855 446.561 473.523 447.525C475.192 448.49 476.016 450.038 476.016 452.188C476.016 454.158 475.111 456.208 473.302 458.338C471.493 460.449 469.062 462.398 466.027 464.147C462.972 465.916 459.454 467.343 455.455 468.468C451.455 469.594 447.275 470.156 442.913 470.156C440.562 470.156 438.431 469.915 436.562 469.413C434.07 472.608 432.06 475.884 430.533 479.261C429.005 482.637 428.242 485.934 428.242 489.109C428.242 493.35 429.648 496.626 432.462 498.957C435.276 501.289 438.974 502.455 443.557 502.455C445.024 502.455 446.672 502.254 448.561 501.832C450.45 501.409 452.4 500.726 454.45 499.761C456.5 498.797 458.57 497.49 460.701 495.842C462.811 494.194 464.821 492.124 466.69 489.652C466.971 489.33 467.333 489.27 467.775 489.491C468.217 489.712 468.318 489.994 468.036 490.315C467.896 490.476 467.253 491.28 466.107 492.707C464.961 494.134 463.313 495.681 461.163 497.329C459.012 498.977 456.399 500.485 453.365 501.832C450.31 503.178 446.833 503.861 442.954 503.861C439.899 503.861 437.125 503.5 434.633 502.756C432.141 502.012 430.01 500.967 428.242 499.621C426.473 498.274 425.106 496.646 424.121 494.717C423.157 492.787 422.654 490.677 422.654 488.366C422.654 485.23 423.458 481.834 425.046 478.176C426.634 474.518 428.784 470.9 431.497 467.322C428.724 465.554 427.337 463.142 427.337 460.067C427.337 458.921 427.558 457.876 428.02 456.932C428.463 456.007 429.005 455.163 429.628 454.459C430.251 453.736 430.955 453.193 431.719 452.811C432.482 452.429 433.186 452.229 433.809 452.229C434.914 452.229 435.477 452.61 435.477 453.374C435.477 453.595 435.417 453.736 435.316 453.836C435.176 453.977 435.095 453.997 435.015 453.937ZM437.728 468.207C438.411 468.327 439.135 468.408 439.858 468.488C440.582 468.569 441.406 468.609 442.31 468.609C446.189 468.609 450.008 468.106 453.767 467.121C457.505 466.137 460.841 464.83 463.756 463.202C466.67 461.574 469.021 459.745 470.83 457.715C472.639 455.685 473.543 453.655 473.543 451.605C473.543 450.5 473.081 449.716 472.137 449.254C471.192 448.792 470.388 448.55 469.685 448.55C467.454 448.49 464.982 448.973 462.248 449.998C459.515 451.023 456.701 452.409 453.827 454.198C450.953 455.987 448.119 458.077 445.345 460.469C442.552 462.901 440.019 465.453 437.728 468.207Z" fill="#961818"/>
<path d="M467.594 500.365C466.127 500.365 465.002 500.003 464.158 499.299C463.333 498.576 462.972 497.631 463.112 496.405C463.173 495.581 463.434 494.737 463.896 493.853C464.338 492.968 464.901 492.185 465.564 491.461C466.228 490.737 466.971 490.155 467.795 489.692C468.619 489.23 469.464 488.989 470.288 488.989C470.971 488.989 471.534 489.15 471.956 489.491C472.157 489.049 472.78 488.828 473.825 488.828C475.071 488.828 476.016 489.19 476.639 489.934C477.262 490.677 477.463 491.662 477.262 492.868C477.262 493.089 477.222 493.29 477.161 493.451C477.101 493.612 477.021 493.813 476.96 494.034C477.784 494.576 478.87 494.858 480.196 494.858C481.864 494.858 483.291 494.657 484.517 494.275C485.723 493.893 486.788 493.431 487.693 492.908C488.597 492.386 489.321 491.843 489.884 491.3C490.446 490.758 490.888 490.315 491.23 489.974C491.512 489.692 491.793 489.692 492.054 489.974C492.336 490.255 492.376 490.516 492.155 490.798C492.014 490.959 491.692 491.34 491.17 491.903C490.647 492.486 489.884 493.069 488.879 493.672C487.874 494.275 486.648 494.817 485.241 495.32C483.814 495.822 482.105 496.064 480.096 496.064C478.769 496.064 477.503 495.843 476.237 495.4C475.473 496.727 474.327 497.872 472.8 498.857C471.272 499.882 469.544 500.365 467.594 500.365ZM474.046 494.114C473.282 493.511 472.699 492.868 472.338 492.225C471.956 491.562 471.735 491.019 471.654 490.577C470.549 491.18 469.584 491.964 468.8 492.928C467.996 493.893 467.413 494.817 467.032 495.742C466.65 496.646 466.549 497.43 466.71 498.094C466.891 498.757 467.313 499.078 468.016 499.078C468.579 499.078 469.484 498.757 470.77 498.134C472.056 497.47 473.142 496.144 474.046 494.114ZM474.669 491.461C474.729 490.959 474.709 490.717 474.569 490.717C474.508 490.717 474.528 490.979 474.669 491.461Z" fill="#961818"/>
<path d="M513.278 491.541C513.138 491.662 512.756 492.003 512.133 492.566C511.51 493.129 510.746 493.812 509.841 494.536C508.937 495.279 507.912 496.083 506.766 496.927C505.621 497.771 504.475 498.575 503.329 499.319C502.184 500.063 501.078 500.666 499.993 501.128C498.908 501.59 497.963 501.831 497.139 501.831C496.034 501.831 495.129 501.63 494.426 501.249C493.722 500.867 493.381 500.224 493.381 499.359C493.381 498.636 493.562 497.912 493.903 497.169C494.245 496.425 494.627 495.721 495.049 495.018C495.471 494.335 495.873 493.712 496.255 493.169C496.637 492.626 496.858 492.204 496.938 491.923C496.938 491.822 496.596 491.762 495.893 491.802C495.19 491.822 494.325 491.842 493.3 491.842C491.291 491.842 490.286 491.039 490.286 489.451C490.286 488.727 490.567 487.963 491.11 487.139C491.672 486.315 492.436 485.893 493.401 485.893C493.964 485.893 494.506 486.014 495.069 486.215C495.632 486.436 495.893 486.758 495.893 487.2C495.893 487.803 495.652 488.365 495.17 488.888C494.687 489.411 494.225 489.893 493.823 490.335L497.461 490.255C498.425 490.194 499.27 490.395 499.953 490.838C500.636 491.28 500.817 491.863 500.475 492.566C500.335 492.948 500.134 493.39 499.852 493.893C499.571 494.395 499.29 494.877 499.028 495.34C498.747 495.802 498.486 496.224 498.245 496.626C498.003 497.008 497.802 497.289 497.682 497.45C497.119 498.395 496.858 499.118 496.898 499.641C496.938 500.163 497.22 500.425 497.782 500.425C498.606 500.425 499.732 500.002 501.119 499.178C502.505 498.354 503.932 497.39 505.38 496.284C506.847 495.179 508.193 494.093 509.439 493.028C510.686 491.963 511.59 491.179 512.153 490.677C512.293 490.516 512.595 490.536 513.037 490.757C513.479 491.018 513.56 491.28 513.278 491.541Z" fill="#961818"/>
<path d="M518.383 489.813C518.383 489.873 518.262 490.174 518.021 490.717C517.78 491.26 517.459 492.043 517.036 493.028C519.187 491.481 521.277 490.275 523.287 489.39C525.297 488.506 527.166 488.064 528.915 488.064C530.442 488.064 531.648 488.345 532.552 488.928C533.457 489.511 533.879 490.315 533.799 491.36C533.738 492.466 533.477 493.47 533.075 494.415C532.653 495.36 532.11 496.264 531.407 497.128C533.497 496.465 535.286 495.762 536.813 494.978C538.341 494.214 539.627 493.47 540.672 492.747C541.717 492.023 542.501 491.42 543.064 490.938C543.627 490.436 543.928 490.174 544.009 490.114C544.29 489.893 544.612 489.893 544.993 490.114C545.375 490.335 545.436 490.576 545.154 490.858C543.345 492.948 541.034 494.616 538.18 495.882C535.326 497.148 532.532 498.173 529.759 498.937C528.653 499.922 527.427 500.826 526.121 501.61C524.794 502.414 523.468 503.078 522.121 503.64C520.775 504.183 519.468 504.625 518.222 504.927C516.976 505.228 515.871 505.389 514.886 505.389C513.559 505.389 512.655 505.188 512.173 504.806C511.409 506.615 510.605 508.464 509.781 510.333C508.957 512.202 508.153 514.011 507.389 515.74C506.625 517.468 505.902 519.096 505.198 520.603C504.515 522.111 503.912 523.417 503.43 524.523C501.842 527.819 500.254 530.231 498.687 531.778C497.119 533.326 495.451 534.089 493.642 534.089C492.456 534.089 491.632 533.728 491.15 533.024C490.667 532.301 490.426 531.457 490.426 530.472C490.426 528.663 490.929 526.532 491.933 524.08C492.938 521.628 494.285 519.056 495.933 516.322C497.601 513.609 499.551 510.835 501.762 508.042C503.993 505.228 506.304 502.595 508.736 500.123C509.359 498.535 509.942 497.068 510.504 495.701C511.067 494.355 511.55 493.189 511.972 492.204C512.454 491.059 512.876 490.014 513.218 489.069C513.419 488.526 513.781 488.225 514.263 488.164C514.745 488.104 515.207 488.084 515.609 488.084C516.795 488.084 517.579 488.265 518.001 488.627C518.383 488.988 518.524 489.37 518.383 489.813ZM506.947 504.404C502.083 509.851 498.425 514.815 495.973 519.337C493.501 523.839 492.235 527.578 492.175 530.552C492.175 531.758 492.597 532.361 493.421 532.361C493.984 532.361 494.627 531.698 495.35 530.391C496.074 529.085 497.038 527.115 498.204 524.543C499.591 521.628 501.058 518.393 502.586 514.815C504.093 511.237 505.56 507.76 506.947 504.404ZM522.443 500.364C521.539 500.465 520.554 500.605 519.468 500.786C518.383 500.947 517.418 501.148 516.554 501.409C515.69 501.651 514.966 501.932 514.363 502.233C513.781 502.535 513.479 502.876 513.479 503.258C513.479 503.701 513.72 503.922 514.203 503.922C515.449 503.922 516.795 503.6 518.202 502.937C519.649 502.274 521.056 501.409 522.443 500.364ZM516.092 495.34C515.75 496.224 515.368 497.148 514.946 498.093C514.524 499.058 514.082 500.083 513.6 501.188C514.283 500.867 515.107 500.565 516.052 500.324C516.996 500.083 517.941 499.862 518.906 499.661C519.87 499.46 520.855 499.299 521.82 499.158C522.785 499.018 523.649 498.897 524.413 498.797C526.141 497.37 527.588 495.902 528.734 494.375C529.879 492.867 530.442 491.722 530.442 490.958C530.442 490.295 530.362 489.873 530.181 489.672C530 489.471 529.678 489.39 529.196 489.39C529.055 489.39 528.694 489.37 528.111 489.31C527.528 489.25 526.704 489.37 525.659 489.672C524.614 489.973 523.307 490.556 521.699 491.4C520.112 492.244 518.222 493.591 516.072 495.4V495.34H516.092Z" fill="#961818"/>
</svg>
